<svg width="33" height="28" viewBox="0 0 33 28" fill="none" xmlns="http://www.w3.org/2000/svg">
<defs><style>
    path { fill: #FFF; }
    @media (prefers-color-scheme: light) {
        path { fill: #505050; }
    }
</style></defs>
<path d="M29.6079 6.9781C29.6289 7.28434 29.6289 7.59064 29.6289 7.89687C29.6289 17.2375 22.8237 28 10.3858 28C6.55394 28 2.99431 26.8406 0 24.8282C0.544438 24.8937 1.06786 24.9156 1.63325 24.9156C4.79501 24.9156 7.70559 23.8 10.0298 21.8969C7.05648 21.8313 4.56472 19.7969 3.7062 16.9969C4.12502 17.0625 4.54377 17.1062 4.98354 17.1062C5.59075 17.1062 6.19803 17.0187 6.76335 16.8656C3.66437 16.2093 1.34005 13.3656 1.34005 9.93124V9.84377C2.2404 10.3688 3.28744 10.6969 4.39714 10.7406C2.57543 9.47182 1.38194 7.30622 1.38194 4.8562C1.38194 3.54373 1.71691 2.3406 2.30324 1.29059C5.63258 5.57809 10.6371 8.37804 16.2487 8.68435C16.144 8.15934 16.0812 7.61252 16.0812 7.06563C16.0812 3.17184 19.0964 4.9317e-08 22.8445 4.9317e-08C24.7919 4.9317e-08 26.5507 0.853123 27.7862 2.23125C29.3147 1.92501 30.7804 1.33436 32.0787 0.525004C31.5761 2.16567 30.5082 3.54379 29.1053 4.41873C30.4664 4.26568 31.7856 3.87184 33 3.32502C32.0788 4.72497 30.9271 5.97179 29.6079 6.9781Z"/>
</svg>
