<svg width="300" height="300" viewBox="0 0 300 300" fill="none" xmlns="http://www.w3.org/2000/svg">
<path d="M4.75701 26.0529L2.73104 18.5066C4.46759 19.944 6.13178 20.4471 7.5789 20.0158C8.15775 19.8721 8.59189 19.5846 8.80896 19.2253C9.09838 18.8659 9.17074 18.4347 9.02603 18.0035C8.88132 17.3566 8.30247 16.8536 7.36183 16.4223L6.05942 15.8474C5.19115 15.488 4.46759 15.1287 3.81638 14.7693C3.16517 14.41 2.58632 13.9787 2.15219 13.4757C1.71805 12.9726 1.28391 12.4695 0.994488 11.9664C0.705063 11.4633 0.415638 10.8165 0.270926 10.1696C-0.0184991 9.01971 -0.0908553 7.79791 0.126213 6.43238C0.270926 5.78555 0.415638 5.21059 0.632707 4.63563C0.849776 4.06066 1.1392 3.55757 1.50098 3.05448C2.44161 1.68895 3.81638 0.754637 5.55293 0.323416C7.14477 -0.107805 8.80896 -0.107805 10.6179 0.323416L12.5715 7.65417C11.8479 7.00734 11.052 6.50425 10.2561 6.21677C9.46016 5.92929 8.7366 5.85742 8.0854 6.07303C7.5789 6.21677 7.21712 6.43238 6.9277 6.8636C6.63827 7.22295 6.56592 7.5823 6.71063 8.01352C6.85534 8.66036 7.50655 9.16345 8.59189 9.59467L9.82195 10.0978C11.4861 10.7446 12.7162 11.4633 13.5845 12.3257C14.4527 13.1882 15.104 14.3381 15.4657 15.7036C16.1169 18.0753 15.8999 20.2315 14.8869 22.1719C13.8739 24.1124 12.2097 25.3342 9.96666 25.9092C8.44718 26.1967 6.71063 26.2685 4.75701 26.0529Z" transform="translate(91.7421 108.282)" fill="white"/>
<path d="M26.193 24.2921L19.1744 25.0827L17.3655 13.8709L16.6419 9.41499C16.6419 10.2774 16.7143 11.1399 16.6419 11.9304C16.6419 12.721 16.6419 13.5116 16.5696 14.2303L15.7013 25.5139L10.2022 26.1607L7.16327 15.3083C6.9462 14.6615 6.72913 13.5835 6.36735 12.0742C6.29499 11.8586 6.22264 11.3555 6.07792 10.6368L6.4397 15.2365L7.16327 26.5201L0 27.3825V2.29985L8.39332 1.36553L10.7811 9.55873C10.9981 10.2056 11.1429 10.9243 11.3599 11.7867C11.577 12.5773 11.7217 13.4397 11.9388 14.374C11.8664 12.7929 11.9388 11.3555 12.0111 10.0618L12.6623 0.934312L20.9833 0L26.193 24.2921Z" transform="translate(111.477 103.503)" fill="white"/>
<path d="M0.14471 25.0108L0 0.0718702L12.59 0L12.6623 5.89335L6.87384 5.96522V9.6306H12.0835L12.1558 15.2365L6.9462 15.3083V19.1175L12.7347 19.0456L12.807 25.0108H0.14471Z" transform="translate(140.926 103)" fill="white"/>
<path d="M0 24.8671L1.95362 0L7.81447 0.431221C11.1429 0.718702 13.6753 1.79675 15.4119 3.73725C17.6549 6.25271 18.5955 9.6306 18.3061 13.7991C17.9443 17.8957 16.7143 20.9861 14.4712 23.0703C12.59 24.8671 9.84044 25.5858 6.36734 25.2983L0 24.8671ZM7.23562 19.4049C9.69573 19.4768 11.0705 17.5363 11.3599 13.5116C11.5046 11.4992 11.3599 9.91808 10.7811 8.76816C10.2746 7.54637 9.47866 6.89954 8.39332 6.82767H8.17625L7.23562 19.4049Z" transform="translate(157.061 103.072)" fill="white"/>
<path d="M11.6494 1.07805L5.28201 12.1461L0 11.2836L5.06494 0L11.6494 1.07805Z" transform="translate(179.419 105.803)" fill="white"/>
<path d="M0 22.2448L2.09833 14.6984C2.89424 16.7826 4.05194 18.0763 5.49907 18.4357C6.07792 18.5794 6.58441 18.5794 7.01855 18.3638C7.45269 18.1482 7.74211 17.8607 7.88682 17.4295C8.03154 16.7826 7.88683 16.0639 7.23562 15.2015L6.36734 14.0516C5.78849 13.3329 5.35436 12.6142 4.99257 11.9673C4.63079 11.3205 4.41372 10.6737 4.19665 10.0268C4.05194 9.38001 3.97959 8.73318 3.97959 8.08635C3.97959 7.43952 4.1243 6.79269 4.26901 6.14585C4.55844 4.99593 5.13728 3.91788 6.00556 2.83983C6.43969 2.33673 6.87384 1.90551 7.38033 1.54616C7.88683 1.18681 8.39331 0.82746 8.89981 0.61185C10.4193 -0.106852 12.0835 -0.178722 13.82 0.324369C15.3395 0.755591 16.859 1.61803 18.1614 2.83983L16.2078 10.2425C15.9184 9.30814 15.4842 8.4457 14.9054 7.79887C14.3265 7.15204 13.7477 6.72082 13.0965 6.50521C12.59 6.36146 12.1558 6.43334 11.7217 6.57708C11.2876 6.79269 11.0705 7.08017 10.9258 7.43952C10.7811 8.08635 10.9981 8.87692 11.7217 9.73936L12.5176 10.8174C13.603 12.1829 14.3265 13.4766 14.616 14.6984C14.9054 15.9202 14.9054 17.2139 14.4712 18.5794C13.82 20.9511 12.5176 22.676 10.6364 23.8259C8.7551 24.9758 6.72913 25.1915 4.48608 24.6165C3.11132 24.1853 1.51948 23.3947 0 22.2448Z" transform="translate(189.839 109.144)" fill="white"/>
<path d="M0 25.6577L4.19666 0L12.3006 1.29367C15.3395 1.79676 17.5102 2.80294 18.7403 4.38408C19.9703 5.96522 20.4768 7.83385 20.115 10.0618C19.6085 13.296 17.7273 14.7334 14.4712 14.5178C16.2801 15.0927 17.5102 15.8833 18.2338 16.9614C18.9573 18.0394 19.1744 19.4049 18.885 21.2017C18.5232 23.4297 17.5102 25.0827 15.846 26.1607C14.1818 27.3107 12.2282 27.67 9.84045 27.3107L0 25.6577ZM7.88683 21.2017C8.03154 21.2017 8.1039 21.2736 8.24861 21.2736C8.39332 21.2736 8.46568 21.3454 8.46568 21.3454C9.33395 21.4892 10.0575 21.3454 10.6364 20.9861C11.2152 20.6267 11.577 20.0518 11.7217 19.2612C11.8664 18.4706 11.6494 17.8238 11.2152 17.3207C10.7811 16.8176 10.0575 16.4583 9.18924 16.3145L8.61039 16.2427L7.88683 21.2017ZM9.47866 11.068L9.9128 11.1399C10.7811 11.2836 11.4323 11.2117 12.0111 10.8524C12.59 10.5649 12.8794 10.0618 13.0241 9.34312C13.2412 7.83385 12.59 6.97141 10.9258 6.68393C10.8534 6.68393 10.7811 6.68392 10.6364 6.61205C10.4917 6.61205 10.3469 6.61205 10.2022 6.54018L9.47866 11.068Z" transform="translate(100.913 165.886)" fill="white"/>
<path d="M18.6679 26.9513L10.9981 26.5201L8.03154 17.1051C8.03154 16.9614 7.95918 16.7458 7.88683 16.4583C7.81447 16.1708 7.74212 15.8833 7.5974 15.524L7.52505 17.2488L7.01855 26.3045L0 25.9451L1.37477 0L8.61039 0.359351C11.7941 0.503091 14.1095 1.29366 15.6289 2.58733C17.5826 4.31221 18.4508 6.61205 18.3061 9.55873C18.1614 12.721 16.6419 14.8053 13.8924 15.8833L18.6679 26.9513ZM7.88683 12.4335H8.39332C9.18924 12.5054 9.9128 12.2179 10.4917 11.643C11.0705 11.068 11.3599 10.2774 11.4323 9.34312C11.5046 7.40263 10.564 6.39644 8.53803 6.2527H8.24861L7.88683 12.4335Z" transform="translate(125.514 169.049)" fill="white"/>
<path d="M0.723562 26.3764L0 0.359351L13.1688 0L13.3135 6.10896L7.23562 6.25271L7.30798 10.0618L12.7347 9.91809L12.8794 15.8114L7.45269 15.9552L7.5974 19.908L13.6753 19.7643L13.82 26.017L0.723562 26.3764Z" transform="translate(149.464 169.552)" fill="white"/>
<path d="M27.7124 26.592L20.9833 27.5263L18.0891 18.7581C17.5102 17.0332 17.0761 15.5958 16.7143 14.3022C16.5696 13.6553 16.4249 13.1522 16.2801 12.721C16.1354 12.2898 16.0631 12.0023 16.0631 11.7867C16.0631 12.2179 16.1354 13.0804 16.1354 14.374C16.1354 15.0209 16.2078 15.6677 16.2078 16.3864C16.2078 17.1051 16.2078 17.8238 16.2078 18.6144V28.1731L9.40631 29.1074L0 4.16847L6.9462 3.23416L9.11688 10.1337C9.98516 12.8648 10.564 15.0927 10.9258 16.6739L11.5046 18.9737L11.4323 16.8895C11.3599 14.5178 11.3599 12.2179 11.3599 10.0618L11.6493 2.51546L17.6549 1.65302L19.6809 7.69011C20.6215 10.493 21.6345 13.7991 22.5751 17.6801C22.4304 15.8833 22.3581 14.3022 22.2857 12.9366C22.2134 11.5711 22.2134 10.2774 22.2857 9.12752L22.4304 0.934314L29.2319 0L27.7124 26.592Z" transform="translate(165.02 165.671)" fill="white"/>
<path d="M0 15.4521L3.03896 0L8.03154 11.1399L13.1688 0L15.9184 15.4521H13.6753L12.3006 6.7558L8.03154 16.0989L3.90724 6.7558L2.24304 15.4521H0Z" transform="translate(91 140.726)" fill="white"/>
<path d="M2.17069 0V14.374H0V0H2.17069V0Z" transform="translate(115.312 141.804)" fill="white"/>
<path d="M4.84786 8.26507L9.33395 14.374H6.65677L2.53247 8.48068H2.17069V14.374H0V0H2.53247C4.41373 0 5.78849 0.359351 6.65677 1.07805C7.5974 1.86862 8.03154 2.94668 8.03154 4.24034C8.03154 5.24652 7.74211 6.10897 7.16326 6.89954C6.58441 7.69011 5.86085 8.04946 4.84786 8.26507ZM2.17069 6.61206H2.89425C4.99258 6.61206 6.00557 5.82149 6.00557 4.24034C6.00557 2.80294 4.99258 2.01237 2.9666 2.01237H2.17069V6.61206V6.61206Z" transform="translate(126.382 141.804)" fill="white"/>
<path d="M10.1299 11.7148H3.90724L2.3154 15.2365H0L7.16327 0L14.0371 15.2365H11.6494L10.1299 11.7148ZM9.2616 9.70247L7.09091 4.8153L4.84786 9.70247H9.2616Z" transform="translate(141.649 140.941)" fill="white"/>
<path d="M11.3599 1.07805V3.66538C10.1299 2.58733 8.82746 2.08423 7.45269 2.08423C5.93321 2.08423 4.70315 2.58733 3.69017 3.66538C2.67718 4.74343 2.17069 6.03709 2.17069 7.54637C2.17069 9.05564 2.67718 10.3493 3.69017 11.3555C4.70315 12.3617 6.00557 12.9366 7.45269 12.9366C8.24861 12.9366 8.89981 12.7929 9.40631 12.5773C9.69573 12.4335 9.98516 12.2898 10.3469 12.0742C10.6364 11.8586 10.9981 11.643 11.3599 11.2836V13.8709C10.1299 14.5896 8.82746 14.949 7.45269 14.949C5.35436 14.949 3.61781 14.2303 2.17069 12.7929C0.723562 11.3555 0 9.6306 0 7.54637C0 5.74961 0.57885 4.0966 1.80891 2.6592C3.32839 0.934313 5.282 0 7.5974 0C8.82746 0 10.1299 0.359351 11.3599 1.07805Z" transform="translate(161.547 141.516)" fill="white"/>
<path d="M2.17069 0V12.3617H6.4397V14.374H0V0H2.17069V0Z" transform="translate(181.011 141.804)" fill="white"/>
<path d="M7.95918 2.08424H2.17069V5.534H7.81446V7.54637H2.17069V12.3617H7.95918V14.374H0V0H7.95918V2.08424Z" transform="translate(194.904 141.732)" fill="white"/>
</svg>
