<svg xmlns="http://www.w3.org/2000/svg" viewBox="0 0 50 50"><defs><style>.a{fill:#35d80e;}</style></defs><title>logo-text</title><path class="a" d="M8.1,27.7c0.5,2.5,4.2,2.5,4.2-.2V20.7H10.2V19.5h3.4v8c0,4.2-6,4.5-6.8.5Z"/><path class="a" d="M26.9,30.6H25.3l-3.5-4.5H20.7v4.5H19.4V19.4H23c2.1,0,3.8,1,3.8,3.4,0,2.2-1.5,3.2-3.4,3.3Zm-4-5.7c1.5,0,2.5-.6,2.5-2.2s-1-2.1-2.5-2.1H20.7v4.3h2.2Z"/><path class="a" d="M41.5,21.3l-0.9.7a4.42,4.42,0,0,0-3.4-1.6A4.47,4.47,0,0,0,32.8,25a4.41,4.41,0,0,0,4.4,4.6c1.9,0,4-1.4,4.2-3.4h-5V25h6.4a5.66,5.66,0,0,1-5.6,5.9,5.59,5.59,0,0,1-5.7-5.8,5.59,5.59,0,0,1,5.7-5.8A5.08,5.08,0,0,1,41.5,21.3Z"/></svg>