<?xml version="1.0" encoding="utf-8"?>
<!-- Generator: Adobe Illustrator 19.1.0, SVG Export Plug-In . SVG Version: 6.00 Build 0)  -->
<svg version="1.1" id="Layer_1" xmlns="http://www.w3.org/2000/svg" xmlns:xlink="http://www.w3.org/1999/xlink" x="0px" y="0px"
	 viewBox="0 0 50 50" style="enable-background:new 0 0 50 50;" xml:space="preserve">
<style type="text/css">
	.st0{fill:#35D80E;}
</style>
<g>
	<path class="st0" d="M2.7,19.2H1.3l0,11.7h1.4V32H0L0,18h2.7L2.7,19.2L2.7,19.2z"/>
	<path class="st0" d="M8.1,27.7c0.5,2.5,4.2,2.5,4.2-0.2v-6.8h-2.1v-1.2h3.4v8c0,4.2-6,4.5-6.8,0.5L8.1,27.7z"/>
	<path class="st0" d="M26.9,30.6h-1.6l-3.5-4.5h-1.1v4.5h-1.3V19.4h3.6c2.1,0,3.8,1,3.8,3.4c0,2.2-1.5,3.2-3.4,3.3L26.9,30.6z
		 M22.9,24.9c1.5,0,2.5-0.6,2.5-2.2c0-1.5-1-2.1-2.5-2.1h-2.2v4.3H22.9z"/>
	<path class="st0" d="M41.5,21.3L40.6,22c-0.8-1-2.1-1.6-3.4-1.6c-2.8,0-4.4,2.4-4.4,4.6c0,2.2,1.5,4.6,4.4,4.6c1.9,0,4-1.4,4.2-3.4
		h-5v-1.2h6.4c0,3.2-2.3,5.9-5.6,5.9c-3.7,0-5.7-2.9-5.7-5.8c0-2.9,2-5.8,5.7-5.8C38.9,19.2,40.5,20,41.5,21.3z"/>
	<path class="st0" d="M47.3,18H50L50,32h-2.7v-1.1h1.4l0-11.7h-1.4V18z"/>
	<path class="st0" d="M30.8,2.7V1.3l-11.7,0v1.4H18V0L32,0v2.7H30.8z"/>
	<path class="st0" d="M32,47.3V50L18,50v-2.7h1.1v1.4l11.7,0v-1.4H32z"/>
</g>
</svg>
