<?xml version="1.0" standalone="no"?>
<!DOCTYPE svg PUBLIC "-//W3C//DTD SVG 1.1//EN" "http://www.w3.org/Graphics/SVG/1.1/DTD/svg11.dtd" >
<svg xmlns="http://www.w3.org/2000/svg" xmlns:xlink="http://www.w3.org/1999/xlink" version="1.1">
<metadata></metadata>
<defs>
<font id="solomon_boldregular" horiz-adv-x="603" >
<font-face units-per-em="1000" ascent="750" descent="-250" />
<missing-glyph horiz-adv-x="257" />
<glyph unicode="&#xfb00;" horiz-adv-x="599" d="M567 700v-95q-96 6 -96 -60v-38h96v-93h-96v-414h-109v414h-176v-414h-109v414h-55v93h55v38q0 84 56.5 124t148.5 31v-95q-96 6 -96 -60v-38h176v38q0 84 56.5 124t148.5 31z" />
<glyph unicode="&#xfb01;" horiz-adv-x="511" d="M274 702v-95q-91 6 -91 -62v-38h250v-507h-109v414h-141v-414h-109v414h-55v93h55v38q0 85 54.5 125.5t145.5 31.5zM323 595h111v108h-111v-108z" />
<glyph unicode="&#xfb02;" horiz-adv-x="545" d="M273 700v-95q-90 6 -90 -60v-38h90v-93h-90v-414h-109v414h-55v93h55v38q0 85 54 124.5t145 30.5zM532 -1v98q-43 -4 -59 11t-16 48v544h-109v-544q0 -87 47 -127t137 -30z" />
<glyph unicode="&#xfb03;" horiz-adv-x="816" d="M567 700v-95q-93 6 -93 -60v-38h257v-507h-109v414h-148v-414h-109v414h-176v-414h-109v414h-55v93h55v38q0 85 55 124.5t146 30.5v-95q-92 6 -92 -60v-38h176v38q0 85 55.5 124.5t146.5 30.5zM621 599h111v101h-111v-101z" />
<glyph unicode="&#xfb04;" horiz-adv-x="828" d="M568 700v-95q-93 6 -93 -60v-38h89l1 -93h-90v-414h-109v414h-176v-414h-109v414h-55v93h55v38q0 85 55 124.5t146 30.5v-95q-92 6 -92 -60v-38h176v38q0 85 55.5 124.5t146.5 30.5zM810 97v-98q-90 -10 -137 30t-47 127v544h109v-544q0 -33 16 -48t59 -11z" />
<glyph unicode="fj" horiz-adv-x="550" d="M284 -191l1 92q42 -3 58 14t16 52v443h-164v-410h-109v410h-53v97h53v38q0 85 55.5 124.5t146.5 30.5v-95q-93 6 -93 -60v-38h273v-540q0 -88 -47 -128t-137 -30zM360 598h109v102h-109v-102z" />
<glyph horiz-adv-x="0" />
<glyph horiz-adv-x="333" />
<glyph unicode=" "  horiz-adv-x="257" />
<glyph unicode="&#x09;" horiz-adv-x="257" />
<glyph unicode="&#xa0;" horiz-adv-x="257" />
<glyph unicode="!" horiz-adv-x="309" d="M206 166h-112l-7 534h125zM211 0h-120v115h120v-115z" />
<glyph unicode="&#x22;" horiz-adv-x="346" d="M47 484v217h101v-217h-101zM195 484v217h102v-217h-102z" />
<glyph unicode="#" horiz-adv-x="586" d="M551 497v-98h-88l-18 -109h73l-1 -99h-87l-30 -191h-103l29 191h-97l-30 -191h-104l29 191h-82l1 99h96l16 109h-81l1 98h96l30 204h106l-30 -204h96l31 204h104l-30 -204h73zM367 406h-110l-19 -123h109z" />
<glyph unicode="$" horiz-adv-x="552" d="M163 503q-1 -23 8.5 -40.5t32 -29.5t36.5 -17t41 -13q46 -12 79 -26t67 -39.5t50.5 -66.5t14.5 -96q-4 -79 -54 -126.5t-123 -60.5v-87h-101v87q-59 12 -108 53t-74 107l92 47q19 -50 57.5 -79.5t82.5 -29.5q51 -1 83 24t35 70q2 30 -9.5 53t-33.5 37t-41.5 22t-45.5 15 q-32 8 -55 16.5t-53 25t-48.5 36.5t-31 52t-11.5 71q2 76 47.5 125t113.5 63v87h101v-86q118 -27 159 -140l-90 -41q-34 83 -116 83q-42 0 -72 -24.5t-33 -71.5z" />
<glyph unicode="%" horiz-adv-x="855" d="M372 533q0 -72 -53 -124t-126 -52t-125.5 51.5t-52.5 124.5t52.5 124.5t125.5 51.5t126 -51.5t53 -124.5zM814 153q0 -72 -52.5 -123.5t-125.5 -51.5q-74 0 -126.5 51t-52.5 124t52.5 124.5t126.5 51.5q73 0 125.5 -51.5t52.5 -124.5zM718 153q0 40 -23.5 63.5 t-58.5 23.5t-58.5 -23t-23.5 -64q0 -40 23.5 -62.5t58.5 -22.5t58.5 22.5t23.5 62.5zM575 726h120l-444 -761h-119zM276 533q0 40 -23.5 63.5t-58.5 23.5t-58.5 -23t-23.5 -64q0 -40 23.5 -62.5t58.5 -22.5t58.5 22.5t23.5 62.5z" />
<glyph unicode="&#x26;" horiz-adv-x="652" d="M337 366l100 -107l41 76l90 -47l-60 -112q15 -16 133 -151h-143l-52 61q-87 -98 -189 -98q-91 0 -153.5 59.5t-62.5 152.5q0 108 125 188q-59 74 -59 140q0 77 54 123t128 46q68 0 117.5 -45t49.5 -114q0 -61 -31.5 -100.5t-87.5 -71.5zM374 164l-137 148 q-36 -16 -61 -46.5t-25 -63.5q0 -59 40 -88.5t94 -16t89 66.5zM286 600q-30 0 -50.5 -20t-20.5 -50q0 -42 49 -99q89 47 89 106q0 27 -19.5 45t-47.5 18z" />
<glyph unicode="'" horiz-adv-x="195" d="M43 488v213h101v-213h-101z" />
<glyph unicode="(" horiz-adv-x="365" d="M167 351q0 -114 53.5 -215.5t147.5 -157.5v-124q-100 50 -171 131t-104 173t-33 194t33.5 194t104 173t170.5 131v-123q-94 -51 -147.5 -152.5t-53.5 -223.5z" />
<glyph unicode=")" horiz-adv-x="379" d="M200 345q0 112 -54.5 217t-146.5 161v121q100 -51 171 -132t104.5 -173t33.5 -193t-33 -193t-104 -173t-172 -132v121q93 56 147 159t54 217z" />
<glyph unicode="*" horiz-adv-x="460" d="M412 521l-125 -35l82 -104l-83 -58l-71 108l-72 -108l-82 58l82 104l-125 35l31 92l120 -45l-3 131h100l-6 -131l121 45z" />
<glyph unicode="+" horiz-adv-x="642" d="M65 273v103h196v193h107v-193h188v-103h-188v-195h-107v195h-196z" />
<glyph unicode="," horiz-adv-x="253" d="M4 -131l71 236h124l-90 -236h-105z" />
<glyph unicode="-" horiz-adv-x="448" d="M74 256v105h287v-105h-287z" />
<glyph unicode="." horiz-adv-x="254" d="M179 -2h-122v119h122v-119z" />
<glyph unicode="/" horiz-adv-x="412" d="M401 760l-279 -821h-114l280 821h113z" />
<glyph unicode="0" horiz-adv-x="601" d="M162 203q0 -50 39 -80t90 -30t89.5 30t38.5 80v296q0 50 -40 80t-92 29q-50 -1 -87.5 -30.5t-37.5 -78.5v-296zM50 499q0 99 70 155t166 57q99 2 172 -54t73 -158v-296q0 -92 -61 -148q-68 -65 -179 -65q-111 -2 -181 65q-60 58 -60 148v296z" />
<glyph unicode="1" horiz-adv-x="316" d="M116 598h-85v102h198v-700h-113v598z" />
<glyph unicode="2" horiz-adv-x="559" d="M269 600q-44 2 -81.5 -25t-57.5 -74l-91 42q31 80 93 119.5t140 37.5q96 -3 156.5 -62t62.5 -140q0 -83 -77 -166l-216 -227h298v-105h-432l-30 76l303 327q37 39 43.5 84t-23 78t-88.5 35z" />
<glyph unicode="3" horiz-adv-x="549" d="M24 148l85 48q49 -103 148 -103q48 0 82 28t34 85q0 50 -31 81.5t-75 31.5h-68v100h68q39 0 64 23.5t25 64.5q0 46 -30 70t-71 24q-91 0 -127 -76l-81 44q28 66 86.5 101t122.5 35q86 0 149 -50.5t63 -147.5q0 -39 -22.5 -80t-58.5 -54q98 -51 98 -168 q-1 -103 -69.5 -159.5t-161.5 -56.5q-70 0 -134 41.5t-96 117.5z" />
<glyph unicode="4" horiz-adv-x="572" d="M470 700v-471h52v-105h-52v-124h-110v124h-271l-71 96l326 480h126zM365 569l-70 -123l-153 -217h218v196l8 144h-3z" />
<glyph unicode="5" horiz-adv-x="572" d="M36 138l89 48q22 -45 62 -70t82 -25q63 0 99 41.5t36 99.5q0 67 -37.5 101t-96.5 36q-76 3 -142 -46h-65l53 377h356v-100h-266l-20 -145q137 41 233 -24.5t96 -198.5q0 -98 -66.5 -172t-181.5 -74q-74 0 -135 38.5t-96 113.5z" />
<glyph unicode="6" horiz-adv-x="592" d="M290 -11q-115 0 -180 72.5t-65 169.5q0 71 41 136l206 333h129l-156 -251q63 14 116 -1.5t85.5 -50.5t50.5 -78.5t18 -87.5q0 -97 -65 -169.5t-180 -72.5zM290 361q-57 0 -95 -36.5t-38 -93.5q0 -55 35.5 -96t97.5 -41q63 0 98.5 41t35.5 96q0 53 -35.5 91.5t-98.5 38.5z " />
<glyph unicode="7" horiz-adv-x="487" d="M330 593h-311v106h387l62 -78l-319 -621h-127z" />
<glyph unicode="8" horiz-adv-x="577" d="M277 -14q-93 0 -162 58.5t-70 159.5q-1 51 28.5 96.5t76.5 73.5q-36 18 -57.5 59t-21.5 79q0 90 61.5 144t144.5 54t144 -54t61 -144q0 -40 -21 -78.5t-57 -58.5q106 -54 105 -171q-1 -101 -70 -159.5t-162 -58.5zM277 610q-43 0 -68.5 -29.5t-25.5 -66.5q0 -36 25 -64 t69 -28q43 0 68 28t25 64q0 37 -25 66.5t-68 29.5zM277 324q-56 0 -87.5 -36.5t-31.5 -84.5q0 -46 31.5 -81.5t87.5 -34.5q56 0 88.5 35.5t32.5 82.5t-32.5 83t-88.5 36z" />
<glyph unicode="9" horiz-adv-x="595" d="M288 711q115 0 180 -72.5t65 -169.5q0 -71 -41 -136l-206 -333h-129l156 251q-63 -14 -116 1.5t-85.5 50.5t-50.5 78.5t-18 87.5q0 97 65 169.5t180 72.5zM288 339q57 0 95 36.5t38 93.5q0 55 -35.5 96t-97.5 41q-63 0 -98.5 -41t-35.5 -96q0 -53 35.5 -91.5t98.5 -38.5z " />
<glyph unicode=":" horiz-adv-x="292" d="M199 -2h-122v119h122v-119zM199 378h-122v119h122v-119z" />
<glyph unicode=";" horiz-adv-x="293" d="M199 378h-122v119h122v-119zM9 -131l71 236h124l-90 -236h-105z" />
<glyph unicode="&#x3c;" horiz-adv-x="484" d="M423 540v-123l-266 -133l266 -132v-120l-396 214v76z" />
<glyph unicode="=" horiz-adv-x="621" d="M82 320v102h440v-102h-440zM82 133v102h440v-102h-440z" />
<glyph unicode="&#x3e;" horiz-adv-x="486" d="M48 415v123l396 -216v-76l-396 -214v120l266 132z" />
<glyph unicode="?" horiz-adv-x="520" d="M3 593q91 116 215 116q96 0 163.5 -55.5t67.5 -161.5q-1 -79 -49 -133.5t-138 -70.5l-7 -123h-102l-5 197q77 1 132.5 35t54.5 96q-1 56 -35.5 81.5t-84.5 25.5q-34 0 -69.5 -19t-61.5 -51zM263 0h-120v115h120v-115z" />
<glyph unicode="@" horiz-adv-x="803" d="M457 -19l37 -75q-136 -48 -239 -23t-162.5 114t-55.5 216q4 98 49 184t129.5 141.5t190.5 55.5q146 0 238 -78t96 -222q3 -116 -68 -201.5t-159 -85.5q-24 0 -43 16t-23 52q-36 -60 -104 -60q-62 0 -103.5 46.5t-43.5 117.5q-3 105 59.5 182t161.5 77q26 0 52 -14.5 t35 -38.5q17 34 17 36l71 -9l-54 -279q-9 -34 12 -32q25 3 55 49q42 64 40 145q-6 209 -239 209q-118 0 -193.5 -89.5t-78.5 -202.5q-5 -152 83.5 -216t239.5 -15zM292 180q1 -29 17 -48t38 -19q48 0 85 58t35 114q-1 29 -15.5 47.5t-36.5 18.5q-60 1 -92.5 -52.5 t-30.5 -118.5z" />
<glyph unicode="A" horiz-adv-x="626" d="M-6 0l251 705h122l254 -705h-120l-78 213h-233l-75 -213h-121zM224 313h164l-65 200l-16 72h-5l-16 -72z" />
<glyph unicode="B" horiz-adv-x="599" d="M195 420h109q49 0 74.5 27.5t25.5 64.5q0 36 -25.5 62.5t-74.5 26.5h-109v-181zM304 320h-109v-214h109q63 0 96 31t33 74t-33.5 76t-95.5 33zM513 511q0 -40 -20.5 -77t-63.5 -57q56 -20 85.5 -69t28.5 -100q0 -102 -70 -155t-171 -53h-221v704h223q90 0 149.5 -52.5 t59.5 -140.5z" />
<glyph unicode="C" horiz-adv-x="719" d="M658 598l-72 -67q-81 85 -192 82q-113 -2 -177.5 -81.5t-64.5 -183.5q0 -103 65 -181t177 -78q56 0 112 26t95 73l80 -62q-116 -141 -287 -141q-112 0 -195 53.5t-122.5 134.5t-39.5 175q0 69 23.5 134.5t67 118t113 84t153.5 31.5q167 0 264 -118z" />
<glyph unicode="D" horiz-adv-x="715" d="M306 705q97 1 173.5 -38t116.5 -101t58.5 -137.5t0.5 -151t-57.5 -137.5t-116 -101t-174.5 -39h-224v705h223zM306 104q93 -2 156 48.5t77.5 124t-0.5 147t-77.5 125t-153.5 51.5h-111v-496h109z" />
<glyph unicode="E" horiz-adv-x="521" d="M473 704v-103h-278v-198h274v-103h-274q0 -33 -0.5 -97t-0.5 -98h279v-104h-393v703h393z" />
<glyph unicode="F" horiz-adv-x="508" d="M473 701v-104h-278v-200h274v-103h-274v-294h-115v701h393z" />
<glyph unicode="G" horiz-adv-x="811" d="M396 715q82 0 156.5 -36.5t128.5 -100.5l-82 -67q-40 47 -94 73.5t-109 26.5q-75 0 -132 -40t-84 -98.5t-27 -123.5q0 -102 65.5 -179.5t177.5 -77.5q83 0 147.5 44t77.5 130h-280v104h401q5 -177 -90 -280.5t-256 -103.5q-112 0 -195 53.5t-122.5 134.5t-40.5 175 q0 69 23.5 133.5t67.5 117t113.5 84t153.5 31.5z" />
<glyph unicode="H" horiz-adv-x="678" d="M466 0v297h-269v-297h-115v703h115v-302h269v302h115v-703h-115z" />
<glyph unicode="I" horiz-adv-x="274" d="M77 0v703h114v-703h-114z" />
<glyph unicode="J" horiz-adv-x="535" d="M10 183l100 22q11 -55 49.5 -84.5t80.5 -29.5q41 0 71 30.5t30 82.5v393h-126v103h241v-496q0 -102 -63.5 -159t-151.5 -57q-81 0 -146 49.5t-85 145.5z" />
<glyph unicode="K" horiz-adv-x="620" d="M82 705h115v-307l276 307h136l-275 -311l282 -394h-132l-225 319l-62 -62v-257h-115v705z" />
<glyph unicode="L" horiz-adv-x="468" d="M452 105v-105h-372v700h115v-595h257z" />
<glyph unicode="M" horiz-adv-x="841" d="M411 245l197 459h130v-704h-115v353l16 166l-5 1l-52 -150l-121 -263h-100l-121 263l-52 150l-5 -1l16 -166v-353h-115v704h130z" />
<glyph unicode="N" horiz-adv-x="723" d="M215 704l257 -456l48 -105l3 1l-15 130v430h115v-704h-131l-259 456l-49 105l-3 -1l16 -130v-430h-115v704h133z" />
<glyph unicode="O" horiz-adv-x="810" d="M395 715q149 0 253.5 -105.5t104.5 -260.5q0 -156 -104.5 -260t-253.5 -104q-150 0 -254 103t-104 261q0 157 104 261.5t254 104.5zM153 349q0 -120 72 -190t170 -70q97 0 170 70t73 190q0 119 -73.5 191t-170.5 71t-169 -72t-72 -190z" />
<glyph unicode="P" horiz-adv-x="573" d="M195 243v-244h-114v704h218q115 0 178.5 -69t63.5 -163t-63.5 -161t-177.5 -67h-105zM299 347q60 0 94 38t34 86q0 49 -34.5 88.5t-93.5 39.5h-104v-252h104z" />
<glyph unicode="Q" horiz-adv-x="822" d="M427 238l78 76l100 -102q37 55 37 136q0 119 -75 190.5t-173 70.5q-97 0 -168.5 -71t-71.5 -190t72 -189t170 -70q67 0 136 44zM684 132l64 -64l-77 -75l-64 64q-91 -71 -211 -71q-150 0 -254 102.5t-104 259.5t104 260.5t254 103.5t254.5 -103.5t104.5 -260.5 q0 -132 -71 -216z" />
<glyph unicode="R" horiz-adv-x="606" d="M377 275l211 -275h-136l-206 271h-49v-271h-115v701h230q110 0 177 -53t68 -164q1 -91 -49 -144t-131 -65zM197 372h116q60 0 94.5 29.5t34.5 82.5q0 54 -35 83.5t-94 29.5h-116v-225z" />
<glyph unicode="S" horiz-adv-x="550" d="M156 517q-2 -31 19.5 -54t45 -33.5t55.5 -18.5q38 -10 65 -19.5t58.5 -28t50.5 -42t31 -59.5t10 -82q-5 -94 -75 -145t-161 -51q-74 0 -138.5 41.5t-93.5 120.5l87 45q48 -103 148 -103q52 -1 85 26.5t35 71.5q2 30 -9 52.5t-34 36.5t-42 21.5t-47 14.5q-32 9 -56.5 17.5 t-54 25.5t-48.5 38t-31.5 54.5t-11.5 73.5q2 96 67.5 146.5t153.5 50.5q72 0 130.5 -40.5t85.5 -115.5l-90 -41q-19 46 -54 70.5t-73 24.5q-42 1 -73.5 -24.5t-34.5 -73.5z" />
<glyph unicode="T" horiz-adv-x="457" d="M-2 702h446v-105h-165v-597h-115v597h-166v105z" />
<glyph unicode="U" horiz-adv-x="645" d="M72 700h115v-490q0 -59 37 -89t90 -30t91 30t38 89v490h115v-490q0 -75 -36.5 -127t-90 -74t-117.5 -22q-101 0 -171.5 56t-70.5 167v490z" />
<glyph unicode="V" horiz-adv-x="617" d="M327 205l166 499h122l-243 -705h-137l-247 705h123l164 -499l26 -109h5z" />
<glyph unicode="W" horiz-adv-x="944" d="M464 488l-25 -137l-95 -354h-138l-185 705h119l119 -486l16 -120h4l19 120l105 402h126l105 -402l19 -120h4l16 120l119 486h119l-185 -705h-138l-95 354l-25 137h-4z" />
<glyph unicode="X" horiz-adv-x="633" d="M621 700l-231 -350l232 -349h-136l-172 269l-172 -269h-137l233 349l-231 350h135l172 -265l172 265h135z" />
<glyph unicode="Y" horiz-adv-x="579" d="M579 705l-241 -424v-281h-113v282l-240 423h131l166 -306l164 306h133z" />
<glyph unicode="Z" horiz-adv-x="558" d="M382 602h-331v103h424l44 -80l-351 -520h342v-105h-429l-54 76z" />
<glyph unicode="[" horiz-adv-x="301" d="M274 786v-85h-80q0 -111 -0.5 -352t-0.5 -351h80v-95h-191l1 883h191z" />
<glyph unicode="\" horiz-adv-x="413" d="M276 -61l-280 821h112l280 -821h-112z" />
<glyph unicode="]" horiz-adv-x="302" d="M14 701v85h191l1 -883h-191v95h80q0 110 -0.5 351t-0.5 352h-80z" />
<glyph unicode="^" horiz-adv-x="558" d="M42 317l202 377h68l201 -377h-115l-120 238q-20 -39 -61.5 -120t-60.5 -118h-114z" />
<glyph unicode="_" horiz-adv-x="553" d="M18 2h512v-93h-512v93z" />
<glyph unicode="`" horiz-adv-x="499" d="M249 711l-99 133h118l75 -133h-94z" />
<glyph unicode="a" horiz-adv-x="546" d="M255 92q74 0 114 43v86q-42 29 -102 29q-61 -1 -98 -24t-37 -57q0 -77 123 -77zM475 0h-86l-16 52q-31 -34 -64.5 -47t-79.5 -13q-120 0 -174 78q-45 65 -18 141q28 79 120 112q48 18 109 18q60 0 102 -30q0 64 -34 92t-87 27q-74 -1 -140 -41l-43 65q53 44 124 59 t134.5 0t108 -68.5t44.5 -136.5v-308z" />
<glyph unicode="b" horiz-adv-x="578" d="M63 701h109v-200q99 32 178.5 5t128.5 -98t49 -157q1 -105 -71 -183t-194 -78q-112 0 -200 31v680zM263 84q73 0 115.5 51.5t41.5 115.5q-1 95 -78 144.5t-170 7.5v-310q35 -7 91 -9z" />
<glyph unicode="c" horiz-adv-x="516" d="M477 435l-61 -72q-55 54 -129 54q-63 1 -108 -43.5t-46 -122.5q0 -69 41 -116t114 -47q65 0 131 58l62 -71q-86 -86 -193 -86q-124 0 -193.5 77t-69.5 187q1 109 71.5 186t191.5 78q106 0 189 -82z" />
<glyph unicode="d" horiz-adv-x="582" d="M390 700h109v-678q-88 -31 -200 -31q-122 0 -194 78t-71 183q0 86 49 157t128.5 98t178.5 -5v198zM299 85q56 2 91 9v310q-93 42 -170 -7.5t-78 -144.5q-1 -64 41.5 -115.5t115.5 -51.5z" />
<glyph unicode="e" horiz-adv-x="589" d="M289 89q92 0 140 66l80 -49q-85 -114 -220 -114q-123 0 -191.5 78.5t-67.5 184.5q0 106 69.5 184.5t188.5 79.5q109 1 179 -71.5t70 -180.5q0 -27 -4 -58h-394q10 -50 49.5 -85t100.5 -35zM141 299h290q-11 57 -48 89.5t-94 33.5q-63 -1 -100 -33.5t-48 -89.5z" />
<glyph unicode="f" horiz-adv-x="286" d="M276 700v-95q-96 6 -96 -60v-38h96v-93h-96v-414h-109v414h-55v93h55v38q0 84 56.5 124t148.5 31z" />
<glyph unicode="g" horiz-adv-x="579" d="M496 486v-462q0 -105 -63.5 -162t-154.5 -59q-130 -2 -222 90l59 70q30 -29 75.5 -46t88.5 -16q46 1 77 27.5t31 81.5q-46 -16 -91 -16q-123 0 -194.5 79.5t-70.5 186.5q2 104 73 181.5t192 77.5q111 0 200 -33zM296 424q-73 0 -115 -50.5t-42 -115.5q0 -66 42 -116.5 t115 -50.5q45 0 92 14q0 53 0.5 155t0.5 156q-50 8 -93 8z" />
<glyph unicode="h" horiz-adv-x="596" d="M63 700h109v-197q39 15 92 17q112 2 184 -60t72 -174v-286h-109v286q0 63 -41.5 98.5t-105.5 35.5q-48 0 -92 -15v-405h-109v700z" />
<glyph unicode="i" horiz-adv-x="231" d="M165 578h-111v122h111v-122zM55 509h109v-509h-109v509z" />
<glyph unicode="j" horiz-adv-x="231" d="M-19 -191v92q42 -3 58 14t16 52v540h109v-540q0 -88 -46.5 -128t-136.5 -30zM165 578h-111v122h111v-122z" />
<glyph unicode="k" horiz-adv-x="508" d="M63 700h106v-390l197 198h133l-221 -225l228 -283h-129l-171 212l-37 -35v-177h-106v700z" />
<glyph unicode="l" horiz-adv-x="262" d="M237 97v-98q-90 -10 -137 30t-47 127v544h109v-544q0 -33 16 -48t59 -11z" />
<glyph unicode="m" horiz-adv-x="913" d="M606 420q-48 0 -78 -29.5t-31 -90.5v-300h-104v300q1 51 -19.5 82t-54.5 39t-69.5 5t-72.5 -16v-410h-109v482q112 37 201 38q135 2 176 -79q53 77 161 77q97 0 156 -52.5t59 -170.5v-295h-107v297q0 63 -29.5 93t-78.5 30z" />
<glyph unicode="n" horiz-adv-x="606" d="M63 0v485q97 34 207 34q75 0 130.5 -21.5t91.5 -74t36 -132.5v-291h-108v291q0 71 -45 102.5t-115 31.5q-29 0 -87 -15v-410h-110z" />
<glyph unicode="o" d="M135 253q0 -79 47 -122.5t109 -43.5q63 0 109 43.5t46 122.5t-46 121.5t-109 42.5q-62 0 -109 -42.5t-47 -121.5zM555 253q0 -111 -75 -187.5t-189 -76.5q-113 0 -189 76.5t-76 187.5t76 187t189 76q114 0 189 -75.5t75 -187.5z" />
<glyph unicode="p" horiz-adv-x="580" d="M172 -192h-109v680q88 31 200 31q122 0 194 -78t71 -183q0 -86 -49 -157t-128.5 -98t-178.5 5v-200zM263 426q-51 -2 -91 -10v-310q93 -42 170 7.5t78 144.5q1 64 -41.5 116t-115.5 52z" />
<glyph unicode="q" horiz-adv-x="580" d="M497 -192h-109v200q-99 -32 -178.5 -5t-128.5 98t-49 157q-1 105 71 183t194 78q112 0 200 -31v-680zM297 427q-72 0 -115 -52.5t-42 -116.5q1 -95 78 -144.5t170 -7.5v312q-35 7 -91 9z" />
<glyph unicode="r" horiz-adv-x="405" d="M61 509h94l7 -54q34 62 120 65q64 0 116 -33l-46 -88q-41 22 -81.5 22.5t-71 -28t-30.5 -75.5v-318h-108v509z" />
<glyph unicode="s" horiz-adv-x="429" d="M222 305q73 -14 120.5 -52.5t47.5 -107.5q0 -79 -58 -117.5t-131 -38.5q-112 0 -179 94l68 66q45 -57 108 -62q33 -2 59.5 11.5t26.5 43.5q0 55 -86 70q-161 27 -162 151q0 72 54.5 113.5t129.5 41.5q94 0 158 -67l-60 -67q-49 38 -96 38q-31 0 -56 -14.5t-24 -45.5 q0 -7 1.5 -13t5.5 -11t7 -8.5t9.5 -7t10 -5.5t12 -4t11.5 -3t12.5 -3t10.5 -2z" />
<glyph unicode="t" horiz-adv-x="303" d="M269 97v-98q-92 -9 -147 30.5t-55 127.5v256h-60v94h60v193h108v-193h94v-94h-94v-253q0 -32 24.5 -49.5t69.5 -13.5z" />
<glyph unicode="u" horiz-adv-x="605" d="M522 508v-482q-104 -37 -206 -37q-112 0 -185.5 62t-73.5 172v284h108v-284q0 -64 42.5 -99.5t107.5 -35.5q63 0 97 11v409h110z" />
<glyph unicode="v" horiz-adv-x="474" d="M108 509l90 -285l33 -136h4l31 137l87 284h116l-173 -511h-130l-174 511h116z" />
<glyph unicode="w" horiz-adv-x="717" d="M342 398l-23 -168l-54 -230h-142l-124 510h111l56 -251l26 -165h4l25 165l63 248h120l63 -248l25 -165h4l26 165l56 251h111l-124 -510h-142l-54 230l-24 168h-3z" />
<glyph unicode="x" horiz-adv-x="504" d="M242 328l116 182h129l-170 -256l172 -254h-129l-118 182q-20 -29 -60.5 -93t-57.5 -89h-131l173 254q-30 42 -88.5 132t-81.5 124h130z" />
<glyph unicode="y" horiz-adv-x="500" d="M68 -191v89q75 -8 95 43l30 74l-203 492h117l143 -359l130 359h117l-235 -604q-45 -111 -194 -94z" />
<glyph unicode="z" horiz-adv-x="458" d="M273 412h-235v96h325l49 -71l-250 -343h253v-94h-339l-54 69z" />
<glyph unicode="{" horiz-adv-x="302" d="M277 797v-97h-31q-37 2 -37 -38v-180q0 -38 -17.5 -78t-53.5 -61q71 -34 71 -139v-172q0 -21 7.5 -26.5t23.5 -4.5h37v-98h-62q-55 0 -86.5 34t-31.5 91v158q0 105 -63 105v103q63 0 63 106v165q0 57 33.5 94.5t88.5 37.5h58z" />
<glyph unicode="|" horiz-adv-x="275" d="M80 -156v929h105v-929h-105z" />
<glyph unicode="}" horiz-adv-x="302" d="M15 700v97h58q55 0 88.5 -37.5t33.5 -94.5v-165q0 -106 63 -106v-103q-63 0 -63 -105v-158q0 -57 -31.5 -91t-86.5 -34h-62v98h37q11 -1 16.5 0.5t10 8.5t4.5 22v172q0 105 71 139q-36 21 -53.5 61t-17.5 78v180q0 40 -37 38h-31z" />
<glyph unicode="~" horiz-adv-x="582" d="M463 383l60 -58q-61 -113 -161 -105q-55 3 -108 44q-37 29 -60 30q-45 4 -97 -62l-60 57q76 117 167 111q54 -4 116 -52q28 -22 48 -24q47 -4 95 59z" />
<glyph unicode="&#xa1;" horiz-adv-x="281" d="M79 340h112l7 -534h-125zM74 506h120v-115h-120v115z" />
<glyph unicode="&#xa2;" horiz-adv-x="555" d="M258 -6v81q-72 10 -124 51t-75 96.5t-22 119.5t25 120t75 98t121 53v86h92v-87q80 -14 140 -74l-62 -74q-54 51 -128 51q-62 1 -109 -46.5t-48 -129.5q0 -65 43.5 -115t114.5 -50t131 54l63 -71q-66 -66 -145 -80v-83h-92z" />
<glyph unicode="&#xa3;" horiz-adv-x="582" d="M530 523l-100 -16q-18 96 -115 96q-43 0 -74.5 -28t-31.5 -78v-115h205v-88h-205v-196h326v-98h-496v98h59v196h-57v88h57v115q0 99 64 155.5t151 56.5q79 0 138 -45.5t79 -140.5z" />
<glyph unicode="&#xa5;" d="M594 700l-166 -297h68v-85h-113l-30 -53h143v-83h-146v-182h-108v182h-145v83h143l-28 53h-115v85h66l-164 297h129l169 -321q7 13 26 51t55 108t86 162h130z" />
<glyph unicode="&#xa6;" horiz-adv-x="262" d="M79 -148v416h108v-416h-108zM187 773v-414h-108v414h108z" />
<glyph unicode="&#xa7;" horiz-adv-x="462" d="M226 295h-1q29 -5 62 -16q25 18 25 49q0 27 -29.5 45.5t-65.5 24.5q-32 6 -51 13q-31 -21 -29 -58q0 -14 8 -24.5t24 -17t27.5 -9.5t29.5 -7zM40 352q0 64 55 95q-40 38 -40 101q0 73 54 116.5t129 43.5q93 0 158 -72l-58 -64q-22 30 -65 40t-77.5 -6.5t-34.5 -54.5 q0 -8 2.5 -15.5t5.5 -12t9.5 -9t10.5 -7t13 -5.5t12.5 -3.5t14 -3t12.5 -2.5q72 -13 120 -54t48 -109q0 -62 -52 -94q37 -36 37 -94q0 -42 -17.5 -74t-46 -50t-60.5 -26.5t-65 -8.5q-116 0 -183 93l67 64q49 -58 116 -58q31 -1 57 15t25 45q0 23 -26 38.5t-58 22.5 q-75 13 -119 46.5t-44 102.5z" />
<glyph unicode="&#xa8;" horiz-adv-x="499" d="M198 755h-104v96h104v-96zM388 755h-105v96h105v-96z" />
<glyph unicode="&#xa9;" horiz-adv-x="821" d="M46 344q0 149 102 253t247 104q147 0 249.5 -104t102.5 -253t-102 -253.5t-250 -104.5q-145 0 -247 104.5t-102 253.5zM138 344q0 -116 74 -195t183 -79q111 0 186 79t75 195q0 115 -75 194t-186 79q-109 0 -183 -79t-74 -194zM557 489l-52 -63q-37 36 -100 36 q-41 0 -70.5 -24t-37.5 -58.5t-2 -69t36 -58.5t75 -24q52 0 97 38l58 -65q-69 -69 -155 -69q-99 0 -155 62.5t-56 148.5q1 85 58 148t153 64q85 0 151 -66z" />
<glyph unicode="&#xaa;" horiz-adv-x="476" d="M319 309l-14 48q-19 -29 -50 -42t-63 -8q-68 10 -112.5 64t-44.5 131q0 90 59.5 144.5t144.5 56.5q87 6 163 -30v-364h-83zM401 250v-104h-348v104h348zM300 426l1 188q-29 5 -59 3q-46 -4 -76 -32.5t-30 -82.5q0 -35 24.5 -64.5t58.5 -37.5q51 -9 81 26z" />
<glyph unicode="&#xab;" horiz-adv-x="548" d="M216 280l167 209h128l-167 -209l167 -208h-128zM195 72l-167 208l167 209h128l-166 -209l166 -208h-128z" />
<glyph unicode="&#xac;" horiz-adv-x="614" d="M48 322v102h481v-283h-103v181h-378z" />
<glyph unicode="&#xad;" horiz-adv-x="431" d="M55 231v102h308v-102h-308z" />
<glyph unicode="&#xae;" horiz-adv-x="821" d="M46 344q0 149 102 253t247 104q147 0 249.5 -104t102.5 -253t-102 -253.5t-250 -104.5q-145 0 -247 104.5t-102 253.5zM138 344q0 -116 74 -195t183 -79q111 0 186 79t75 195q0 115 -75 194t-186 79q-109 0 -183 -79t-74 -194zM344 361h54q66 0 66 51q0 18 -15.5 32 t-50.5 14h-54v-97zM561 413q0 -52 -25.5 -85.5t-63.5 -38.5q12 -16 35 -49.5t40 -59.5l17 -26h-102l-96 130h-22v-130h-92v390h145q67 0 115.5 -31t48.5 -100z" />
<glyph unicode="&#xaf;" horiz-adv-x="499" d="M104 708v95h274v-95h-274z" />
<glyph unicode="&#xb0;" horiz-adv-x="390" d="M188 422q-62 0 -105 42t-43 102q0 59 43 101.5t105 42.5q61 0 104.5 -42.5t43.5 -101.5q0 -60 -43.5 -102t-104.5 -42zM188 502q27 0 45 18.5t18 45.5t-18 46t-45 19q-26 0 -45 -19t-19 -46t19 -45.5t45 -18.5z" />
<glyph unicode="&#xb1;" horiz-adv-x="681" d="M87 102h484v-102h-484v102zM80 349v104h196v192h108v-192h187v-104h-187v-194h-108v194h-196z" />
<glyph unicode="&#xb2;" horiz-adv-x="395" d="M300 504l-127 -118h187v-92h-293l-42 72l205 199q35 32 21 67.5t-59 35.5q-23 0 -44.5 -15.5t-35.5 -41.5l-82 29q41 120 163 119q72 -1 118 -38t46 -104q0 -58 -57 -113z" />
<glyph unicode="&#xb3;" horiz-adv-x="415" d="M353 621q0 -23 -14 -48t-42 -35q74 -32 74 -104q-1 -71 -52.5 -110t-121.5 -39q-114 0 -165 107l69 46q16 -28 43.5 -43.5t53.5 -15.5q28 0 48 14t20 42q0 24 -17.5 41t-41.5 17h-46v79h46q19 0 33 13.5t14 32.5q0 21 -18.5 35.5t-39.5 14.5q-56 0 -76 -39l-71 41 q43 85 148 85q66 0 111.5 -33.5t44.5 -100.5z" />
<glyph unicode="&#xb4;" horiz-adv-x="499" d="M341 844l-99 -133h-94l75 133h118z" />
<glyph unicode="&#xb5;" horiz-adv-x="525" d="M461 509l2 -517h-112v58q-29 -61 -92 -67t-96 49v-214h-107v691h108v-311q0 -34 19 -57.5t46.5 -29t55 0t46.5 29.5t19 58v310h111z" />
<glyph unicode="&#xb6;" horiz-adv-x="631" d="M225 -75v348q-94 0 -147 63.5t-53 145.5q0 89 65 154t178 65h264v-776h-108v678h-91v-678h-108z" />
<glyph unicode="&#xb7;" horiz-adv-x="260" d="M69 231v122h121v-122h-121z" />
<glyph unicode="&#xb8;" horiz-adv-x="499" d="M307 48l-32 -66q80 -15 66 -91q-7 -42 -44 -64t-84 -18.5t-83 30.5l22 49q37 -19 70 -16t34 28q1 18 -13 28t-31 9.5t-25 -8.5l-18 18l50 101h88z" />
<glyph unicode="&#xb9;" horiz-adv-x="294" d="M92 290v367h-60v93h164v-460h-104z" />
<glyph unicode="&#xba;" horiz-adv-x="467" d="M225 366q-72 0 -121 46.5t-49 119.5q0 70 49 117t120 47q72 0 121.5 -47t49.5 -117q0 -72 -49 -119t-121 -47zM225 449q33 0 55 23.5t22 59.5q0 35 -22 58t-55 23t-55 -23t-22 -58q0 -36 22 -59.5t55 -23.5zM57 219v94h327v-94h-327z" />
<glyph unicode="&#xbb;" horiz-adv-x="548" d="M208 72l166 208l-166 209h127l167 -209l-167 -208h-127zM19 72l166 208l-166 209h127l167 -209l-167 -208h-127z" />
<glyph unicode="&#xbc;" horiz-adv-x="950" d="M302 -30h-109l366 768h109zM128 606v-325h104v418h-164v-93h60zM840 450v-279h45v-94h-45v-77h-102v77h-166l-65 88l175 285h158zM745 369l-124 -202h118v92l12 110h-6z" />
<glyph unicode="&#xbd;" horiz-adv-x="960" d="M288 -30h-109l366 768h109zM130 606v-325h102v418h-162v-93h60zM702 91l127 118q57 55 57 113q0 67 -46 104t-118 38q-122 1 -163 -119l82 -29q14 26 35.5 41.5t44.5 15.5q45 0 59 -35.5t-21 -67.5l-205 -199l42 -72h293v92h-187z" />
<glyph unicode="&#xbe;" horiz-adv-x="1032" d="M401 -30h-109l366 768h109zM364 571q1 67 -44.5 100.5t-111.5 33.5q-106 0 -148 -85l71 -41q20 39 76 39q21 0 39.5 -14.5t18.5 -35.5q0 -19 -14 -32.5t-33 -13.5h-46v-79h46q24 0 41.5 -17t17.5 -41q0 -28 -20 -42t-48 -14q-26 0 -53.5 15.5t-43.5 43.5l-69 -46 q51 -107 165 -107q70 0 121.5 39t52.5 110q0 72 -74 104q28 10 42 35t14 48zM929 442v-271h45v-94h-45v-77h-102v77h-166l-65 88l174 277h159zM834 369l-124 -202h118v92l12 110h-6z" />
<glyph unicode="&#xbf;" horiz-adv-x="507" d="M485 -86q-91 -116 -215 -116q-96 0 -163.5 55.5t-67.5 161.5q1 76 49.5 132t137.5 72l7 123h102l5 -197q-77 -1 -132.5 -35t-54.5 -96q1 -56 35.5 -81.5t84.5 -25.5q34 0 69.5 19t61.5 51zM225 507h120v-115h-120v115z" />
<glyph unicode="&#xc0;" horiz-adv-x="622" d="M-10 0l251 705h122l254 -705h-120l-78 213h-233l-75 -213h-121zM220 313h164l-65 200l-16 72h-5l-16 -72zM248 749l-99 133h118l75 -133h-94z" />
<glyph unicode="&#xc1;" horiz-adv-x="622" d="M-10 0l251 705h122l254 -705h-120l-78 213h-233l-75 -213h-121zM220 313h164l-65 200l-16 72h-5l-16 -72zM443 884l-99 -133h-94l75 133h118z" />
<glyph unicode="&#xc2;" horiz-adv-x="622" d="M-10 0l251 705h122l254 -705h-120l-78 213h-233l-75 -213h-121zM220 313h164l-65 200l-16 72h-5l-16 -72zM142 745l102 130h115l101 -130h-97l-63 75l-63 -75h-95z" />
<glyph unicode="&#xc3;" horiz-adv-x="622" d="M-10 0l251 705h122l254 -705h-120l-78 213h-233l-75 -213h-121zM220 313h164l-65 200l-16 72h-5l-16 -72zM412 860l54 -43q-65 -128 -184 -41q-27 14 -43 7t-43 -38l-58 46q52 85 118 80q19 -1 52 -21t45 -23q31 -8 59 33z" />
<glyph unicode="&#xc4;" horiz-adv-x="622" d="M-10 0l251 705h122l254 -705h-120l-78 213h-233l-75 -213h-121zM220 313h164l-65 200l-16 72h-5l-16 -72zM262 754h-111v93h111v-93zM447 754h-111v93h111v-93z" />
<glyph unicode="&#xc5;" horiz-adv-x="622" d="M-10 0l251 705h122l254 -705h-120l-78 213h-233l-75 -213h-121zM220 313h164l-65 200l-16 72h-5l-16 -72zM300 747q-42 0 -71 24.5t-29 65.5t29 65.5t71 24.5q41 0 70.5 -25t29.5 -65t-29.5 -65t-70.5 -25zM259 837q0 -15 11 -25.5t29 -10.5t29.5 11t11.5 26q0 17 -11 27 t-30 10q-18 0 -29 -10.5t-11 -27.5z" />
<glyph unicode="&#xc6;" horiz-adv-x="867" d="M-9 0l358 706h462v-106h-276v-198h274v-100h-274q0 -33 -0.5 -97.5t-0.5 -98.5h277v-106h-391v197h-201l-102 -197h-126zM420 307v207l11 115h-5l-154 -322h148z" />
<glyph unicode="&#xc7;" horiz-adv-x="719" d="M658 598l-72 -67q-81 85 -192 82q-113 -2 -177.5 -81.5t-64.5 -183.5q0 -103 65 -181t177 -78q56 0 112 26t95 73l80 -62q-106 -127 -254 -139l-18 -39q80 -15 66 -91q-7 -42 -44 -64t-84 -18.5t-83 30.5l22 49q37 -19 70 -16t34 28q1 18 -13 28t-31 9.5t-25 -8.5l-18 18 l37 76q-142 18 -222.5 121.5t-80.5 237.5q0 69 23.5 134.5t67 118t113 84t153.5 31.5q167 0 264 -118z" />
<glyph unicode="&#xc8;" horiz-adv-x="521" d="M473 704v-103h-278v-198h274v-103h-274q0 -33 -0.5 -97t-0.5 -98h279v-104h-393v703h393zM245 749l-99 133h118l75 -133h-94z" />
<glyph unicode="&#xc9;" horiz-adv-x="521" d="M473 704v-103h-278v-198h274v-103h-274q0 -33 -0.5 -97t-0.5 -98h279v-104h-393v703h393zM413 881l-99 -133h-94l75 133h118z" />
<glyph unicode="&#xca;" horiz-adv-x="521" d="M473 704v-103h-278v-198h274v-103h-274q0 -33 -0.5 -97t-0.5 -98h279v-104h-393v703h393zM119 749l102 130h115l101 -130h-97l-63 75l-63 -75h-95z" />
<glyph unicode="&#xcb;" horiz-adv-x="521" d="M473 704v-103h-278v-198h274v-103h-274q0 -33 -0.5 -97t-0.5 -98h279v-104h-393v703h393zM243 755h-104v96h104v-96zM422 755h-105v96h105v-96z" />
<glyph unicode="&#xcc;" horiz-adv-x="274" d="M77 0v703h114v-703h-114zM82 750l-99 133h118l75 -133h-94z" />
<glyph unicode="&#xcd;" horiz-adv-x="274" d="M77 0v703h114v-703h-114zM277 885l-99 -133h-94l75 133h118z" />
<glyph unicode="&#xce;" horiz-adv-x="274" d="M77 0v703h114v-703h-114zM-25 749l102 127h115l101 -127h-97l-63 75l-63 -75h-95z" />
<glyph unicode="&#xcf;" horiz-adv-x="274" d="M77 0v703h114v-703h-114zM90 750h-104v96h104v-96zM280 750h-105v96h105v-96z" />
<glyph unicode="&#xd0;" horiz-adv-x="721" d="M30 299v99h58v307h223q163 1 256.5 -101.5t95.5 -244.5q2 -93 -35.5 -173t-120 -133t-195.5 -53h-224v299h-58zM311 103q115 -2 178.5 74.5t60.5 179.5q-2 99 -65 172t-172 73h-111v-204h125v-99h-125v-196h109z" />
<glyph unicode="&#xd1;" horiz-adv-x="723" d="M215 704l257 -456l48 -105l3 1l-15 130v430h115v-704h-131l-259 456l-49 105l-3 -1l16 -130v-430h-115v704h133zM461 870l54 -43q-65 -128 -184 -41q-27 14 -43 7t-43 -38l-58 46q52 85 118 80q19 -1 52 -21t45 -23q31 -8 59 33z" />
<glyph unicode="&#xd2;" horiz-adv-x="810" d="M395 715q149 0 253.5 -105.5t104.5 -260.5q0 -156 -104.5 -260t-253.5 -104q-150 0 -254 103t-104 261q0 157 104 261.5t254 104.5zM153 349q0 -120 72 -190t170 -70q97 0 170 70t73 190q0 119 -73.5 191t-170.5 71t-169 -72t-72 -190zM354 762l-99 133h118l75 -133h-94z " />
<glyph unicode="&#xd3;" horiz-adv-x="810" d="M395 715q149 0 253.5 -105.5t104.5 -260.5q0 -156 -104.5 -260t-253.5 -104q-150 0 -254 103t-104 261q0 157 104 261.5t254 104.5zM153 349q0 -120 72 -190t170 -70q97 0 170 70t73 190q0 119 -73.5 191t-170.5 71t-169 -72t-72 -190zM529 894l-99 -133h-94l75 133h118z " />
<glyph unicode="&#xd4;" horiz-adv-x="810" d="M395 715q149 0 253.5 -105.5t104.5 -260.5q0 -156 -104.5 -260t-253.5 -104q-150 0 -254 103t-104 261q0 157 104 261.5t254 104.5zM153 349q0 -120 72 -190t170 -70q97 0 170 70t73 190q0 119 -73.5 191t-170.5 71t-169 -72t-72 -190zM232 756l102 130h115l101 -130h-97 l-63 75l-63 -75h-95z" />
<glyph unicode="&#xd5;" horiz-adv-x="810" d="M395 715q149 0 253.5 -105.5t104.5 -260.5q0 -156 -104.5 -260t-253.5 -104q-150 0 -254 103t-104 261q0 157 104 261.5t254 104.5zM153 349q0 -120 72 -190t170 -70q97 0 170 70t73 190q0 119 -73.5 191t-170.5 71t-169 -72t-72 -190zM498 877l54 -43q-65 -128 -184 -41 q-27 14 -43 7t-43 -38l-58 46q52 85 118 80q19 -1 52 -21t45 -23q31 -8 59 33z" />
<glyph unicode="&#xd6;" horiz-adv-x="810" d="M395 715q149 0 253.5 -105.5t104.5 -260.5q0 -156 -104.5 -260t-253.5 -104q-150 0 -254 103t-104 261q0 157 104 261.5t254 104.5zM153 349q0 -120 72 -190t170 -70q97 0 170 70t73 190q0 119 -73.5 191t-170.5 71t-169 -72t-72 -190zM349 759h-104v96h104v-96zM539 759 h-105v96h105v-96z" />
<glyph unicode="&#xd7;" horiz-adv-x="529" d="M48 417l73 74l134 -135l130 130l72 -72l-130 -129l128 -129l-73 -72l-128 127l-131 -131l-73 73l132 130z" />
<glyph unicode="&#xd8;" horiz-adv-x="810" d="M395 713q77 0 145 -31l46 76h114l-78 -128q62 -53 98.5 -127t36.5 -154q0 -157 -105.5 -259.5t-256.5 -102.5q-73 0 -140 28q-6 -11 -22.5 -37.5t-21.5 -35.5h-115l75 126q-138 112 -138 281q0 157 106 260.5t256 103.5zM145 349q0 -109 80 -191q30 51 82 137t95.5 158.5 t82.5 138.5q-39 17 -91 17q-100 -1 -174.5 -69t-74.5 -191zM645 349q0 54 -22.5 104t-55.5 85q-241 -406 -257 -432q48 -15 85 -15q100 0 175 67t75 191z" />
<glyph unicode="&#xd9;" horiz-adv-x="645" d="M72 700h115v-490q0 -59 37 -89t90 -30t91 30t38 89v490h115v-490q0 -75 -36.5 -127t-90 -74t-117.5 -22q-101 0 -171.5 56t-70.5 167v490zM281 748l-99 133h118l75 -133h-94z" />
<glyph unicode="&#xda;" horiz-adv-x="645" d="M72 700h115v-490q0 -59 37 -89t90 -30t91 30t38 89v490h115v-490q0 -75 -36.5 -127t-90 -74t-117.5 -22q-101 0 -171.5 56t-70.5 167v490zM454 883l-99 -133h-94l75 133h118z" />
<glyph unicode="&#xdb;" horiz-adv-x="645" d="M72 700h115v-490q0 -59 37 -89t90 -30t91 30t38 89v490h115v-490q0 -75 -36.5 -127t-90 -74t-117.5 -22q-101 0 -171.5 56t-70.5 167v490zM150 751l102 130h115l101 -130h-97l-63 75l-63 -75h-95z" />
<glyph unicode="&#xdc;" horiz-adv-x="645" d="M72 700h115v-490q0 -59 37 -89t90 -30t91 30t38 89v490h115v-490q0 -75 -36.5 -127t-90 -74t-117.5 -22q-101 0 -171.5 56t-70.5 167v490zM270 748h-104v96h104v-96zM460 748h-105v96h105v-96z" />
<glyph unicode="&#xdd;" horiz-adv-x="579" d="M579 705l-241 -424v-281h-113v282l-240 423h131l166 -306l164 306h133zM416 874l-99 -133h-94l75 133h118z" />
<glyph unicode="&#xde;" horiz-adv-x="573" d="M195 136v-136h-114v700h114v-108h103q115 0 178.5 -68.5t63.5 -162.5q0 -93 -63 -159t-178 -66h-104zM298 238q60 0 94 37.5t34 85.5q0 50 -34.5 91t-93.5 41h-103v-255h103z" />
<glyph unicode="&#xdf;" horiz-adv-x="571" d="M207 1v106q70 -33 132.5 0.5t62.5 103.5q0 46 -33.5 80t-93.5 34h-66v102h66q43 0 68 30.5t23 66.5q-3 43 -30.5 63.5t-66.5 20.5q-38 0 -66.5 -25t-28.5 -64v-519h-113v519q0 89 61 141.5t147 52.5q87 0 146 -49.5t59 -140.5q0 -40 -21 -80t-61 -60q60 -24 94.5 -73 t33.5 -99q1 -66 -26 -115.5t-71.5 -73t-101.5 -31.5t-114 10z" />
<glyph unicode="&#xe0;" horiz-adv-x="546" d="M255 92q74 0 114 43v86q-42 29 -102 29q-61 -1 -98 -24t-37 -57q0 -77 123 -77zM475 0h-86l-16 52q-55 -62 -144 -60q-125 2 -177 90t7.5 174.5t206.5 84.5q60 0 102 -30q0 64 -34 92t-87 27q-74 -1 -140 -41l-43 65q53 44 124 59t134.5 0t108 -68.5t44.5 -136.5v-308z M225 571l-99 133h118l75 -133h-94z" />
<glyph unicode="&#xe1;" horiz-adv-x="546" d="M255 92q74 0 114 43v86q-42 29 -102 29q-61 -1 -98 -24t-37 -57q0 -77 123 -77zM475 0h-86l-16 52q-55 -62 -144 -60q-125 2 -177 90t7.5 174.5t206.5 84.5q60 0 102 -30q0 64 -34 92t-87 27q-74 -1 -140 -41l-43 65q53 44 124 59t134.5 0t108 -68.5t44.5 -136.5v-308z M383 703l-99 -133h-94l75 133h118z" />
<glyph unicode="&#xe2;" horiz-adv-x="546" d="M255 92q74 0 114 43v86q-42 29 -102 29q-61 -1 -98 -24t-37 -57q0 -77 123 -77zM475 0h-86l-16 52q-55 -62 -144 -60q-125 2 -177 90t7.5 174.5t206.5 84.5q60 0 102 -30q0 64 -34 92t-87 27q-74 -1 -140 -41l-43 65q53 44 124 59t134.5 0t108 -68.5t44.5 -136.5v-308z M101 577l96 123h109l96 -123h-92l-60 71l-60 -71h-89z" />
<glyph unicode="&#xe3;" horiz-adv-x="546" d="M255 92q74 0 114 43v86q-42 29 -102 29q-61 -1 -98 -24t-37 -57q0 -77 123 -77zM475 0h-86l-16 52q-55 -62 -144 -60q-125 2 -177 90t7.5 174.5t206.5 84.5q60 0 102 -30q0 64 -34 92t-87 27q-74 -1 -140 -41l-43 65q53 44 124 59t134.5 0t108 -68.5t44.5 -136.5v-308z M354 691l48 -40q-58 -119 -166 -38q-24 12 -39 5.5t-39 -34.5l-53 43q45 75 107 70q20 -1 48.5 -17.5t39.5 -19.5q27 -7 54 31z" />
<glyph unicode="&#xe4;" horiz-adv-x="546" d="M255 92q74 0 114 43v86q-42 29 -102 29q-61 -1 -98 -24t-37 -57q0 -77 123 -77zM475 0h-86l-16 52q-55 -62 -144 -60q-125 2 -177 90t7.5 174.5t206.5 84.5q60 0 102 -30q0 64 -34 92t-87 27q-74 -1 -140 -41l-43 65q53 44 124 59t134.5 0t108 -68.5t44.5 -136.5v-308z M213 605h-96v89h96v-89zM396 605h-97v89h97v-89z" />
<glyph unicode="&#xe5;" horiz-adv-x="546" d="M255 92q74 0 114 43v86q-42 29 -102 29q-61 -1 -98 -24t-37 -57q0 -77 123 -77zM475 0h-86l-16 52q-55 -62 -144 -60q-125 2 -177 90t7.5 174.5t206.5 84.5q60 0 102 -30q0 64 -34 92t-87 27q-74 -1 -140 -41l-43 65q53 44 124 59t134.5 0t108 -68.5t44.5 -136.5v-308z M255 559q-45 0 -72.5 23.5t-27.5 61.5t29 62.5t72 24.5t70.5 -24.5t27.5 -62.5q0 -37 -27.5 -61t-71.5 -24zM214 644q0 -36 40 -36q41 0 41 37q0 16 -10 27.5t-30 11.5q-19 0 -30 -12t-11 -28z" />
<glyph unicode="&#xe6;" horiz-adv-x="942" d="M630 85q86 0 141 69l79 -48q-85 -116 -222 -116q-116 0 -182 71q-38 -35 -86 -53.5t-95 -17.5q-108 -1 -167.5 51.5t-59.5 124.5q0 73 61.5 122t173.5 48q49 0 101 -21q0 52 -29 82.5t-70 35.5t-85 -8.5t-75 -41.5l-54 64q77 76 194 76q60 0 109 -26.5t77 -75.5 q67 95 188 96q109 1 179 -70t70 -178q0 -26 -4 -59h-394q4 -52 46 -88.5t104 -36.5zM264 85q95 0 141 45q-22 41 -26 101q-44 21 -105 21q-62 -1 -98 -26t-36 -58q0 -32 33 -57.5t91 -25.5zM481 299h290q-13 62 -47 90t-94 30q-62 -1 -99.5 -32.5t-49.5 -87.5z" />
<glyph unicode="&#xe7;" horiz-adv-x="516" d="M477 435l-61 -72q-55 54 -129 54q-63 1 -108 -43.5t-46 -122.5q0 -69 41 -116t114 -47q65 0 131 58l62 -71q-79 -79 -179 -85l-15 -31q44 -8 62 -30.5t12 -50.5q-11 -56 -82 -70t-123 24l21 43q36 -16 68 -13.5t33 24.5q2 25 -27 32t-40 -6l-17 16l35 66 q-97 18 -150.5 90.5t-53.5 168.5q1 109 71.5 186t191.5 78q106 0 189 -82z" />
<glyph unicode="&#xe8;" horiz-adv-x="589" d="M250 571l-99 133h118l75 -133h-94zM289 89q92 0 140 66l80 -49q-85 -114 -220 -114q-123 0 -191.5 78.5t-67.5 184.5q0 106 69.5 184.5t188.5 79.5q109 1 179 -71.5t70 -180.5q0 -27 -4 -58h-394q10 -50 49.5 -85t100.5 -35zM141 299h290q-11 57 -48 89.5t-94 33.5 q-63 -1 -100 -33.5t-48 -89.5z" />
<glyph unicode="&#xe9;" horiz-adv-x="589" d="M421 704l-99 -133h-94l75 133h118zM289 89q92 0 140 66l80 -49q-85 -114 -220 -114q-123 0 -191.5 78.5t-67.5 184.5q0 106 69.5 184.5t188.5 79.5q109 1 179 -71.5t70 -180.5q0 -27 -4 -58h-394q10 -50 49.5 -85t100.5 -35zM141 299h290q-11 57 -48 89.5t-94 33.5 q-63 -1 -100 -33.5t-48 -89.5z" />
<glyph unicode="&#xea;" horiz-adv-x="589" d="M136 577l96 123h109l96 -123h-92l-60 71l-60 -71h-89zM289 89q92 0 140 66l80 -49q-85 -114 -220 -114q-123 0 -191.5 78.5t-67.5 184.5q0 106 69.5 184.5t188.5 79.5q109 1 179 -71.5t70 -180.5q0 -27 -4 -58h-394q10 -50 49.5 -85t100.5 -35zM141 299h290 q-11 57 -48 89.5t-94 33.5q-63 -1 -100 -33.5t-48 -89.5z" />
<glyph unicode="&#xeb;" horiz-adv-x="589" d="M244 604h-96v89h96v-89zM427 604h-97v89h97v-89zM289 89q92 0 140 66l80 -49q-85 -114 -220 -114q-123 0 -191.5 78.5t-67.5 184.5q0 106 69.5 184.5t188.5 79.5q109 1 179 -71.5t70 -180.5q0 -27 -4 -58h-394q10 -50 49.5 -85t100.5 -35zM141 299h290q-11 57 -48 89.5 t-94 33.5q-63 -1 -100 -33.5t-48 -89.5z" />
<glyph unicode="&#xec;" horiz-adv-x="230" d="M71 572l-99 133h118l75 -133h-94zM166 0h-109v512h109v-512z" />
<glyph unicode="&#xed;" horiz-adv-x="230" d="M166 0h-109v512h109v-512zM249 704l-99 -133h-94l75 133h118z" />
<glyph unicode="&#xee;" horiz-adv-x="230" d="M-39 580l96 123h109l96 -123h-92l-60 71l-60 -71h-89zM166 0h-109v512h109v-512z" />
<glyph unicode="&#xef;" horiz-adv-x="230" d="M67 605h-96v89h96v-89zM250 605h-97v89h97v-89zM166 0h-109v512h109v-512z" />
<glyph unicode="&#xf0;" d="M238 497l-47 67l44 31q-52 21 -123 21l8 92q122 0 222 -49l93 58l44 -67l-63 -40q134 -116 126 -374q-2 -103 -68 -175t-188 -72t-189.5 74t-65.5 172q1 45 18 86.5t47.5 75t80 53.5t109.5 20q79 -2 134 -61q-10 44 -37 83t-61 62q-20 -12 -43 -29t-41 -28zM286 370 q-68 0 -105 -40.5t-39 -95.5q-1 -57 36 -100t108 -43q72 0 111 43.5t37 100.5q-2 55 -40.5 95t-107.5 40z" />
<glyph unicode="&#xf1;" horiz-adv-x="606" d="M63 0v485q97 34 207 34q75 0 130.5 -21.5t91.5 -74t36 -132.5v-291h-108v291q0 71 -45 102.5t-115 31.5q-29 0 -87 -15v-410h-110zM395 697l54 -43q-65 -128 -184 -41q-27 14 -43 7t-43 -38l-58 46q52 85 118 80q19 -1 52 -21t45 -23q31 -8 59 33z" />
<glyph unicode="&#xf2;" d="M261 571l-99 133h118l75 -133h-94zM135 253q0 -79 47 -122.5t109 -43.5q63 0 109 43.5t46 122.5t-46 121.5t-109 42.5q-62 0 -109 -42.5t-47 -121.5zM555 253q0 -111 -75 -187.5t-189 -76.5q-113 0 -189 76.5t-76 187.5t76 187t189 76q114 0 189 -75.5t75 -187.5z" />
<glyph unicode="&#xf3;" d="M423 705l-99 -133h-94l75 133h118zM135 253q0 -79 47 -122.5t109 -43.5q63 0 109 43.5t46 122.5t-46 121.5t-109 42.5q-62 0 -109 -42.5t-47 -121.5zM555 253q0 -111 -75 -187.5t-189 -76.5q-113 0 -189 76.5t-76 187.5t76 187t189 76q114 0 189 -75.5t75 -187.5z" />
<glyph unicode="&#xf4;" d="M135 253q0 -79 47 -122.5t109 -43.5q63 0 109 43.5t46 122.5t-46 121.5t-109 42.5q-62 0 -109 -42.5t-47 -121.5zM555 253q0 -111 -75 -187.5t-189 -76.5q-113 0 -189 76.5t-76 187.5t76 187t189 76q114 0 189 -75.5t75 -187.5zM138 566l102 130h115l101 -130h-97l-63 75 l-63 -75h-95z" />
<glyph unicode="&#xf5;" d="M135 253q0 -79 47 -122.5t109 -43.5q63 0 109 43.5t46 122.5t-46 121.5t-109 42.5q-62 0 -109 -42.5t-47 -121.5zM555 253q0 -111 -75 -187.5t-189 -76.5q-113 0 -189 76.5t-76 187.5t76 187t189 76q114 0 189 -75.5t75 -187.5zM391 696l52 -42q-32 -62 -79.5 -71 t-97.5 31q-25 13 -41.5 6.5t-41.5 -35.5l-56 44q50 81 114 76q18 -1 49.5 -19.5t43.5 -21.5q30 -8 57 32z" />
<glyph unicode="&#xf6;" d="M244 604h-96v89h96v-89zM427 604h-97v89h97v-89zM135 253q0 -79 47 -122.5t109 -43.5q63 0 109 43.5t46 122.5t-46 121.5t-109 42.5q-62 0 -109 -42.5t-47 -121.5zM555 253q0 -111 -75 -187.5t-189 -76.5q-113 0 -189 76.5t-76 187.5t76 187t189 76q114 0 189 -75.5 t75 -187.5z" />
<glyph unicode="&#xf7;" horiz-adv-x="605" d="M233 457v105h105v-105h-105zM53 275v103h476v-103h-476zM233 92v105h105v-105h-105z" />
<glyph unicode="&#xf8;" horiz-adv-x="595" d="M548 253q0 -112 -74 -188t-187 -76q-55 0 -100 18q-35 -54 -40 -63h-103l68 110q-86 81 -86 199q0 112 74 187.5t187 75.5q54 0 99 -18l39 61h103l-66 -108q86 -76 86 -198zM443 253q0 57 -36 109q-141 -229 -167 -272q22 -6 47 -6q63 0 109.5 45t46.5 124zM130 253 q0 -61 38 -110l166 268q-76 21 -140 -21.5t-64 -136.5z" />
<glyph unicode="&#xf9;" horiz-adv-x="605" d="M522 508v-482q-104 -37 -206 -37q-112 0 -185.5 62t-73.5 172v284h108v-284q0 -64 42.5 -99.5t107.5 -35.5q63 0 97 11v409h110zM265 571l-99 133h118l75 -133h-94z" />
<glyph unicode="&#xfa;" horiz-adv-x="605" d="M522 508v-482q-104 -37 -206 -37q-112 0 -185.5 62t-73.5 172v284h108v-284q0 -64 42.5 -99.5t107.5 -35.5q63 0 97 11v409h110zM431 704l-99 -133h-94l75 133h118z" />
<glyph unicode="&#xfb;" horiz-adv-x="605" d="M522 508v-482q-104 -37 -206 -37q-112 0 -185.5 62t-73.5 172v284h108v-284q0 -64 42.5 -99.5t107.5 -35.5q63 0 97 11v409h110zM136 579l102 130h115l101 -130h-97l-63 77l-65 -77h-93z" />
<glyph unicode="&#xfc;" horiz-adv-x="605" d="M248 604h-96v89h96v-89zM431 604h-97v89h97v-89zM522 507v-481q-104 -37 -206 -37q-112 0 -185.5 62t-73.5 172v283h108v-283q0 -64 42.5 -99.5t107.5 -35.5q63 0 97 11v408h110z" />
<glyph unicode="&#xfd;" horiz-adv-x="494" d="M62 -191v89q75 -8 95 43l30 74l-203 492h117l143 -359l130 359h117l-235 -604q-45 -111 -194 -94zM372 703l-99 -133h-94l75 133h118z" />
<glyph unicode="&#xfe;" horiz-adv-x="577" d="M172 -180h-109v867h109v-185q43 17 92 17q65 0 117 -23t84 -60t49.5 -85t17.5 -97.5t-17.5 -97.5t-49.5 -85t-84 -60t-117 -23q-50 0 -92 17v-185zM172 94v319q44 16 92 16q51 0 89 -26t55 -65t17.5 -84t-16.5 -84t-55 -65t-90 -26q-47 0 -92 15z" />
<glyph unicode="&#xff;" horiz-adv-x="494" d="M194 599h-96v89h96v-89zM377 599h-97v89h97v-89zM62 -191v89q75 -8 95 43l30 74l-203 492h117l143 -359l130 359h117l-235 -604q-45 -111 -194 -94z" />
<glyph unicode="&#x152;" horiz-adv-x="939" d="M402 713q53 0 94 -12h371v-108h-277v-188h274v-107h-274q0 -33 -0.5 -94t-0.5 -95h278v-108h-366q-47 -15 -99 -15q-164 0 -263 96.5t-99 266.5q0 165 105 264.5t257 99.5zM475 93v513q-31 10 -68 10q-111 0 -181.5 -71t-70.5 -196q0 -128 70 -197.5t182 -69.5 q33 0 68 11z" />
<glyph unicode="&#x153;" horiz-adv-x="1036" d="M143 255q0 -88 46 -129.5t111 -41.5q62 0 111.5 48.5t49.5 128.5q0 78 -46.5 119t-110.5 41q-63 0 -112 -43t-49 -123zM713 87q39 0 78 17t65 50l75 -54q-81 -109 -220 -109q-148 0 -205 122q-53 -124 -205 -126q-125 -1 -195.5 80t-68.5 191q2 107 72.5 185t194.5 78 q64 0 120.5 -30.5t87.5 -88.5q28 53 81 85.5t121 32.5q114 0 182.5 -72.5t68.5 -189.5q0 -28 -1 -49l-399 -1q14 -51 52.5 -86t95.5 -35zM566 297h289q-5 60 -42.5 93t-98.5 34q-61 0 -100 -35.5t-48 -91.5z" />
<glyph unicode="&#x178;" horiz-adv-x="579" d="M579 705l-241 -424v-281h-113v282l-240 423h131l166 -306l164 306h133zM238 750h-108v102h108v-102zM427 750h-108v102h108v-102z" />
<glyph unicode="&#x2c6;" horiz-adv-x="499" d="M83 714l102 130h115l101 -130h-97l-63 75l-63 -75h-95z" />
<glyph unicode="&#x2dc;" horiz-adv-x="480" d="M343 823l54 -43q-65 -128 -184 -41q-27 14 -43 7t-43 -38l-58 46q52 85 118 80q19 -1 52 -21t45 -23q31 -8 59 33z" />
<glyph unicode="&#x2000;" horiz-adv-x="463" />
<glyph unicode="&#x2001;" horiz-adv-x="927" />
<glyph unicode="&#x2002;" horiz-adv-x="463" />
<glyph unicode="&#x2003;" horiz-adv-x="927" />
<glyph unicode="&#x2004;" horiz-adv-x="309" />
<glyph unicode="&#x2005;" horiz-adv-x="231" />
<glyph unicode="&#x2006;" horiz-adv-x="154" />
<glyph unicode="&#x2007;" horiz-adv-x="154" />
<glyph unicode="&#x2008;" horiz-adv-x="115" />
<glyph unicode="&#x2009;" horiz-adv-x="14" />
<glyph unicode="&#x200a;" horiz-adv-x="51" />
<glyph unicode="&#x2010;" horiz-adv-x="448" d="M74 256v105h287v-105h-287z" />
<glyph unicode="&#x2011;" horiz-adv-x="448" d="M74 256v105h287v-105h-287z" />
<glyph unicode="&#x2012;" horiz-adv-x="448" d="M74 256v105h287v-105h-287z" />
<glyph unicode="&#x2013;" horiz-adv-x="687" d="M78 233v102h510v-102h-510z" />
<glyph unicode="&#x2014;" horiz-adv-x="857" d="M81 233v103h678v-103h-678z" />
<glyph unicode="&#x2018;" horiz-adv-x="227" d="M202 703l-55 -213h-121l79 213h97z" />
<glyph unicode="&#x2019;" horiz-adv-x="219" d="M30 505l53 199h122l-80 -199h-95z" />
<glyph unicode="&#x201a;" horiz-adv-x="253" d="M4 -131l71 236h124l-90 -236h-105z" />
<glyph unicode="&#x201c;" horiz-adv-x="390" d="M204 703l-49 -197h-121l73 197h97zM368 703l-49 -197h-121l73 197h97z" />
<glyph unicode="&#x201d;" horiz-adv-x="390" d="M34 506l52 198h119l-74 -198h-97zM195 506l52 198h119l-74 -198h-97z" />
<glyph unicode="&#x201e;" horiz-adv-x="421" d="M4 -131l71 236h124l-90 -236h-105zM177 -131l71 236h124l-90 -236h-105z" />
<glyph unicode="&#x2022;" horiz-adv-x="424" d="M199 149q-59 0 -100 40.5t-41 99.5q0 58 41 98.5t100 40.5t99.5 -40t40.5 -99t-40.5 -99.5t-99.5 -40.5z" />
<glyph unicode="&#x2026;" horiz-adv-x="701" d="M188 -2h-122v119h122v-119zM600 -2h-122v119h122v-119zM390 -2h-122v119h122v-119z" />
<glyph unicode="&#x202f;" horiz-adv-x="185" />
<glyph unicode="&#x2039;" horiz-adv-x="357" d="M192 72l-167 208l167 209h131l-166 -209l166 -208h-131z" />
<glyph unicode="&#x203a;" horiz-adv-x="346" d="M14 72l163 208q-20 25 -79 100.5t-86 108.5h131l167 -209l-167 -208h-129z" />
<glyph unicode="&#x2044;" horiz-adv-x="168" d="M-53 -44h-105l355 744h105z" />
<glyph unicode="&#x205f;" horiz-adv-x="231" />
<glyph unicode="&#x2070;" horiz-adv-x="428" d="M117 557q0 -41 26.5 -64t63.5 -23t63.5 23t26.5 64v114q0 41 -27 64.5t-64 23.5t-63 -23t-26 -65v-114zM19 671q0 83 56 129.5t132 46.5t132 -46.5t56 -129.5v-114q0 -73 -51 -122q-57 -54 -138 -54t-136 54q-51 49 -51 122v114z" />
<glyph unicode="&#x2074;" horiz-adv-x="424" d="M345 839v-284h45v-94h-45v-79h-102v79h-166l-65 88l175 290h158zM250 766l-124 -215h118v105l12 110h-6z" />
<glyph unicode="&#x2075;" horiz-adv-x="428" d="M29 453l78 48q18 -33 62 -45t81 7t37 64q0 40 -34 60t-76.5 15.5t-69.5 -28.5h-61l38 262h273v-82h-195q-1 -9 -4.5 -37t-5.5 -41q39 12 80.5 7t75.5 -20t56 -51t22 -85q0 -67 -44.5 -111t-103.5 -53.5t-119.5 13.5t-89.5 77z" />
<glyph unicode="&#x2076;" horiz-adv-x="420" d="M319 849l-118 -169q68 17 125.5 -22.5t56.5 -113.5q-2 -67 -46 -111q-51 -51 -132.5 -50.5t-131.5 50.5q-45 45 -45 111q0 48 29 91l148 214h114zM205 610q-51 0 -72 -35t0 -70.5t72 -35.5q48 0 69 35.5t1.5 70.5t-70.5 35z" />
<glyph unicode="&#x2077;" horiz-adv-x="352" d="M33 389l186 361h-178v87h271l35 -54l-206 -394h-108z" />
<glyph unicode="&#x2078;" horiz-adv-x="398" d="M26 528q-1 30 17.5 59t47.5 45q-22 13 -34.5 36t-12.5 46q0 49 31 82.5t75 41.5t88 0.5t75 -41.5t31 -83q0 -55 -42 -82q60 -32 60 -104q0 -46 -25 -80t-62.5 -49.5t-80.5 -15.5t-80.5 15t-62.5 49t-25 81zM193 762q-21 0 -37 -13.5t-16 -34.5q0 -32 26.5 -45t53.5 0.5 t27 44.5q0 21 -16 34.5t-38 13.5zM193 596q-28 0 -48 -19t-20 -48q0 -27 19 -45t49 -18q32 0 50.5 17.5t18.5 45.5q0 29 -20 48t-49 19z" />
<glyph unicode="&#x2079;" horiz-adv-x="416" d="M93 390l110 161q-76 -11 -126 30.5t-50 110.5q0 72 51.5 117t126.5 45q74 0 126 -45t52 -117q0 -52 -29 -95l-144 -207h-117zM205 616q30 0 54 22.5t24 52.5q0 33 -23 55t-55 22q-30 0 -54 -23t-24 -54t23.5 -53t54.5 -22z" />
<glyph unicode="&#x2080;" horiz-adv-x="422" d="M117 18q0 -42 26.5 -65t63.5 -23t63.5 23t26.5 65v114q0 41 -27 64t-64 23q-36 0 -62.5 -23t-26.5 -64v-114zM19 132q0 82 56 128.5t132 46.5t132 -46.5t56 -128.5v-114q0 -74 -51 -123q-57 -54 -138 -54t-136 54q-51 49 -51 123v114z" />
<glyph unicode="&#x2081;" horiz-adv-x="279" d="M103 -147v343h-59v94h164v-437h-105z" />
<glyph unicode="&#x2082;" horiz-adv-x="405" d="M297 61l-127 -114h186v-95h-304l-36 65l207 197q33 32 31 57t-22 41t-42 15q-23 -1 -47.5 -14t-38.5 -40l-74 31q23 53 65.5 81.5t98.5 27.5q64 -2 110.5 -39t46.5 -104q0 -58 -54 -109z" />
<glyph unicode="&#x2083;" horiz-adv-x="394" d="M116 180l-68 45q26 48 76.5 68t98.5 11t84 -45.5t36 -90.5q0 -24 -14.5 -48.5t-42.5 -33.5q72 -29 72 -102q-1 -68 -51.5 -107.5t-118.5 -39.5q-118 0 -168 103l71 44q15 -26 43 -40t55 -14t48 15t21 40q0 27 -17 42t-42 15h-64v79h64q19 0 33 12.5t14 31.5q0 30 -27 44 t-58.5 5.5t-44.5 -34.5z" />
<glyph unicode="&#x2084;" horiz-adv-x="413" d="M345 308v-284h45v-94h-45v-79h-102v79h-166l-65 88l175 290h158zM250 235l-124 -215h118v105l12 110h-6z" />
<glyph unicode="&#x2085;" horiz-adv-x="430" d="M44 -84l78 48q18 -33 61 -45t79 7t36 64q0 40 -34 60t-76.5 15.5t-69.5 -28.5h-57l34 262h273v-82h-195q-1 -9 -4.5 -37t-5.5 -41q39 12 80.5 7t75.5 -20t56 -51t22 -85q0 -67 -44 -111t-102 -53.5t-118 13.5t-89 77z" />
<glyph unicode="&#x2086;" horiz-adv-x="418" d="M319 304l-118 -169q68 17 125.5 -22.5t56.5 -113.5q-2 -67 -46 -111q-51 -51 -132.5 -50.5t-131.5 50.5q-45 45 -45 111q0 48 29 91l148 214h114zM205 65q-51 0 -72 -35t0 -70.5t72 -35.5q48 0 69 35t1.5 70.5t-70.5 35.5z" />
<glyph unicode="&#x2087;" horiz-adv-x="354" d="M24 -157l186 361h-185v87h278l35 -54l-206 -394h-108z" />
<glyph unicode="&#x2088;" horiz-adv-x="389" d="M26 -11q-1 30 17.5 59t47.5 45q-22 13 -34.5 36t-12.5 46q0 49 31 82.5t75 41.5t88 0.5t75 -41.5t31 -83q0 -55 -42 -82q60 -32 60 -104q0 -46 -25 -80t-62.5 -49.5t-80.5 -15.5t-80.5 15t-62.5 49t-25 81zM193 223q-21 0 -37 -13.5t-16 -34.5q0 -32 26.5 -45t53.5 0.5 t27 44.5q0 21 -16 34.5t-38 13.5zM193 57q-28 0 -48 -19t-20 -48q0 -27 19 -45t49 -18q32 0 50.5 17.5t18.5 45.5q0 29 -20 48t-49 19z" />
<glyph unicode="&#x2089;" horiz-adv-x="411" d="M93 -153l110 161q-76 -11 -126 30.5t-50 110.5q0 72 51.5 117t126.5 45q74 0 126 -45t52 -117q0 -52 -29 -95l-144 -207h-117zM205 73q30 0 54 22.5t24 52.5q0 33 -23 55t-55 22q-30 0 -54 -23t-24 -54t23.5 -53t54.5 -22z" />
<glyph unicode="&#x20ac;" horiz-adv-x="656" d="M36 457h57q31 110 118.5 181.5t217.5 71.5q79 0 164 -41l-45 -92q-58 29 -119 29q-78 -1 -134.5 -43t-83.5 -106h268l-17 -77h-269q-2 -6 -2 -26t1 -26h259l-16 -77h-229q24 -71 81 -115.5t142 -44.5q65 0 133 37l51 -91q-96 -51 -184 -51q-135 0 -224 75.5t-117 189.5 h-75l16 77h49q-2 30 1 52h-60z" />
<glyph unicode="&#x2122;" horiz-adv-x="874" d="M326 611h-104v-297h-99v297h-104v89h307v-89zM560 359l-91 159q1 -67 1 -204h-99v385h95l123 -210l125 210h92v-385h-98v203q-14 -28 -46.5 -84t-42.5 -74h-59z" />
<glyph unicode="&#x25fc;" horiz-adv-x="510" d="M0 510h510v-510h-510v510z" />
<glyph horiz-adv-x="602" d="M162 199q0 -50 39 -80t90 -30t89.5 30t38.5 80v296q0 50 -40 81t-92 30q-50 -1 -87.5 -31.5t-37.5 -79.5v-296zM50 495q0 99 70 155t166 57q99 2 172 -54t73 -158v-296q1 -98 -69.5 -155.5t-170.5 -57.5q-99 -2 -171 56.5t-70 156.5v296z" />
<glyph horiz-adv-x="322" d="M120 598h-85v102h198v-700h-113v598z" />
<glyph horiz-adv-x="556" d="M269 600q-44 2 -81.5 -25t-57.5 -74l-91 42q31 80 93 119.5t140 37.5q96 -3 156.5 -62t62.5 -140q0 -83 -77 -166l-216 -227h298v-105h-432l-30 76l303 327q37 39 43.5 84t-23 78t-88.5 35z" />
<glyph horiz-adv-x="550" d="M24 148l85 48q49 -103 148 -103q48 0 82 28t34 85q0 50 -31 81.5t-75 31.5h-68v100h68q39 0 64 23.5t25 64.5q0 46 -30 70t-71 24q-91 0 -127 -76l-81 44q28 66 86.5 101t122.5 35q86 0 149 -50.5t63 -147.5q0 -39 -22.5 -80t-58.5 -54q98 -51 98 -168 q-1 -103 -69.5 -159.5t-161.5 -56.5q-70 0 -134 41.5t-96 117.5z" />
<glyph horiz-adv-x="561" d="M470 700v-471h52v-105h-52v-124h-110v124h-271l-71 96l326 480h126zM365 569l-70 -123l-153 -217h218v196l8 144h-3z" />
<glyph horiz-adv-x="571" d="M36 138l89 48q22 -45 62 -70t82 -25q63 0 99 41.5t36 99.5q0 67 -37.5 101t-96.5 36q-76 3 -142 -46h-65l53 377h356v-100h-266l-20 -145q137 41 233 -24.5t96 -198.5q0 -98 -66.5 -172t-181.5 -74q-74 0 -135 38.5t-96 113.5z" />
<glyph horiz-adv-x="592" d="M290 -11q-115 0 -180 72.5t-65 169.5q0 71 41 136l206 333h129l-156 -251q63 14 116 -1.5t85.5 -50.5t50.5 -78.5t18 -87.5q0 -97 -65 -169.5t-180 -72.5zM290 361q-57 0 -95 -36.5t-38 -93.5q0 -55 35.5 -96t97.5 -41q63 0 98.5 41t35.5 96q0 53 -35.5 91.5t-98.5 38.5z " />
<glyph horiz-adv-x="490" d="M330 593h-311v106h387l60 -78l-317 -621h-127z" />
<glyph horiz-adv-x="577" d="M277 -14q-93 0 -162 58.5t-70 159.5q-1 51 28.5 96.5t76.5 73.5q-36 18 -57.5 59t-21.5 79q0 90 61.5 144t144.5 54t144 -54t61 -144q0 -40 -21 -78.5t-57 -58.5q106 -54 105 -171q-1 -101 -70 -159.5t-162 -58.5zM277 610q-43 0 -68.5 -29.5t-25.5 -66.5q0 -36 25 -64 t69 -28q43 0 68 28t25 64q0 37 -25 66.5t-68 29.5zM277 324q-56 0 -87.5 -36.5t-31.5 -84.5q0 -46 31.5 -81.5t87.5 -34.5q56 0 88.5 35.5t32.5 82.5t-32.5 83t-88.5 36z" />
<glyph horiz-adv-x="595" d="M288 711q115 0 180 -72.5t65 -169.5q0 -71 -41 -136l-206 -333h-129l156 251q-63 -14 -116 1.5t-85.5 50.5t-50.5 78.5t-18 87.5q0 97 65 169.5t180 72.5zM288 339q57 0 95 36.5t38 93.5q0 55 -35.5 96t-97.5 41q-63 0 -98.5 -41t-35.5 -96q0 -53 35.5 -91.5t98.5 -38.5z " />
<glyph horiz-adv-x="601" d="M158 196q0 -50 40 -81.5t92 -31.5q51 0 91 31.5t40 81.5v121q0 51 -41.5 82.5t-93.5 30.5q-51 -1 -89.5 -32.5t-38.5 -80.5v-121zM49 317q0 99 70 155t166 57q99 2 172 -54t73 -158v-121q0 -92 -61 -148q-68 -65 -179 -65q-111 -2 -181 65q-60 58 -60 148v121z" />
<glyph horiz-adv-x="298" d="M100 0v410h-74v104h185v-514h-111z" />
<glyph horiz-adv-x="514" d="M379 243l-170 -146h242v-97h-359l-40 75l254 241q48 44 26 87.5t-80 45.5q-31 2 -63 -19.5t-48 -55.5l-87 41q25 62 81 97.5t120 34.5q62 -1 110 -32t68.5 -76t8 -99t-62.5 -97z" />
<glyph horiz-adv-x="518" d="M7 23l85 44q50 -95 148 -95q48 0 82 25.5t34 78.5q0 46 -31 75t-75 29h-68v94h68q39 0 64 21t25 59q0 42 -30 64.5t-71 22.5q-91 0 -127 -70l-81 41q30 64 86 95t123 31q86 0 149 -47t63 -137q0 -35 -23.5 -73t-59.5 -50q100 -47 100 -156q-1 -95 -69.5 -148.5 t-161.5 -53.5q-70 0 -134 40t-96 110z" />
<glyph horiz-adv-x="546" d="M443 524v-401h52v-101h-52v-122h-110v122h-256l-63 85l322 417h107zM333 123l3 234q-15 -20 -80 -102t-104 -132h181z" />
<glyph horiz-adv-x="530" d="M16 24l87 43q22 -41 61 -63.5t81 -22.5q61 0 96.5 37.5t35.5 89.5q0 61 -37 91.5t-94 31.5q-75 3 -140 -41h-64l52 339h350v-99h-263l-18 -114q134 36 228.5 -26t94.5 -182q0 -89 -65 -157.5t-178 -68.5q-72 0 -132.5 36.5t-94.5 105.5z" />
<glyph horiz-adv-x="584" d="M290 -11q-115 0 -180 72.5t-65 169.5q0 71 41 136l206 333h129l-156 -251q63 14 116 -1.5t85.5 -50.5t50.5 -78.5t18 -87.5q0 -97 -65 -169.5t-180 -72.5zM290 361q-57 0 -95 -36.5t-38 -93.5q0 -55 35.5 -96t97.5 -41q63 0 98.5 41t35.5 96q0 53 -35.5 91.5t-98.5 38.5z " />
<glyph horiz-adv-x="507" d="M337 427h-318v100h387l60 -78l-307 -567h-118z" />
<glyph horiz-adv-x="554" d="M271 -14q-92 0 -159.5 55t-68.5 150q-1 49 27.5 91t74.5 69q-35 16 -55.5 56.5t-20.5 73.5q0 84 60.5 135t141.5 51t141 -50.5t60 -135.5q0 -37 -20.5 -73.5t-55.5 -55.5q104 -51 103 -161q-1 -95 -68.5 -150t-159.5 -55zM271 573q-43 0 -67.5 -28t-24.5 -62t24.5 -60.5 t67.5 -26.5q42 0 66.5 26.5t24.5 60.5t-24 62t-67 28zM271 304q-55 0 -86 -34.5t-31 -79.5q0 -44 31 -77t86 -32q56 0 87.5 33.5t31.5 77.5t-31.5 78t-87.5 34z" />
<glyph horiz-adv-x="560" d="M270 561q115 0 180 -72.5t65 -169.5q0 -71 -41 -136l-194 -314h-129l144 232q-63 -14 -116 1.5t-85.5 50.5t-50.5 78.5t-18 87.5q0 97 65 169.5t180 72.5zM270 189q57 0 95 36.5t38 93.5q0 55 -35.5 96t-97.5 41q-63 0 -98.5 -41t-35.5 -96q0 -53 35.5 -91.5t98.5 -38.5z " />
<glyph horiz-adv-x="552" d="M161 407q-2 -22 16.5 -39.5t39 -25t44.5 -12.5q47 -10 82.5 -22.5t71.5 -34t54 -56.5t16 -81q-4 -64 -53 -104.5t-120 -51.5v-71h-102v72q-117 23 -170 138l92 40q29 -47 57.5 -68.5t70.5 -21.5q50 -1 82 18.5t35 54.5q1 19 -8 34.5t-20 24.5t-33 17.5t-34 11.5l-36 9 q-37 8 -67 19t-61 31t-48 51.5t-15 72.5q2 63 45.5 104.5t109.5 52.5v72h102v-71q113 -24 157 -123l-89 -37q-33 68 -116 70q-42 0 -71 -18t-32 -56z" />
<glyph horiz-adv-x="558" d="M258 -87v81q-103 14 -159.5 88t-56.5 171q1 96 58 171t158 89v86h92v-87q78 -14 140 -76l-62 -76q-60 57 -128 57q-60 1 -104.5 -46t-45.5 -120q0 -64 40 -112.5t111 -48.5q63 0 131 61l63 -76q-65 -65 -145 -79v-83h-92z" />
<glyph horiz-adv-x="580" d="M513 396l-95 -19q-7 47 -41 73t-71 25t-67 -30.5t-30 -81.5v-62h197v-84h-197v-119h310v-98h-475v76l54 21v120h-52v84h52v62q0 99 61 151.5t149 52.5q80 0 137 -41t68 -130z" />
<glyph horiz-adv-x="577" d="M561 563l-153 -239h66v-85h-117q-12 -16 -21 -35h138v-82h-143v-130h-112v130h-143v80h138q-2 4 -10.5 18t-11.5 19h-116v85h64l-148 239h130l155 -271l154 271h130z" />
<glyph horiz-adv-x="625" d="M457 331h-250q-2 -20 0 -40h235l-13 -73h-223q45 -126 223 -126q52 0 124 39l51 -93q-96 -51 -175 -51q-139 0 -226.5 61.5t-114.5 169.5h-78l16 73h57q-2 18 0 40h-66l17 77h59q30 105 116.5 166t219.5 61q72 0 157 -41l-45 -92q-56 28 -112 28q-165 -3 -218 -122h262z " />
<glyph horiz-adv-x="426" d="M117 420q0 -41 26.5 -64t62.5 -23t62.5 23t26.5 64v111q0 41 -27 64.5t-63 23.5t-62 -23t-26 -65v-111zM19 531q0 82 55.5 128.5t131.5 46.5q75 0 131 -46.5t56 -128.5v-111q0 -80 -56 -128t-132 -48q-75 0 -131 49.5t-55 126.5v111z" />
<glyph horiz-adv-x="288" d="M89 257v349h-60v93h164v-442h-104z" />
<glyph horiz-adv-x="404" d="M297 451l-127 -114h186v-95h-304l-36 65l207 197q33 32 31 57t-22 41t-42 15q-23 -1 -47.5 -14t-38.5 -40l-74 31q23 53 65.5 81.5t98.5 27.5q64 -2 110.5 -39t46.5 -104q0 -58 -54 -109z" />
<glyph horiz-adv-x="394" d="M116 581l-68 45q26 48 76.5 68t98.5 11t84 -45.5t36 -90.5q0 -24 -14.5 -48.5t-42.5 -33.5q72 -29 72 -102q-1 -68 -51.5 -107.5t-118.5 -39.5q-118 0 -168 103l71 44q15 -26 43 -40t55 -14t48 15t21 40q0 27 -17 42t-42 15h-64v79h64q19 0 33 12.5t14 31.5q0 30 -27 44 t-58.5 5.5t-44.5 -34.5z" />
<glyph horiz-adv-x="416" d="M345 700v-284h45v-94h-45v-79h-102v79h-166l-65 88l175 290h158zM250 627l-124 -215h118v105l12 110h-6z" />
<glyph horiz-adv-x="428" d="M28 317l78 48q18 -33 62 -45t81 7t37 64q0 40 -34 60t-76.5 15.5t-69.5 -28.5h-61l38 262h273v-82h-195q-1 -9 -4.5 -37t-5.5 -41q39 12 80.5 7t75.5 -20t56 -51t22 -85q0 -67 -44.5 -111t-103.5 -53.5t-119.5 13.5t-89.5 77z" />
<glyph horiz-adv-x="420" d="M319 700l-118 -169q68 17 125.5 -22.5t56.5 -113.5q-2 -67 -46 -111q-51 -51 -132.5 -50.5t-131.5 50.5q-45 45 -45 111q0 48 29 91l148 214h114zM205 461q-51 0 -72 -35.5t0 -70.5t72 -35q48 0 69 35t1.5 70.5t-70.5 35.5z" />
<glyph horiz-adv-x="355" d="M24 252l186 361h-178v87h271l35 -54l-206 -394h-108z" />
<glyph horiz-adv-x="398" d="M26 388q-1 30 17.5 59t47.5 45q-22 13 -34.5 36t-12.5 46q0 49 31 82.5t75 41.5t88 0.5t75 -41.5t31 -83q0 -55 -42 -82q60 -32 60 -104q0 -46 -25 -80t-62.5 -49.5t-80.5 -15.5t-80.5 15t-62.5 49t-25 81zM193 622q-21 0 -37 -13.5t-16 -34.5q0 -32 26.5 -45t53.5 0.5 t27 44.5q0 21 -16 34.5t-38 13.5zM193 456q-28 0 -48 -19t-20 -48q0 -27 19 -45t49 -18q32 0 50.5 17.5t18.5 45.5q0 29 -20 48t-49 19z" />
<glyph horiz-adv-x="416" d="M93 248l110 161q-76 -11 -126 30.5t-50 110.5q0 72 51.5 117t126.5 45q74 0 126 -45t52 -117q0 -52 -29 -95l-144 -207h-117zM205 474q30 0 54 22.5t24 52.5q0 33 -23 55t-55 22q-30 0 -54 -23t-24 -54t23.5 -53t54.5 -22z" />
<glyph horiz-adv-x="430" d="M123 164q0 -41 26 -64t62 -23t62 23t26 64v114q0 41 -26.5 64.5t-62.5 23.5t-61.5 -23t-25.5 -65v-114zM25 278q0 83 55 129.5t131 46.5q75 0 130.5 -46.5t55.5 -129.5v-114q0 -82 -55 -127.5t-130 -45.5q-76 0 -131.5 46t-55.5 127v114z" />
<glyph horiz-adv-x="288" d="M89 -1v343h-60v94h164v-437h-104z" />
<glyph horiz-adv-x="405" d="M297 209l-127 -114h186v-95h-304l-36 65l207 197q33 32 30.5 57t-23 41t-42.5 15q-57 -2 -84 -54l-74 31q48 112 162 109q64 -2 111.5 -39t47.5 -104q0 -58 -54 -109z" />
<glyph horiz-adv-x="394" d="M114 335l-66 44q26 48 76.5 68.5t98.5 11.5t84 -45t36 -90q0 -24 -14.5 -49.5t-42.5 -34.5q72 -29 72 -102q-1 -68 -51.5 -107.5t-118.5 -39.5q-118 0 -168 103l71 44q15 -26 43 -40t55 -14t48 15t21 40q0 27 -17 42t-42 15h-64v79h64q18 0 32.5 13.5t14.5 32.5 q0 32 -27.5 45.5t-59.5 4t-45 -35.5z" />
<glyph horiz-adv-x="400" d="M345 449v-284h45v-94h-45v-78h-102v78h-166l-65 88l175 290h158zM250 376l-124 -215h118v105l12 110h-6z" />
<glyph horiz-adv-x="428" d="M28 65l78 48q18 -33 62 -45t81 7t37 64q0 40 -34 60t-76.5 15.5t-69.5 -28.5h-61l38 262h273v-85h-195q-1 -9 -4.5 -35.5t-5.5 -39.5q39 12 80.5 7t75.5 -20t56 -51t22 -85q0 -67 -44.5 -111t-103.5 -53.5t-119.5 13.5t-89.5 77z" />
<glyph horiz-adv-x="419" d="M319 454l-118 -169q68 17 125.5 -22.5t56.5 -113.5q-2 -67 -46 -111q-51 -51 -132.5 -50.5t-131.5 50.5q-45 45 -45 111q0 48 29 91l148 214h114zM205 215q-51 0 -72 -35t0 -70.5t72 -35.5q48 0 69 35t1.5 70.5t-70.5 35.5z" />
<glyph horiz-adv-x="360" d="M24 0l186 361h-178v87h271l35 -54l-206 -394h-108z" />
<glyph horiz-adv-x="398" d="M24 137q-1 30 17.5 59t47.5 45q-22 13 -34.5 36t-12.5 46q0 49 31 82.5t75 41.5t88 0.5t75 -41.5t31 -83q0 -55 -42 -82q60 -32 60 -104q0 -46 -25 -80t-62.5 -49.5t-80.5 -15.5t-80.5 15t-62.5 49t-25 81zM191 371q-21 0 -37 -13.5t-16 -34.5q0 -32 26.5 -45t53.5 0.5 t27 44.5q0 21 -16 34.5t-38 13.5zM191 205q-28 0 -48 -19t-20 -48q0 -27 19 -45t49 -18q32 0 50.5 17.5t18.5 45.5q0 29 -20 48t-49 19z" />
<glyph horiz-adv-x="414" d="M93 0l110 161q-76 -11 -126 30.5t-50 110.5q0 72 51.5 117t126.5 45q74 0 126 -45t52 -117q0 -52 -29 -95l-144 -207h-117zM205 226q30 0 54 22.5t24 52.5q0 33 -23 55t-55 22q-30 0 -54 -23t-24 -54t23.5 -53t54.5 -22z" />
</font>
</defs>
</svg>
