<?xml version="1.0" encoding="utf-8"?>
<!-- Generator: Adobe Illustrator 24.0.0, SVG Export Plug-In . SVG Version: 6.00 Build 0)  -->
<svg version="1.1" id="Layer_1" xmlns="http://www.w3.org/2000/svg" xmlns:xlink="http://www.w3.org/1999/xlink" x="0px" y="0px"
	 viewBox="0 0 1571 1099" style="enable-background:new 0 0 1571 1099;" xml:space="preserve">
<style type="text/css">
	.st0{fill:#C4C4C4;filter:url(#Adobe_OpacityMaskFilter);}
	.st1{mask:url(#mask0_1_);}
	.st2{fill-rule:evenodd;clip-rule:evenodd;fill:url(#SVGID_1_);}
</style>
<defs>
	<filter id="Adobe_OpacityMaskFilter" filterUnits="userSpaceOnUse" x="0" y="0" width="1967.2" height="1241.8">
		<feColorMatrix  type="matrix" values="1 0 0 0 0  0 1 0 0 0  0 0 1 0 0  0 0 0 1 0"/>
	</filter>
</defs>
<mask maskUnits="userSpaceOnUse" x="0" y="0" width="1967.2" height="1241.8" id="mask0_1_">
	<rect class="st0" width="1571" height="1099"/>
</mask>
<g class="st1">
	
		<radialGradient id="SVGID_1_" cx="598.5209" cy="736.9856" r="1" gradientTransform="matrix(-1165.9962 -662.9973 -655.1084 1152.1222 1181844.625 -451532.1562)" gradientUnits="userSpaceOnUse">
		<stop  offset="0" style="stop-color:#C8F8A2"/>
		<stop  offset="0.4457" style="stop-color:#CADDCD"/>
		<stop  offset="1" style="stop-color:#E6F0E6"/>
	</radialGradient>
	<path class="st2" d="M14.4,55.6c-19.1,12.1-19.1,31.7,0,43.8l172.2,108.7c19.1,12.1,50.2,12.1,69.3,0l29.3-18.5l34,21.4
		l-142.4,89.9c-19.1,12.1-19.1,31.7,0,43.8l14.5,9.2l-29.3,18.5c-19.1,12.1-19.1,31.7,0,43.8l172.2,108.7
		c19.1,12.1,50.2,12.1,69.3,0l29.3-18.5l14.5,9.2c10.7,6.8,10.7,17.8,0,24.6l-123,77.6c-19.1,12.1-19.1,31.7,0,43.8l14.5,9.2
		l-29.3,18.5c-19.1,12.1-19.1,31.7,0,43.8l172.2,108.7c19.1,12.1,50.2,12.1,69.3,0l29.3-18.5l83.2,52.5L634.1,894
		c-19.1,12.1-19.1,31.7,0,43.8l172.2,108.7c19.1,12.1,50.2,12.1,69.3,0l73.8-46.6c19.1-12.1,19.1-31.7,0-43.8l-78.5-49.5L1082,773.4
		l78.5,49.5c19.2,12.1,50.2,12.1,69.3,0l29.3-18.5l34,21.4l-142.4,89.9c-19.2,12.1-19.2,31.7,0,43.8l14.5,9.2l-29.3,18.5
		c-19.2,12.1-19.2,31.7,0,43.8l172.2,108.7c19.2,12.1,50.2,12.1,69.3,0l17.8-11.2l14.5,9.2c19.2,12.1,50.2,12.1,69.3,0l153.9-97.2
		l34,21.4l-29.3,18.5c-19.2,12.1-19.2,31.7,0,43.8l172.2,108.7c19.2,12.1,50.2,12.1,69.3,0l73.8-46.6c19.1-12.1,19.1-31.7,0-43.8
		l-172.2-108.7c-19.1-12.1-50.2-12.1-69.3,0l-29.3,18.5l-34-21.4l142.4-89.9c19.1-12.1,19.1-31.7,0-43.8L1776,888l29.3-18.5
		c19.1-12.1,19.1-31.7,0-43.8L1633.2,717c-19.2-12.1-50.2-12.1-69.3,0l-29.3,18.5l-14.5-9.2c-19.2-12.1-50.2-12.1-69.3,0
		l-142.4,89.9l-34-21.4l29.3-18.5c19.1-12.1,19.1-31.7,0-43.8l-78.5-49.5l78.5-49.5c19.1-12.1,19.1-31.7,0-43.8L802.1,273.1
		l29.3-18.5c19.1-12.1,19.1-31.7,0-43.8L659.2,102.2c-19.1-12.1-50.2-12.1-69.3,0l-29.3,18.5l-14.5-9.2c-19.1-12.1-50.2-12.1-69.3,0
		l-142.4,89.9l-34-21.4l29.3-18.5c19.1-12.1,19.1-31.7,0-43.8L157.5,9.1C138.3-3,107.3-3,88.1,9.1L14.4,55.6z M1066.8,763.7
		l-78.5-49.5c-19.1-12.1-19.1-31.7,0-43.8l4.7-3l-14.5-9.2c-10.7-6.8-28.2-6.8-38.9,0l-98.4,62.1c-19.1,12.1-50.2,12.1-69.3,0
		l-14.5-9.2l-29.3,18.5c-19.1,12.1-50.2,12.1-69.3,0L486.6,621.1c-19.1-12.1-19.1-31.7,0-43.8l29.3-18.5l-39.9-25.2
		c-1.8,5.9-6.3,11.5-13.5,16l-123,77.6c-10.7,6.8-10.7,17.8,0,24.6L354,661l29.3-18.5c19.1-12.1,50.2-12.1,69.3,0l172.2,108.7
		c19.1,12.1,19.1,31.7,0,43.8l-29.3,18.5l83.2,52.5l29.3-18.5c19.1-12.1,50.2-12.1,69.3,0l78.5,49.5L1066.8,763.7z M531.1,549.2
		l29.3-18.5c19.1-12.1,50.2-12.1,69.3,0l172.2,108.7c19.1,12.1,19.1,31.7,0,43.8l-29.3,18.5l14.5,9.2c10.7,6.8,28.2,6.8,38.9,0
		l98.4-62.1c19.1-12.1,50.2-12.1,69.3,0l14.5,9.2l34-21.4L995.6,607c-15.9-10-15.9-26.3,0-36.4c18.5-11.7,18.5-30.6,0-42.3
		l-190-119.9c-18.5-11.7-48.5-11.7-67,0c-15,9.5-38.9,10-54.9,1.6l-9.5,6l34,21.4l29.3-18.5c19.1-12.1,50.2-12.1,69.3,0l172.2,108.7
		c19.1,12.1,19.1,31.7,0,43.8L905.2,618C886,630,855,630,835.8,618L663.7,509.3c-19.1-12.1-19.1-31.7,0-43.8l29.3-18.5l-34-21.4
		l-142.4,89.9c-7.2,4.6-16.1,7.4-25.4,8.5L531.1,549.2z M462.4,505.9c10.7,6.8,28.2,6.8,38.9,0L643.7,416l-34-21.4L580.5,413
		c-19.1,12.1-50.2,12.1-69.3,0L339,304.3c-19.1-12.1-19.1-31.7,0-43.8l29.3-18.5l-34-21.4l-142.4,89.9c-10.7,6.8-10.7,17.8,0,24.6
		l14.5,9.2l29.3-18.5c19.1-12.1,50.2-12.1,69.3,0l172.2,108.7c19.1,12.1,19.1,31.7,0,43.8l-29.3,18.5L462.4,505.9z M723.4,398.8
		c-6.6,4.2-16.9,4.7-24.4,1.5l117.6-74.2c7.2-4.5,11.7-10.2,13.5-16l458.3,289.3c10.8,6.8,10.8,17.8,0,24.6l-78.5,49.5l-78.5-49.5
		c-19.1-12.1-50.2-12.1-69.3,0l-4.7,3l-46.6-29.4c-7.5-4.7-7.5-12.4,0-17.2c26.9-17,26.9-44.5,0-61.5l-190-119.9
		C793.9,381.8,750.3,381.8,723.4,398.8z M649.6,369.4l34,21.4l117.8-74.4c10.7-6.8,10.7-17.8,0-24.6l-14.5-9.2l-29.3,18.5
		c-19.1,12.1-50.2,12.1-69.3,0L516.1,192.6c-19.1-12.1-19.1-31.7,0-43.8l29.3-18.5l-14.5-9.2c-10.7-6.8-28.2-6.8-38.9,0L349.5,211
		l34,21.4l29.3-18.5c19.1-12.1,50.2-12.1,69.3,0l172.2,108.7c19.1,12.1,19.1,31.7,0,43.8L649.6,369.4z M668.3,400.5l-34-21.4
		l-9.4,5.9l34,21.4L668.3,400.5z M1632.9,1021.2l142.4-89.9c10.7-6.8,10.7-17.8,0-24.6l-14.5-9.2l-29.3,18.5
		c-19.1,12.1-50.2,12.1-69.3,0L1490,807.4c-19.2-12.1-19.2-31.7,0-43.8l29.3-18.5l-14.5-9.2c-10.7-6.8-28.2-6.8-38.9,0l-142.4,89.9
		l34,21.4l29.3-18.5c19.2-12.1,50.2-12.1,69.3,0l172.2,108.7c19.1,12.1,19.1,31.7,0,43.8l-29.3,18.5L1632.9,1021.2z M1583.7,1009.3
		l-29.3,18.5c-19.1,12.1-50.2,12.1-69.3,0L1313,919.2c-19.1-12.1-19.1-31.7,0-43.8l29.3-18.5l-34-21.4l-142.4,89.9
		c-10.7,6.8-10.7,17.8,0,24.6l14.5,9.2l29.3-18.5c19.2-12.1,50.2-12.1,69.3,0l172.2,108.7c19.2,12.1,19.2,31.7,0,43.8l-40.8,25.7
		l14.5,9.2c10.7,6.8,28.2,6.8,38.9,0l153.9-97.1L1583.7,1009.3z M29.6,89.8C18.8,83,18.8,72,29.6,65.2l73.8-46.6
		c10.7-6.8,28.2-6.8,38.9,0l172.2,108.7c10.7,6.8,10.7,17.8,0,24.6l-73.8,46.6c-10.7,6.8-28.2,6.8-38.9,0L29.6,89.8z M1652.8,1114.5
		c-10.7-6.8-10.7-17.8,0-24.5l73.8-46.6c10.8-6.8,28.2-6.8,38.9,0l172.2,108.7c10.7,6.8,10.7,17.8,0,24.5l-73.8,46.6
		c-10.7,6.8-28.2,6.8-38.9,0L1652.8,1114.5z M177.1,382c-10.7,6.8-10.7,17.8,0,24.6l172.2,108.7c10.7,6.8,28.2,6.8,38.9,0l73.8-46.6
		c10.7-6.8,10.7-17.8,0-24.6L289.8,335.4c-10.7-6.8-28.2-6.8-38.9,0L177.1,382z M354.2,294.7c-10.7-6.8-10.7-17.8,0-24.6l73.8-46.6
		c10.7-6.8,28.2-6.8,38.9,0l172.2,108.7c10.7,6.8,10.7,17.8,0,24.6l-73.8,46.6c-10.7,6.8-28.2,6.8-38.9,0L354.2,294.7z M531.3,158.4
		c-10.7,6.8-10.7,17.8,0,24.6l172.2,108.7c10.7,6.8,28.2,6.8,38.9,0l73.8-46.6c10.7-6.8,10.7-17.8,0-24.6L644,111.8
		c-10.7-6.8-28.2-6.8-38.9,0L531.3,158.4z M1151.1,1021.3c-10.7-6.8-10.7-17.8,0-24.6l73.8-46.6c10.7-6.8,28.2-6.8,38.9,0
		l172.2,108.7c10.7,6.8,10.7,17.8,0,24.6l-73.8,46.6c-10.7,6.8-28.2,6.8-38.9,0L1151.1,1021.3z M1328.2,885
		c-10.7,6.8-10.7,17.8,0,24.6l172.1,108.7c10.8,6.8,28.2,6.8,38.9,0l73.8-46.6c10.7-6.8,10.7-17.8,0-24.6l-172.2-108.7
		c-10.7-6.8-28.2-6.8-38.9,0L1328.2,885z M1505.3,797.8c-10.7-6.8-10.7-17.8,0-24.6l73.8-46.6c10.7-6.8,28.1-6.8,38.9,0l172.2,108.7
		c10.7,6.8,10.7,17.8,0,24.6l-73.8,46.6c-10.7,6.8-28.2,6.8-38.9,0L1505.3,797.8z M324.7,698.7c-10.7,6.8-10.7,17.8,0,24.6
		l172.2,108.7c10.7,6.8,28.2,6.8,38.9,0l73.8-46.6c10.7-6.8,10.7-17.8,0-24.6L437.4,652.1c-10.7-6.8-28.2-6.8-38.9,0L324.7,698.7z
		 M501.8,611.5c-10.7-6.8-10.7-17.8,0-24.6l73.8-46.6c10.7-6.8,28.2-6.8,38.9,0L786.6,649c10.7,6.8,10.7,17.8,0,24.6l-73.8,46.6
		c-10.7,6.8-28.2,6.8-38.9,0L501.8,611.5z M678.9,475.1c-10.7,6.8-10.7,17.8,0,24.6L851,608.3c10.7,6.8,28.2,6.8,38.9,0l73.8-46.6
		c10.7-6.8,10.7-17.8,0-24.6L791.6,428.5c-10.7-6.8-28.2-6.8-38.9,0L678.9,475.1z M649.4,928.2c-10.7-6.8-10.7-17.8,0-24.6
		l73.8-46.6c10.7-6.8,28.2-6.8,38.9,0l172.2,108.7c10.7,6.8,10.7,17.8,0,24.6l-73.8,46.6c-10.7,6.8-28.2,6.8-38.9,0L649.4,928.2z
		 M1003.5,680.1c-10.7,6.8-10.7,17.8,0,24.6l172.2,108.7c10.8,6.8,28.2,6.8,38.9,0l73.8-46.6c10.8-6.8,10.8-17.8,0-24.6
		l-172.2-108.7c-10.7-6.8-28.1-6.8-38.9,0L1003.5,680.1z"/>
</g>
</svg>
