<svg width="1571" height="1080" viewBox="0 0 1571 1080" fill="none" xmlns="http://www.w3.org/2000/svg">
<mask id="mask0" mask-type="alpha" maskUnits="userSpaceOnUse" x="0" y="0" width="1571" height="1080">
<rect width="1571" height="1080" fill="#C4C4C4"/>
</mask>
<g mask="url(#mask0)">
<path fill-rule="evenodd" clip-rule="evenodd" d="M14.3608 36.635C-4.78696 48.7221 -4.78693 68.3192 14.3608 80.4063L186.513 189.078C205.661 201.165 236.705 201.165 255.853 189.078L285.129 170.597L319.098 192.04L176.686 281.938C157.538 294.025 157.538 313.622 176.686 325.709L191.205 334.874L161.929 353.355C142.781 365.442 142.781 385.039 161.929 397.126L334.081 505.798C353.229 517.885 384.273 517.885 403.421 505.798L432.697 487.317L447.217 496.482C457.958 503.263 457.958 514.256 447.217 521.037L324.254 598.658C305.106 610.745 305.106 630.342 324.254 642.429L338.773 651.594L309.497 670.075C290.349 682.162 290.349 701.759 309.497 713.846L481.649 822.518C500.797 834.605 531.842 834.605 550.989 822.518L580.265 804.037L663.423 856.531L634.147 875.011C614.999 887.099 614.999 906.696 634.147 918.783L806.299 1027.45C825.447 1039.54 856.492 1039.54 875.639 1027.45L949.412 980.885C968.56 968.798 968.56 949.2 949.412 937.113L870.947 887.582L1082 754.356L1160.46 803.887C1179.61 815.974 1210.66 815.974 1229.8 803.887L1259.08 785.406L1293.05 806.849L1150.64 896.747C1131.49 908.834 1131.49 928.431 1150.64 940.518L1165.15 949.684L1135.88 968.164C1116.73 980.251 1116.73 999.848 1135.88 1011.94L1308.03 1120.61C1327.18 1132.69 1358.22 1132.69 1377.37 1120.61L1395.17 1109.37L1409.69 1118.54C1428.84 1130.62 1459.88 1130.62 1479.03 1118.54L1632.92 1021.39L1666.89 1042.84L1637.61 1061.32C1618.46 1073.4 1618.46 1093 1637.61 1105.09L1809.76 1213.76C1828.91 1225.85 1859.96 1225.85 1879.1 1213.76L1952.88 1167.19C1972.02 1155.1 1972.02 1135.51 1952.88 1123.42L1780.72 1014.75C1761.58 1002.66 1730.53 1002.66 1711.38 1014.75L1682.11 1033.23L1648.14 1011.79L1790.55 921.888C1809.7 909.801 1809.7 890.203 1790.55 878.116L1776.03 868.951L1805.31 850.471C1824.46 838.384 1824.46 818.786 1805.31 806.699L1633.16 698.028C1614.01 685.941 1582.96 685.941 1563.82 698.028L1534.54 716.508L1520.02 707.343C1500.87 695.256 1469.83 695.256 1450.68 707.343L1308.27 797.241L1274.3 775.798L1303.58 757.318C1322.72 745.231 1322.72 725.633 1303.58 713.546L1225.11 664.015L1303.58 614.483C1322.72 602.396 1322.72 582.799 1303.58 570.711L802.082 254.142L831.358 235.661C850.506 223.574 850.506 203.977 831.358 191.89L659.206 83.2182C640.058 71.1311 609.013 71.1311 589.866 83.2182L560.59 101.699L546.07 92.5333C526.923 80.4462 495.878 80.4462 476.73 92.5333L334.319 182.431L300.351 160.989L329.626 142.508C348.774 130.421 348.774 110.824 329.626 98.7369L157.474 -9.93466C138.327 -22.0218 107.282 -22.0218 88.134 -9.93466L14.3608 36.635ZM1066.78 744.747L988.311 695.216C969.163 683.129 969.163 663.532 988.311 651.444L992.992 648.489L978.473 639.324C967.732 632.543 950.316 632.543 939.575 639.324L841.207 701.419C822.059 713.506 791.014 713.506 771.867 701.419L757.347 692.254L728.071 710.734C708.923 722.821 677.879 722.821 658.731 710.734L486.579 602.062C467.431 589.975 467.431 570.378 486.579 558.291L515.855 539.811L475.922 514.603C474.141 520.48 469.646 526.095 462.438 530.645L339.475 608.266C328.734 615.047 328.734 626.04 339.475 632.821L353.994 641.986L383.27 623.505C402.418 611.418 433.463 611.418 452.611 623.505L624.763 732.177C643.91 744.264 643.91 763.861 624.763 775.948L595.487 794.429L678.644 846.922L707.92 828.442C727.068 816.355 758.113 816.355 777.261 828.442L855.726 877.973L1066.78 744.747ZM531.076 530.202L560.352 511.722C579.5 499.634 610.545 499.634 629.692 511.722L801.844 620.393C820.992 632.48 820.992 652.077 801.844 664.164L772.568 682.645L787.088 691.811C797.829 698.591 815.244 698.591 825.986 691.811L924.354 629.716C943.501 617.628 974.546 617.629 993.694 629.716L1008.21 638.881L1042.18 617.438L995.579 588.02C979.661 577.972 979.661 561.681 995.579 551.633C1014.07 539.959 1014.07 521.032 995.579 509.358L805.589 389.426C787.096 377.752 757.112 377.752 738.619 389.426C723.573 398.923 699.691 399.444 683.678 390.987L674.19 396.976L708.158 418.419L737.434 399.938C756.582 387.851 787.626 387.851 806.774 399.938L978.926 508.61C998.074 520.697 998.074 540.294 978.926 552.381L905.153 598.95C886.005 611.038 854.96 611.038 835.813 598.95L663.661 490.279C644.513 478.192 644.513 458.595 663.661 446.508L692.937 428.027L658.969 406.584L516.557 496.482C509.348 501.033 500.454 503.87 491.143 504.994L531.076 530.202ZM462.437 486.874C473.179 493.654 490.594 493.654 501.336 486.874L643.747 396.976L609.779 375.533L580.503 394.014C561.355 406.101 530.31 406.101 511.163 394.014L339.011 285.342C319.863 273.255 319.863 253.658 339.011 241.571L368.287 223.09L334.319 201.648L191.907 291.546C181.165 298.326 181.165 309.32 191.907 316.1L206.426 325.266L235.702 306.785C254.85 294.698 285.895 294.698 305.042 306.785L477.194 415.457C496.342 427.544 496.342 447.141 477.194 459.228L447.918 477.709L462.437 486.874ZM723.398 379.818C716.771 384.001 706.512 384.493 699.03 381.295L816.601 307.078C823.81 302.528 828.304 296.913 830.085 291.035L1288.35 580.32C1299.1 587.1 1299.1 598.094 1288.35 604.874L1209.89 654.406L1131.42 604.875C1112.28 592.788 1081.23 592.788 1062.08 604.875L1057.4 607.83L1010.8 578.412C1003.29 573.67 1003.29 565.983 1010.8 561.241C1037.7 544.261 1037.7 516.73 1010.8 499.749L820.81 379.818C793.911 362.837 750.297 362.837 723.398 379.818ZM649.595 350.399L683.563 371.842L801.38 297.47C812.122 290.689 812.122 279.696 801.38 272.915L786.861 263.75L757.585 282.231C738.437 294.318 707.392 294.318 688.245 282.231L516.093 173.559C496.945 161.472 496.945 141.875 516.093 129.788L545.369 111.307L530.849 102.142C520.108 95.3611 502.693 95.3611 491.951 102.142L349.54 192.04L383.508 213.482L412.784 195.001C431.932 182.914 462.976 182.914 482.124 195.001L654.276 303.673C673.424 315.76 673.424 335.357 654.276 347.444L649.595 350.399ZM668.342 381.451L634.374 360.008L625 365.925L658.969 387.368L668.342 381.451ZM1632.92 1002.18L1775.33 912.279C1786.07 905.499 1786.07 894.505 1775.33 887.725L1760.81 878.559L1731.53 897.04C1712.39 909.127 1681.34 909.127 1662.19 897.04L1490.04 788.369C1470.89 776.282 1470.89 756.684 1490.04 744.597L1519.32 726.117L1504.8 716.951C1494.06 710.171 1476.64 710.171 1465.9 716.951L1323.49 806.849L1357.46 828.292L1386.73 809.811C1405.88 797.724 1436.93 797.724 1456.07 809.811L1628.23 918.483C1647.37 930.57 1647.37 950.167 1628.23 962.254L1598.95 980.734L1632.92 1002.18ZM1583.73 990.343L1554.45 1008.82C1535.31 1020.91 1504.26 1020.91 1485.11 1008.82L1312.96 900.152C1293.81 888.065 1293.81 868.468 1312.96 856.381L1342.24 837.9L1308.27 816.457L1165.86 906.355C1155.12 913.136 1155.12 924.13 1165.86 930.91L1180.38 940.075L1209.65 921.595C1228.8 909.508 1259.84 909.508 1278.99 921.595L1451.14 1030.27C1470.29 1042.35 1470.29 1061.95 1451.14 1074.04L1410.39 1099.76L1424.91 1108.93C1435.65 1115.71 1453.07 1115.71 1463.81 1108.93L1617.7 1011.79L1583.73 990.343ZM29.5819 70.7979C18.8404 64.0174 18.8404 53.0239 29.5819 46.2433L103.355 -0.32633C114.096 -7.10689 131.512 -7.1069 142.253 -0.32633L314.405 108.345C325.147 115.126 325.147 126.119 314.405 132.9L240.632 179.469C229.891 186.25 212.475 186.25 201.734 179.469L29.5819 70.7979ZM1652.83 1095.48C1642.09 1088.7 1642.09 1077.71 1652.83 1070.93L1726.6 1024.36C1737.35 1017.58 1754.76 1017.58 1765.5 1024.36L1937.66 1133.03C1948.4 1139.81 1948.4 1150.8 1937.66 1157.58L1863.88 1204.15C1853.14 1210.93 1835.73 1210.93 1824.98 1204.15L1652.83 1095.48ZM177.15 362.963C166.409 369.744 166.409 380.737 177.15 387.518L349.302 496.189C360.043 502.97 377.459 502.97 388.2 496.189L461.973 449.62C472.715 442.839 472.715 431.846 461.973 425.065L289.821 316.393C279.08 309.613 261.665 309.613 250.923 316.393L177.15 362.963ZM354.232 275.734C343.49 268.953 343.49 257.96 354.232 251.179L428.005 204.61C438.746 197.829 456.162 197.829 466.903 204.61L639.055 313.281C649.797 320.062 649.797 331.055 639.055 337.836L565.282 384.406C554.54 391.186 537.125 391.186 526.384 384.406L354.232 275.734ZM531.314 139.396C520.572 146.177 520.572 157.17 531.314 163.951L703.466 272.622C714.207 279.403 731.622 279.403 742.364 272.622L816.137 226.053C826.878 219.272 826.878 208.279 816.137 201.498L643.985 92.8265C633.244 86.046 615.828 86.0459 605.087 92.8265L531.314 139.396ZM1151.1 1002.33C1140.36 995.547 1140.36 984.553 1151.1 977.773L1224.87 931.203C1235.61 924.422 1253.03 924.422 1263.77 931.203L1435.92 1039.87C1446.66 1046.66 1446.66 1057.65 1435.92 1064.43L1362.15 1111C1351.41 1117.78 1333.99 1117.78 1323.25 1111L1151.1 1002.33ZM1328.18 865.989C1317.44 872.769 1317.44 883.763 1328.18 890.544L1500.33 999.215C1511.08 1006 1528.49 1006 1539.23 999.215L1613.01 952.646C1623.75 945.865 1623.75 934.871 1613.01 928.091L1440.85 819.419C1430.11 812.639 1412.7 812.639 1401.95 819.419L1328.18 865.989ZM1505.26 778.76C1494.52 771.98 1494.52 760.986 1505.26 754.206L1579.04 707.636C1589.78 700.856 1607.19 700.856 1617.93 707.636L1790.09 816.308C1800.83 823.088 1800.83 834.082 1790.09 840.862L1716.31 887.432C1705.57 894.213 1688.16 894.213 1677.42 887.432L1505.26 778.76ZM324.718 679.683C313.977 686.464 313.977 697.457 324.718 704.238L496.87 812.909C507.612 819.69 525.027 819.69 535.768 812.909L609.542 766.34C620.283 759.559 620.283 748.566 609.542 741.785L437.389 633.114C426.648 626.333 409.233 626.333 398.491 633.114L324.718 679.683ZM501.8 592.454C491.058 585.674 491.059 574.68 501.8 567.9L575.573 521.33C586.315 514.549 603.73 514.549 614.471 521.33L786.623 630.002C797.365 636.782 797.365 647.776 786.623 654.556L712.85 701.126C702.109 707.906 684.693 707.906 673.952 701.126L501.8 592.454ZM678.882 456.116C668.14 462.896 668.14 473.89 678.882 480.67L851.034 589.342C861.775 596.123 879.19 596.123 889.932 589.342L963.705 542.773C974.447 535.992 974.446 524.998 963.705 518.218L791.553 409.546C780.812 402.766 763.396 402.766 752.655 409.546L678.882 456.116ZM649.368 909.174C638.627 902.394 638.627 891.4 649.368 884.62L723.141 838.05C733.883 831.27 751.298 831.27 762.04 838.05L934.191 946.722C944.933 953.502 944.933 964.496 934.191 971.276L860.418 1017.85C849.677 1024.63 832.261 1024.63 821.52 1017.85L649.368 909.174ZM1003.53 661.053C992.79 667.833 992.79 678.827 1003.53 685.607L1175.68 794.279C1186.43 801.06 1203.84 801.06 1214.58 794.279L1288.35 747.709C1299.1 740.929 1299.1 729.935 1288.35 723.155L1116.2 614.483C1105.46 607.703 1088.05 607.703 1077.3 614.483L1003.53 661.053Z" fill="url(#paint0_radial)"/>
</g>
<defs>
<radialGradient id="paint0_radial" cx="0" cy="0" r="1" gradientUnits="userSpaceOnUse" gradientTransform="translate(1166 728.5) rotate(-150.377) scale(1341.31 1325.35)">
<stop stop-color="#C8F8A2"/>
<stop offset="0.133482" stop-color="#47B936"/>
<stop offset="0.285219" stop-color="#386132"/>
<stop offset="0.445745" stop-color="#323731"/>
<stop offset="1" stop-color="#313330"/>
</radialGradient>
</defs>
</svg>
