<svg width="1968" height="1242" viewBox="0 0 1968 1242" fill="none" xmlns="http://www.w3.org/2000/svg">
<path fill-rule="evenodd" clip-rule="evenodd" d="M14.3608 55.635C-4.78696 67.7221 -4.78693 87.3192 14.3608 99.4063L186.513 208.078C205.661 220.165 236.705 220.165 255.853 208.078L285.129 189.597L319.098 211.04L176.686 300.938C157.538 313.025 157.538 332.622 176.686 344.709L191.205 353.874L161.929 372.355C142.781 384.442 142.781 404.039 161.929 416.126L334.081 524.798C353.229 536.885 384.273 536.885 403.421 524.798L432.697 506.317L447.217 515.482C457.958 522.263 457.958 533.256 447.217 540.037L324.254 617.658C305.106 629.745 305.106 649.342 324.254 661.429L338.773 670.594L309.497 689.075C290.349 701.162 290.349 720.759 309.497 732.846L481.649 841.518C500.797 853.605 531.842 853.605 550.989 841.518L580.265 823.037L663.423 875.531L634.147 894.011C614.999 906.099 614.999 925.696 634.147 937.783L806.299 1046.45C825.447 1058.54 856.491 1058.54 875.639 1046.45L949.412 999.885C968.56 987.798 968.56 968.2 949.412 956.113L870.947 906.582L1082 773.356L1160.46 822.887C1179.61 834.974 1210.65 834.974 1229.8 822.887L1259.08 804.406L1293.05 825.849L1150.64 915.747C1131.49 927.834 1131.49 947.431 1150.64 959.518L1165.15 968.684L1135.88 987.164C1116.73 999.251 1116.73 1018.85 1135.88 1030.94L1308.03 1139.61C1327.18 1151.69 1358.22 1151.69 1377.37 1139.61L1395.17 1128.37L1409.69 1137.54C1428.84 1149.62 1459.88 1149.62 1479.03 1137.54L1632.92 1040.39L1666.89 1061.84L1637.61 1080.32C1618.46 1092.4 1618.46 1112 1637.61 1124.09L1809.76 1232.76C1828.91 1244.85 1859.96 1244.85 1879.1 1232.76L1952.88 1186.19C1972.02 1174.1 1972.02 1154.51 1952.88 1142.42L1780.72 1033.75C1761.58 1021.66 1730.53 1021.66 1711.38 1033.75L1682.11 1052.23L1648.14 1030.79L1790.55 940.888C1809.7 928.801 1809.7 909.203 1790.55 897.116L1776.03 887.951L1805.31 869.471C1824.46 857.384 1824.46 837.787 1805.31 825.699L1633.16 717.028C1614.01 704.941 1582.96 704.941 1563.82 717.028L1534.54 735.508L1520.02 726.343C1500.87 714.256 1469.83 714.256 1450.68 726.343L1308.27 816.241L1274.3 794.798L1303.58 776.318C1322.72 764.231 1322.72 744.633 1303.58 732.546L1225.11 683.015L1303.58 633.483C1322.72 621.396 1322.72 601.799 1303.58 589.711L802.082 273.142L831.358 254.661C850.506 242.574 850.506 222.977 831.358 210.89L659.206 102.218C640.058 90.1311 609.014 90.1311 589.866 102.218L560.59 120.699L546.07 111.533C526.923 99.4462 495.878 99.4462 476.73 111.533L334.319 201.431L300.351 179.989L329.626 161.508C348.774 149.421 348.774 129.824 329.626 117.737L157.474 9.06534C138.327 -3.02178 107.282 -3.02178 88.134 9.06534L14.3608 55.635ZM1066.78 763.747L988.311 714.216C969.163 702.129 969.163 682.532 988.311 670.444L992.992 667.489L978.473 658.324C967.732 651.543 950.316 651.543 939.575 658.324L841.207 720.419C822.059 732.506 791.014 732.506 771.867 720.419L757.347 711.254L728.071 729.734C708.923 741.821 677.879 741.821 658.731 729.734L486.579 621.062C467.431 608.975 467.431 589.378 486.579 577.291L515.855 558.811L475.922 533.603C474.141 539.48 469.646 545.095 462.438 549.645L339.475 627.266C328.734 634.047 328.734 645.04 339.475 651.821L353.994 660.986L383.27 642.505C402.418 630.418 433.463 630.418 452.611 642.505L624.763 751.177C643.91 763.264 643.91 782.861 624.763 794.948L595.487 813.429L678.644 865.922L707.92 847.442C727.068 835.355 758.113 835.355 777.261 847.442L855.726 896.973L1066.78 763.747ZM531.076 549.202L560.352 530.722C579.5 518.634 610.545 518.634 629.692 530.722L801.844 639.393C820.992 651.48 820.992 671.077 801.844 683.164L772.568 701.645L787.088 710.811C797.829 717.591 815.244 717.591 825.986 710.811L924.354 648.716C943.501 636.628 974.546 636.629 993.694 648.716L1008.21 657.881L1042.18 636.438L995.579 607.02C979.662 596.972 979.661 580.681 995.579 570.633C1014.07 558.959 1014.07 540.032 995.579 528.358L805.589 408.426C787.096 396.752 757.112 396.752 738.619 408.426C723.573 417.924 699.691 418.444 683.678 409.987L674.19 415.976L708.158 437.419L737.434 418.938C756.582 406.851 787.626 406.851 806.774 418.938L978.926 527.61C998.074 539.697 998.074 559.294 978.926 571.381L905.153 617.95C886.005 630.038 854.96 630.038 835.813 617.95L663.661 509.279C644.513 497.192 644.513 477.595 663.661 465.508L692.937 447.027L658.969 425.584L516.557 515.482C509.348 520.033 500.454 522.87 491.143 523.994L531.076 549.202ZM462.437 505.874C473.179 512.654 490.594 512.654 501.336 505.874L643.747 415.976L609.779 394.533L580.503 413.014C561.355 425.101 530.31 425.101 511.163 413.014L339.011 304.342C319.863 292.255 319.863 272.658 339.011 260.571L368.287 242.09L334.319 220.648L191.907 310.546C181.165 317.326 181.165 328.32 191.907 335.1L206.426 344.266L235.702 325.785C254.85 313.698 285.895 313.698 305.042 325.785L477.194 434.457C496.342 446.544 496.342 466.141 477.194 478.228L447.918 496.709L462.437 505.874ZM723.398 398.818C716.771 403.001 706.512 403.493 699.03 400.295L816.601 326.078C823.81 321.528 828.304 315.913 830.085 310.035L1288.35 599.32C1299.1 606.1 1299.1 617.094 1288.35 623.874L1209.89 673.406L1131.42 623.875C1112.28 611.788 1081.23 611.788 1062.08 623.875L1057.4 626.83L1010.8 597.412C1003.29 592.67 1003.29 584.983 1010.8 580.241C1037.7 563.261 1037.7 535.73 1010.8 518.749L820.81 398.818C793.911 381.837 750.297 381.837 723.398 398.818ZM649.595 369.399L683.563 390.842L801.38 316.47C812.122 309.689 812.122 298.696 801.38 291.915L786.861 282.75L757.585 301.231C738.437 313.318 707.392 313.318 688.245 301.231L516.093 192.559C496.945 180.472 496.945 160.875 516.093 148.788L545.369 130.307L530.849 121.142C520.108 114.361 502.693 114.361 491.951 121.142L349.54 211.04L383.508 232.482L412.784 214.001C431.932 201.914 462.976 201.914 482.124 214.001L654.276 322.673C673.424 334.76 673.424 354.357 654.276 366.444L649.595 369.399ZM668.342 400.451L634.374 379.008L625 384.925L658.969 406.368L668.342 400.451ZM1632.92 1021.18L1775.33 931.279C1786.07 924.499 1786.07 913.505 1775.33 906.725L1760.81 897.559L1731.53 916.04C1712.39 928.127 1681.34 928.127 1662.19 916.04L1490.04 807.369C1470.89 795.282 1470.89 775.684 1490.04 763.597L1519.32 745.117L1504.8 735.951C1494.06 729.171 1476.64 729.171 1465.9 735.951L1323.49 825.849L1357.46 847.292L1386.73 828.811C1405.88 816.724 1436.93 816.724 1456.07 828.811L1628.23 937.483C1647.37 949.57 1647.37 969.167 1628.23 981.254L1598.95 999.734L1632.92 1021.18ZM1583.73 1009.34L1554.45 1027.82C1535.31 1039.91 1504.26 1039.91 1485.11 1027.82L1312.96 919.152C1293.81 907.065 1293.81 887.468 1312.96 875.381L1342.24 856.9L1308.27 835.457L1165.86 925.355C1155.12 932.136 1155.12 943.13 1165.86 949.91L1180.38 959.075L1209.65 940.595C1228.8 928.507 1259.84 928.507 1278.99 940.595L1451.14 1049.27C1470.29 1061.35 1470.29 1080.95 1451.14 1093.04L1410.39 1118.76L1424.91 1127.93C1435.65 1134.71 1453.07 1134.71 1463.81 1127.93L1617.7 1030.79L1583.73 1009.34ZM29.5819 89.7979C18.8404 83.0174 18.8404 72.0239 29.5819 65.2433L103.355 18.6737C114.096 11.8931 131.512 11.8931 142.253 18.6737L314.405 127.345C325.147 134.126 325.147 145.119 314.405 151.9L240.632 198.469C229.891 205.25 212.475 205.25 201.734 198.469L29.5819 89.7979ZM1652.83 1114.48C1642.09 1107.7 1642.09 1096.71 1652.83 1089.93L1726.6 1043.36C1737.35 1036.58 1754.76 1036.58 1765.5 1043.36L1937.66 1152.03C1948.4 1158.81 1948.4 1169.8 1937.66 1176.58L1863.88 1223.15C1853.14 1229.93 1835.73 1229.93 1824.98 1223.15L1652.83 1114.48ZM177.15 381.963C166.409 388.744 166.409 399.737 177.15 406.518L349.302 515.189C360.043 521.97 377.459 521.97 388.2 515.189L461.973 468.62C472.715 461.839 472.715 450.846 461.973 444.065L289.821 335.393C279.08 328.613 261.665 328.613 250.923 335.393L177.15 381.963ZM354.232 294.734C343.49 287.953 343.49 276.96 354.232 270.179L428.005 223.61C438.746 216.829 456.162 216.829 466.903 223.61L639.055 332.281C649.797 339.062 649.797 350.055 639.055 356.836L565.282 403.406C554.54 410.186 537.125 410.186 526.384 403.406L354.232 294.734ZM531.314 158.396C520.572 165.177 520.572 176.17 531.314 182.951L703.466 291.622C714.207 298.403 731.622 298.403 742.364 291.622L816.137 245.053C826.878 238.272 826.878 227.279 816.137 220.498L643.985 111.827C633.244 105.046 615.828 105.046 605.087 111.827L531.314 158.396ZM1151.1 1021.33C1140.36 1014.55 1140.36 1003.55 1151.1 996.773L1224.87 950.203C1235.61 943.422 1253.03 943.422 1263.77 950.203L1435.92 1058.87C1446.66 1065.66 1446.66 1076.65 1435.92 1083.43L1362.15 1130C1351.41 1136.78 1333.99 1136.78 1323.25 1130L1151.1 1021.33ZM1328.18 884.989C1317.44 891.769 1317.44 902.763 1328.18 909.544L1500.33 1018.22C1511.08 1025 1528.49 1025 1539.23 1018.22L1613.01 971.646C1623.75 964.865 1623.75 953.871 1613.01 947.091L1440.85 838.419C1430.11 831.639 1412.7 831.639 1401.95 838.419L1328.18 884.989ZM1505.26 797.76C1494.52 790.98 1494.52 779.986 1505.26 773.206L1579.04 726.636C1589.78 719.856 1607.19 719.856 1617.93 726.636L1790.09 835.308C1800.83 842.088 1800.83 853.082 1790.09 859.862L1716.31 906.432C1705.57 913.213 1688.16 913.213 1677.42 906.432L1505.26 797.76ZM324.718 698.683C313.977 705.464 313.977 716.457 324.718 723.238L496.87 831.909C507.612 838.69 525.027 838.69 535.768 831.909L609.542 785.34C620.283 778.559 620.283 767.566 609.542 760.785L437.389 652.114C426.648 645.333 409.233 645.333 398.491 652.114L324.718 698.683ZM501.8 611.454C491.058 604.674 491.058 593.68 501.8 586.9L575.573 540.33C586.315 533.549 603.73 533.549 614.471 540.33L786.623 649.002C797.365 655.782 797.365 666.776 786.623 673.556L712.85 720.126C702.109 726.906 684.693 726.906 673.952 720.126L501.8 611.454ZM678.882 475.116C668.14 481.896 668.14 492.89 678.882 499.67L851.034 608.342C861.775 615.123 879.191 615.123 889.932 608.342L963.705 561.773C974.447 554.992 974.446 543.998 963.705 537.218L791.553 428.546C780.812 421.766 763.396 421.766 752.655 428.546L678.882 475.116ZM649.368 928.174C638.627 921.394 638.627 910.4 649.368 903.62L723.141 857.05C733.883 850.27 751.298 850.27 762.04 857.05L934.191 965.722C944.933 972.502 944.933 983.496 934.191 990.276L860.418 1036.85C849.677 1043.63 832.261 1043.63 821.52 1036.85L649.368 928.174ZM1003.53 680.053C992.79 686.833 992.79 697.827 1003.53 704.607L1175.68 813.279C1186.43 820.059 1203.84 820.06 1214.58 813.279L1288.35 766.709C1299.1 759.929 1299.1 748.935 1288.35 742.155L1116.2 633.483C1105.46 626.703 1088.05 626.703 1077.3 633.483L1003.53 680.053Z" fill="url(#paint0_radial)"/>
<defs>
<radialGradient id="paint0_radial" cx="0" cy="0" r="1" gradientUnits="userSpaceOnUse" gradientTransform="translate(1166 747.5) rotate(-150.377) scale(1341.31 1325.35)">
<stop stop-color="#C8F8A2"/>
<stop offset="0.133482" stop-color="#47B936"/>
<stop offset="0.285219" stop-color="#386132"/>
<stop offset="0.445745" stop-color="#323731"/>
<stop offset="1" stop-color="#313330"/>
</radialGradient>
</defs>
</svg>
