<svg width="2252" height="1442" viewBox="0 0 2252 1442" fill="none" xmlns="http://www.w3.org/2000/svg">
<style type="text/css" >
    <![CDATA[
        @keyframes t1 {
            from { transform: translate(0, 0) rotate(0deg); }
            to { transform: translate(5%, 30%) rotate(60deg); }
        }

        @keyframes t2 {
            from { transform: translate(0, 0) rotate(0deg); }
            to { transform: translate(5%, -20%) rotate(-180deg); }
        }

        @keyframes t3 {
            from { transform: translate(0, 0) rotate(0deg); }
            to { transform: translate(20%, -20%) rotate(40deg); }
        }

        @keyframes t4 {
            from { transform: translate(0, 0) rotate(0deg); }
            to { transform: translate(20%, 5%) rotate(20deg); }
        }

        @keyframes t5 {
            from { transform: translate(0, 0) rotate(0deg); }
            to { transform: translate(0, 0) rotate(360deg); }
        }

        @keyframes t6 {
            from { transform: translate(0, 0) rotate(0deg); }
            to { transform: translate(2%, 10%) rotate(-35deg); }
        }

        @keyframes t7 {
            from { transform: translate(0, 0) rotate(0deg); }
            to { transform: translate(-5%, 20%) rotate(80deg); }
        }

        @keyframes t8 {
            from { transform: rotate(0deg); }
            to { transform: rotate(360deg); }
        }

        @keyframes t9 {
            from { transform: translate(0, 0) rotate(0deg); }
            to { transform: translate(20%, 40%) rotate(-140deg); }
        }

        path {
            fill: #000;
            transform-origin: 50%;
        }

        #t1 {
            animation: t1 60s cubic-bezier(0.1, 0, 0.9, 1) infinite alternate both;
            transform-origin: 15% 7%;
        }

        #t2 {
            animation: t2 66s cubic-bezier(0.1, 0, 0.9, 1) infinite alternate both;
            transform-origin: 40% 7%;
        }

        #t3 {
            animation: t3 62s cubic-bezier(0.1, 0, 0.9, 1) infinite alternate both;
            transform-origin: 75% 15%;
        }

        #t4 {
            animation: t4 64s cubic-bezier(0.1, 0, 0.9, 1) infinite alternate both;
            transform-origin: 15% 32%;
        }

        #t5 {
            animation: t5 60s ease-in-out infinite;
            transform-origin: 37% 35%;
        }

        #t6 {
            animation: t6 66s cubic-bezier(0.1, 0, 0.9, 1) infinite alternate both;
            transform-origin: 45% 60%;
        }

        #t7 {
            animation: t7 16s linear infinite alternate both;
            transform-origin: 60% 60%;
        }

        #t8 {
            animation: t5 120s cubic-bezier(0.1, 0, 0.9, 1) infinite;
            transform-origin: 85% 60%;
        }

        #t9 {
            animation: t9 125s linear 1 alternate both;
            transform-origin: 75% 80%;
        }
    ]]>
</style>
<g opacity="0.1">
<path id="t1" d="M199.714 235.371L319.573 251.194C329.385 252.49 339.33 250.101 347.484 244.49L418.131 195.874C426.995 189.774 421.293 175.897 410.701 177.792L199.262 215.614C188.018 217.625 188.39 233.876 199.714 235.371Z" fill="black"/>
<path id="t2" d="M1011.05 374.674L761.034 405.05C752.306 406.11 746.556 396.201 751.808 389.15L898.327 192.424C902.536 186.773 911.115 187.131 914.837 193.115L1018.33 359.465C1022.2 365.673 1018.31 373.792 1011.05 374.674Z" fill="black"/>
<path id="t3" d="M1588.35 374.62L1430.97 302.889C1422.37 298.967 1423.51 286.398 1432.68 284.092L1853.05 178.365C1863.65 175.702 1870.23 189.521 1861.49 196.068L1628.92 370.239C1617.21 379.005 1601.66 380.685 1588.35 374.62Z" fill="black"/>
<path id="t4" d="M425.815 727.524L63.9756 474.6C54.3581 467.878 62.181 452.948 73.1826 457.029L374.644 568.854C385.86 573.015 394.626 581.977 398.536 593.283L440.995 716.059C444.162 725.217 433.757 733.075 425.815 727.524Z" fill="black"/>
<path id="t5" d="M818.257 526.968L814.035 505.666C812.316 496.989 821.88 490.516 829.296 495.338L863.305 517.452C871.392 522.71 868.081 535.24 858.453 535.817L831.788 537.417C825.299 537.806 819.521 533.344 818.257 526.968Z" fill="black"/>
<path id="t6" d="M623.051 723.198L1017.39 650.78C1028.18 648.799 1033.83 663.119 1024.6 669.035L238.111 1172.92C228.346 1179.18 217.545 1166.58 225.218 1157.89L594.592 739.294C602.006 730.891 612.029 725.222 623.051 723.198Z" fill="black"/>
<path id="t7" d="M1154.45 833.472L1219.6 980.177C1222.58 986.886 1231.53 988.205 1236.32 982.64L1308.64 898.586C1312.98 893.536 1311.26 885.728 1305.2 882.965L1167.74 820.314C1159.37 816.497 1150.72 825.061 1154.45 833.472Z" fill="black"/>
<path id="t8" d="M2191.34 961.839L1700.28 952.009C1691.21 951.827 1687.05 940.649 1693.78 934.581L1890.56 757.299C1897.36 751.179 1907.43 750.445 1915.04 755.516L2197.09 943.52C2205.41 949.066 2201.34 962.039 2191.34 961.839Z" fill="black"/>
<path id="t9" d="M1740.07 1412.46L1378.4 1117.33C1370.95 1111.25 1375.53 1099.19 1385.14 1099.59L1593.81 1108.39C1604.76 1108.86 1614.59 1115.25 1619.44 1125.08L1755.36 1400.29C1760.12 1409.92 1748.4 1419.26 1740.07 1412.46Z" fill="black"/>
</g>
</svg>
