<?xml version="1.0" encoding="utf-8"?>
<!-- Generator: Adobe Illustrator 19.1.0, SVG Export Plug-In . SVG Version: 6.00 Build 0)  -->
<svg version="1.1" id="Layer_1" xmlns="http://www.w3.org/2000/svg" xmlns:xlink="http://www.w3.org/1999/xlink" x="0px" y="0px"
	 viewBox="0 0 18 36" style="enable-background:new 0 0 18 36;" xml:space="preserve">
<style type="text/css">
	.st0{fill:#FFFFFF;}
	.st1{opacity:0.17;fill:url(#SVGID_3_);}
	.st2{fill:none;stroke:#000000;stroke-width:2;stroke-miterlimit:10;}
	.st3{fill:none;}
	.st4{fill:none;stroke:#FFFFFF;stroke-width:3;stroke-miterlimit:10;}
	.st5{fill:url(#SVGID_4_);}
	.st6{fill:url(#SVGID_5_);}
	.st7{fill:url(#SVGID_6_);}
	.st8{fill:url(#SVGID_7_);}
	.st9{fill:url(#SVGID_8_);}
	.st10{fill:#102220;}
	.st11{fill:url(#SVGID_9_);}
	.st12{fill:url(#SVGID_10_);}
	.st13{fill:url(#SVGID_11_);}
	.st14{fill:url(#SVGID_12_);}
	.st15{fill:#35D80E;}
	.st16{fill:url(#SVGID_13_);}
	.st17{fill:url(#SVGID_14_);}
	.st18{fill:url(#SVGID_15_);}
	.st19{fill:url(#SVGID_16_);}
	.st20{fill:url(#SVGID_17_);}
	.st21{fill:url(#SVGID_18_);}
	.st22{fill:url(#SVGID_19_);}
	.st23{fill:url(#SVGID_20_);}
	.st24{fill:url(#SVGID_21_);}
	.st25{fill:url(#SVGID_22_);}
	.st26{fill:url(#SVGID_23_);}
	.st27{fill:url(#SVGID_24_);}
	.st28{fill:#5D5D5D;}
	.st29{fill:#F1EFB9;}
	.st30{opacity:0.1;}
	.st31{fill:none;stroke:#CCCCCC;stroke-miterlimit:10;}
	.st32{fill:url(#SVGID_33_);}
	.st33{fill:url(#SVGID_34_);}
	.st34{fill:url(#SVGID_35_);}
	.st35{fill:url(#SVGID_36_);}
	.st36{fill:url(#SVGID_37_);}
	.st37{fill:#2E8915;}
</style>
<g>
	<path class="st15" d="M13.1,6.1c-1.8,0-2.6,1-3.1,1.7v0h0c0,0,0,0,0,0V6.3H6.5c0,1,0,10.3,0,10.3H10v-5.8c0-0.3,0-0.6,0.1-0.8
		c0.2-0.6,0.8-1.3,1.8-1.3c1.2,0,1.7,0.9,1.7,2.3v5.5H17v-5.9C17,7.6,15.3,6.1,13.1,6.1z"/>
	<path class="st15" d="M2.9,1.4C1.8,1.4,1,2.1,1,3.1c0,1,0.7,1.8,1.9,1.8h0c1.2,0,1.9-0.8,1.9-1.8C4.8,2.1,4.1,1.4,2.9,1.4z"/>
	<rect x="1.2" y="6.3" class="st15" width="3.4" height="10.3"/>
</g>
<g>
	<path class="st37" d="M13.1,23.7c-1.8,0-2.6,1-3.1,1.7v0h0c0,0,0,0,0,0V24H6.5c0,1,0,10.3,0,10.3H10v-5.8c0-0.3,0-0.6,0.1-0.8
		c0.2-0.6,0.8-1.3,1.8-1.3c1.2,0,1.7,0.9,1.7,2.3v5.5H17v-5.9C17,25.2,15.3,23.7,13.1,23.7z"/>
	<path class="st37" d="M2.9,19C1.8,19,1,19.8,1,20.8c0,1,0.7,1.8,1.9,1.8h0c1.2,0,1.9-0.8,1.9-1.8C4.8,19.8,4.1,19,2.9,19z"/>
	<rect x="1.2" y="24" class="st37" width="3.4" height="10.3"/>
</g>
</svg>
