<?xml version="1.0" encoding="utf-8"?>
<svg version="1.1" id="Layer_1" xmlns="http://www.w3.org/2000/svg" xmlns:xlink="http://www.w3.org/1999/xlink" x="0px" y="0px"
	 viewBox="0 0 18 18" style="enable-background:new 0 0 18 18;" xml:space="preserve">
<style type="text/css">
	.st0{fill:#35D80E;}
</style>
<g>
	<path class="st0" d="M13.6,5.7c-2,0-2.9,1.1-3.5,1.9l0,0l0,0l0,0V6H6.2c0,1.1,0,11.6,0,11.6h3.9V11c0-0.3,0-0.7,0.1-0.9
		c0.2-0.7,0.9-1.5,2-1.5c1.3,0,1.9,1,1.9,2.6v6.2H18v-6.6C18,7.4,16.1,5.7,13.6,5.7z"/>
	<path class="st0" d="M2.1,0.4C0.9,0.4,0,1.2,0,2.4s0.8,2,2.1,2l0,0c1.4,0,2.1-0.9,2.1-2S3.5,0.4,2.1,0.4z"/>
	<rect x="0.2" y="6" class="st0" width="3.8" height="11.6"/>
</g>
</svg>
