<?xml version="1.0" encoding="utf-8"?>
<!-- Generator: Adobe Illustrator 19.1.0, SVG Export Plug-In . SVG Version: 6.00 Build 0)  -->
<svg version="1.1" id="Layer_1" xmlns="http://www.w3.org/2000/svg" xmlns:xlink="http://www.w3.org/1999/xlink" x="0px" y="0px"
	 viewBox="0 0 86 16" style="enable-background:new 0 0 86 16;" xml:space="preserve">
<style type="text/css">
	.st0{fill:#FFFFFF;}
	.st1{opacity:0.17;fill:url(#SVGID_3_);}
	.st2{fill:none;stroke:#000000;stroke-width:2;stroke-miterlimit:10;}
	.st3{fill:none;}
	.st4{fill:none;stroke:#FFFFFF;stroke-width:3;stroke-miterlimit:10;}
	.st5{fill:url(#SVGID_4_);}
	.st6{fill:url(#SVGID_5_);}
	.st7{fill:url(#SVGID_6_);}
	.st8{fill:url(#SVGID_7_);}
	.st9{fill:url(#SVGID_8_);}
	.st10{fill:#102220;}
	.st11{fill:url(#SVGID_9_);}
	.st12{fill:url(#SVGID_10_);}
	.st13{fill:url(#SVGID_11_);}
	.st14{fill:url(#SVGID_12_);}
	.st15{fill:#35D80E;}
	.st16{fill:url(#SVGID_13_);}
	.st17{fill:url(#SVGID_14_);}
	.st18{fill:url(#SVGID_15_);}
	.st19{fill:url(#SVGID_16_);}
	.st20{fill:url(#SVGID_17_);}
	.st21{fill:url(#SVGID_18_);}
	.st22{fill:url(#SVGID_19_);}
	.st23{fill:url(#SVGID_20_);}
	.st24{fill:url(#SVGID_21_);}
	.st25{fill:url(#SVGID_22_);}
	.st26{fill:url(#SVGID_23_);}
	.st27{fill:url(#SVGID_24_);}
	.st28{fill:#5D5D5D;}
	.st29{fill:#F1EFB9;}
	.st30{opacity:0.1;}
	.st31{fill:none;stroke:#CCCCCC;stroke-miterlimit:10;}
	.st32{fill:url(#SVGID_33_);}
	.st33{fill:url(#SVGID_34_);}
	.st34{fill:url(#SVGID_35_);}
	.st35{fill:url(#SVGID_36_);}
	.st36{fill:url(#SVGID_37_);}
	.st37{fill:#2E8915;}
</style>
<path class="st10" d="M2.1,13.5h0.8v-11H2.1l-1-1.1h5c3.5,0,4.6,1.9,4.6,3.2c0,1.5-0.9,2.6-2.5,3v0c2.4,0.3,3.7,1.7,3.7,3.4
	c0,2.2-1.7,3.6-4.5,3.6H1.1L2.1,13.5L2.1,13.5z M5.8,7.3c1.7,0,2.5-0.8,2.5-2.5c0-1.6-0.9-2.4-2.6-2.4H5v4.9H5.8L5.8,7.3z M6.7,13.5
	c2.1,0,2.8-1.3,2.8-2.5c0-1.3-0.7-2.6-3.2-2.6H5v5.1H6.7L6.7,13.5z"/>
<polygon class="st10" points="17.1,13.5 17.9,13.5 17.9,2.5 17.1,2.5 16.1,1.4 21.9,1.4 20.9,2.5 20.1,2.5 20.1,13.5 20.9,13.5 
	21.9,14.6 16.1,14.6 17.1,13.5 "/>
<path class="st10" d="M32.8,1.1C37.6,1.1,40,4.9,40,8c0,3.6-2.7,6.9-7.1,6.9c-4.8,0-7.1-3.8-7.1-6.9C25.7,4.9,28,1.1,32.8,1.1
	L32.8,1.1z M32.8,13.8c3,0,4.6-2.2,4.6-5.8c0-3.7-1.7-5.8-4.6-5.8c-2.9,0-4.6,2.2-4.6,5.8C28.3,11.9,30.2,13.8,32.8,13.8L32.8,13.8z
	"/>
<polygon class="st10" points="44.5,13.5 45.3,13.5 45.3,2.5 44.5,2.5 43.5,1.4 47.3,1.4 47.3,2.5 55.2,11.5 55.2,2.5 54.3,2.5 
	53.3,1.4 58.2,1.4 57.2,2.5 56.4,2.5 56.4,14.6 55.2,14.6 46.5,4.7 46.5,13.5 47.3,13.5 48.3,14.6 43.5,14.6 44.5,13.5 "/>
<path class="st10" d="M62.5,13.5h0.8v-11h-0.8l-1-1.1h5.9c4.4,0,7.3,2.7,7.3,6.8c0,3.6-2.4,6.4-6.6,6.4h-6.6L62.5,13.5L62.5,13.5z
	 M67.4,13.5c1.9,0,4.7-0.9,4.7-5.1c0-1.5-0.4-3.4-1.6-4.6c-0.8-0.8-2.2-1.3-4.1-1.3h-0.9v11H67.4L67.4,13.5z"/>
<polygon class="st10" points="79.6,13.5 80.4,13.5 80.4,2.5 79.6,2.5 78.6,1.4 84.4,1.4 83.4,2.5 82.5,2.5 82.5,13.5 83.4,13.5 
	84.4,14.6 78.6,14.6 79.6,13.5 "/>
</svg>
