<svg width="300" height="300" viewBox="0 0 300 300" fill="none" xmlns="http://www.w3.org/2000/svg">
<rect width="300" height="300" fill="black" fill-opacity="0"/>
<rect width="139" height="118" fill="black" fill-opacity="0" transform="translate(80 91)"/>
<rect width="139" height="118" fill="black" fill-opacity="0" transform="translate(80 91)"/>
<rect width="139" height="57.7994" fill="black" fill-opacity="0" transform="translate(80 91)"/>
<rect width="139" height="57.7994" fill="black" fill-opacity="0" transform="translate(80 91)"/>
<path d="M169.102 127.275L166.296 131.477C163.915 135.078 160.683 137.651 157.111 139.109C156.176 139.538 155.155 139.795 154.135 140.052C146.311 141.853 137.892 138.594 133.3 131.82L124.966 119.814L119.948 112.525L117.312 108.666C112.635 101.891 105.066 98.375 97.4972 99.4898C92.7349 100.176 88.3978 102.491 85.1663 106.093C78.2779 113.811 78.2779 125.988 85.1663 133.706C88.3978 137.308 92.7349 139.624 97.4972 140.31C103.875 141.253 110.338 138.852 114.931 134.049L110.083 127.103C107.362 130.791 102.94 132.763 98.6878 132.163C95.7964 131.734 93.2452 130.362 91.2892 128.132C89.2482 125.817 88.1427 122.815 88.1427 119.9C88.1427 116.984 89.1632 113.983 91.2892 111.667C93.2452 109.437 95.7964 108.065 98.6878 107.637C99.1981 107.551 99.7083 107.551 100.219 107.551C104.13 107.551 108.042 109.695 110.594 113.382L111.359 114.497L126.581 136.536C131.939 144.254 140.783 148.799 149.883 148.799C151.924 148.799 153.965 148.542 156.006 148.113C157.451 147.77 158.812 147.342 160.173 146.827C165.275 144.769 169.782 141.081 173.099 136.193L174.205 134.564L169.102 127.275Z" fill="url(#paint0_linear)"/>
<path d="M111.359 114.583L110.594 113.382C108.042 109.695 104.13 107.551 100.219 107.551C99.7083 107.551 99.1981 107.551 98.6878 107.637C95.7964 108.065 93.2452 109.438 91.2892 111.667C89.2482 113.983 88.1427 116.984 88.1427 119.9C88.1427 122.815 89.1632 125.817 91.2892 128.132C93.2452 130.362 95.7964 131.734 98.6878 132.163C102.94 132.763 107.362 130.791 110.083 127.103L114.931 134.049C110.424 138.766 103.875 141.167 97.4972 140.31C92.7349 139.624 88.3978 137.308 85.1663 133.706C78.2779 125.988 78.2779 113.811 85.1663 106.093C85.1663 106.093 96.902 93.6584 111.359 114.583Z" fill="url(#paint1_linear)"/>
<path d="M85.1663 133.706C88.3979 137.308 92.735 139.624 97.4973 140.31C103.875 141.253 110.339 138.852 114.931 134.049L110.083 127.103C107.362 130.791 102.94 132.763 98.6879 132.163C95.7965 131.734 93.2452 130.362 91.2893 128.132" fill="url(#paint2_linear)"/>
<path d="M174.119 134.478L169.102 127.189L166.296 131.391C163.915 134.993 160.683 137.565 157.111 139.023C156.176 139.452 155.155 139.709 154.135 139.967C146.311 141.767 137.892 138.509 133.3 131.734C133.3 131.82 148.267 156.517 174.119 134.478Z" fill="url(#paint3_linear)"/>
<path d="M129.898 112.525L132.704 108.323C135.086 104.721 138.317 102.148 141.889 100.69C142.824 100.262 143.845 100.004 144.865 99.7471C152.689 97.9462 161.108 101.205 165.7 107.98L174.034 119.985L179.052 127.275L181.688 131.134C186.365 137.908 193.934 141.424 201.503 140.31C206.265 139.624 210.602 137.308 213.834 133.706C220.722 125.988 220.722 113.811 213.834 106.093C210.602 102.491 206.265 100.176 201.503 99.4898C195.125 98.5465 188.662 100.948 184.069 105.75L188.917 112.696C191.638 109.009 196.06 107.036 200.312 107.637C203.204 108.065 205.755 109.437 207.711 111.667C209.752 113.983 210.857 116.984 210.857 119.9C210.857 122.901 209.837 125.817 207.711 128.132C205.755 130.362 203.204 131.734 200.312 132.163C199.802 132.249 199.292 132.249 198.781 132.249C194.87 132.249 190.958 130.105 188.406 126.417L187.641 125.302L172.419 103.263C167.061 95.4593 158.217 91 149.117 91C147.076 91 145.035 91.2573 142.994 91.686C141.549 92.0291 140.188 92.4578 138.827 92.9724C133.725 95.0305 129.218 98.718 125.901 103.692L124.796 105.321L129.898 112.525Z" fill="url(#paint4_linear)"/>
<path d="M187.641 125.217L188.406 126.331C190.958 130.019 194.87 132.163 198.781 132.163C199.292 132.163 199.802 132.163 200.312 132.077C203.204 131.648 205.755 130.276 207.711 128.047C209.752 125.731 210.857 122.73 210.857 119.814C210.857 116.812 209.837 113.897 207.711 111.581C205.755 109.352 203.204 107.98 200.312 107.551C196.06 106.951 191.638 108.923 188.917 112.61L184.069 105.664C188.576 100.948 195.125 98.5465 201.503 99.4041C206.265 100.09 210.602 102.406 213.834 106.007C220.722 113.725 220.722 125.903 213.834 133.621C213.834 133.706 202.013 146.055 187.641 125.217Z" fill="url(#paint5_linear)"/>
<path d="M213.834 106.093C210.602 102.491 206.265 100.176 201.503 99.4898C195.125 98.5465 188.662 100.948 184.069 105.75L188.917 112.696C191.638 109.009 196.06 107.036 200.312 107.637C203.204 108.065 205.755 109.438 207.711 111.667" fill="url(#paint6_linear)"/>
<path d="M124.881 105.235L129.898 112.525L132.704 108.323C135.086 104.721 138.317 102.148 141.889 100.69C142.824 100.262 143.845 100.004 144.865 99.7471C152.689 97.9463 161.108 101.205 165.7 107.98C165.7 107.98 150.733 83.282 124.881 105.235Z" fill="url(#paint7_linear)"/>
<rect width="128.923" height="43.6497" fill="black" fill-opacity="0" transform="translate(86.5269 165.35)"/>
<rect width="78.6632" height="43.6497" fill="black" fill-opacity="0" transform="translate(86.5269 165.35)"/>
<path d="M102.855 176.927C98.2626 176.927 94.1806 179.5 92.1396 181.987V166.122H86.5269V208.142H92.1396V186.36C93.7554 184.045 96.987 181.987 100.474 181.987C104.386 181.987 106.937 183.531 106.937 188.504V208.142H112.55V186.618C112.55 180.186 109.233 176.927 102.855 176.927Z" fill="white"/>
<path d="M130.408 176.927C125.561 176.927 121.394 178.557 117.992 181.901L120.458 185.846C123.18 183.102 126.071 181.815 129.558 181.815C133.895 181.815 136.956 184.131 136.956 187.904V192.964C134.66 190.219 131.174 188.933 127.092 188.933C121.989 188.933 116.547 191.935 116.547 198.881C116.547 205.57 122.074 209 127.092 209C131.174 209 134.575 207.542 136.956 204.884V208.228H142.569V187.647C142.569 179.843 136.956 176.927 130.408 176.927ZM136.871 201.453C135.171 203.683 132.279 204.884 129.133 204.884C125.051 204.884 122.159 202.397 122.159 198.795C122.159 195.193 125.051 192.706 129.133 192.706C132.279 192.706 135.171 193.907 136.871 196.137V201.453Z" fill="white"/>
<path d="M151.073 165.35C149.117 165.35 147.416 166.98 147.416 169.038C147.416 171.096 149.117 172.64 151.073 172.64C153.114 172.64 154.73 171.096 154.73 169.038C154.645 166.98 153.029 165.35 151.073 165.35ZM148.267 177.699V208.142H153.88V177.699H148.267Z" fill="white"/>
<path d="M159.577 166.122V208.142H165.19V166.122H159.577Z" fill="white"/>
<path d="M215.45 192.878C215.45 201.711 209.667 208.914 200.227 208.914C196.825 208.914 193.509 207.885 190.788 205.827C190.107 205.313 189.427 204.712 188.917 204.026C187.386 205.484 183.559 209.172 179.307 208.914C174.545 208.743 172.078 206.17 172.078 201.368V182.673H167.061V177.699H172.078V169.381H177.691V177.699H183.814V182.673H177.691V200.167C177.691 202.311 178.712 203.855 180.583 203.855C182.454 203.855 185.175 201.368 186.365 200.081L186.961 199.481C188.151 198.366 188.491 198.023 191.043 195.536C191.638 198.538 193.254 201.368 196.06 202.826C198.952 204.369 202.778 204.026 205.415 202.14C208.136 200.167 209.497 196.651 209.497 192.792C209.497 187.047 206.18 181.901 200.142 181.901C196.145 181.901 192.914 184.474 191.553 188.161C191.213 189.019 191.043 189.876 190.873 190.734C190.788 191.163 190.873 191.763 190.703 192.192C190.532 192.535 190.107 192.878 189.852 193.135C188.406 194.593 186.961 195.965 185.345 197.337C185.005 195.794 184.75 194.336 184.75 192.792C184.75 184.045 190.617 176.842 199.972 176.842C209.582 176.927 215.45 184.131 215.45 192.878Z" fill="white"/>
<path d="M186.365 200.167L186.961 199.567C188.151 198.452 188.236 198.366 191.043 195.622" fill="white"/>
<defs>
<linearGradient id="paint0_linear" x1="79.9782" y1="124.11" x2="174.071" y2="124.11" gradientUnits="userSpaceOnUse">
<stop stop-color="white"/>
<stop offset="1" stop-color="white" stop-opacity="0.43"/>
</linearGradient>
<linearGradient id="paint1_linear" x1="79.9919" y1="121.505" x2="114.881" y2="121.505" gradientUnits="userSpaceOnUse">
<stop stop-color="white"/>
<stop offset="1" stop-color="white" stop-opacity="0.43"/>
</linearGradient>
<linearGradient id="paint2_linear" x1="85.1594" y1="133.826" x2="114.889" y2="133.826" gradientUnits="userSpaceOnUse">
<stop stop-color="white"/>
<stop offset="1" stop-color="white" stop-opacity="0.43"/>
</linearGradient>
<linearGradient id="paint3_linear" x1="133.29" y1="135.43" x2="174.062" y2="135.43" gradientUnits="userSpaceOnUse">
<stop stop-color="white"/>
<stop offset="1" stop-color="white" stop-opacity="0.43"/>
</linearGradient>
<linearGradient id="paint4_linear" x1="124.774" y1="115.824" x2="218.867" y2="115.824" gradientUnits="userSpaceOnUse">
<stop stop-color="white"/>
<stop offset="1" stop-color="white" stop-opacity="0.43"/>
</linearGradient>
<linearGradient id="paint5_linear" x1="210.711" y1="110.239" x2="226.802" y2="144.157" gradientUnits="userSpaceOnUse">
<stop stop-color="white"/>
<stop offset="1" stop-color="white" stop-opacity="0.43"/>
</linearGradient>
<linearGradient id="paint6_linear" x1="184.062" y1="106.01" x2="213.792" y2="106.01" gradientUnits="userSpaceOnUse">
<stop stop-color="white"/>
<stop offset="1" stop-color="white" stop-opacity="0.43"/>
</linearGradient>
<linearGradient id="paint7_linear" x1="124.871" y1="104.356" x2="165.643" y2="104.356" gradientUnits="userSpaceOnUse">
<stop stop-color="white"/>
<stop offset="1" stop-color="white" stop-opacity="0.43"/>
</linearGradient>
</defs>
</svg>
