<?xml version="1.0" encoding="utf-8"?>
<!-- Generator: Adobe Illustrator 19.1.0, SVG Export Plug-In . SVG Version: 6.00 Build 0)  -->
<svg version="1.1" id="Layer_1" xmlns="http://www.w3.org/2000/svg" xmlns:xlink="http://www.w3.org/1999/xlink" x="0px" y="0px"
	 viewBox="0 0 42.9 61" style="enable-background:new 0 0 42.9 61;" xml:space="preserve">
<style type="text/css">
	.st0{fill:#FFFFFF;}
	.st1{opacity:0.17;fill:url(#SVGID_3_);}
	.st2{fill:none;stroke:#000000;stroke-width:2;stroke-miterlimit:10;}
	.st3{fill:none;}
	.st4{fill:none;stroke:#FFFFFF;stroke-width:3;stroke-miterlimit:10;}
	.st5{fill:url(#SVGID_4_);}
	.st6{fill:url(#SVGID_5_);}
	.st7{fill:url(#SVGID_6_);}
	.st8{fill:url(#SVGID_7_);}
	.st9{fill:url(#SVGID_8_);}
	.st10{fill:#102220;}
	.st11{fill:url(#SVGID_9_);}
	.st12{fill:url(#SVGID_10_);}
	.st13{fill:url(#SVGID_11_);}
	.st14{fill:url(#SVGID_12_);}
	.st15{fill:#35D80E;}
	.st16{fill:url(#SVGID_13_);}
	.st17{fill:url(#SVGID_14_);}
	.st18{fill:url(#SVGID_15_);}
	.st19{fill:url(#SVGID_16_);}
	.st20{fill:url(#SVGID_17_);}
	.st21{fill:url(#SVGID_18_);}
	.st22{fill:url(#SVGID_19_);}
	.st23{fill:url(#SVGID_20_);}
	.st24{fill:url(#SVGID_21_);}
	.st25{fill:url(#SVGID_22_);}
	.st26{fill:url(#SVGID_23_);}
	.st27{fill:url(#SVGID_24_);}
	.st28{fill:#5D5D5D;}
	.st29{fill:#F1EFB9;}
	.st30{opacity:0.1;}
	.st31{fill:none;stroke:#CCCCCC;stroke-miterlimit:10;}
	.st32{fill:url(#SVGID_33_);}
	.st33{fill:url(#SVGID_34_);}
	.st34{fill:url(#SVGID_35_);}
	.st35{fill:url(#SVGID_36_);}
	.st36{fill:url(#SVGID_37_);}
	.st37{fill:#2E8915;}
</style>
<path d="M20,18.9c4.1-1.1,8.2-2.6,11.9-4.6c1.7-0.9,3.5-2.2,4.2-4.1c0.4-1.2,0.3-2.5-0.5-3.5c-1.2-1.5-3.3-1.8-5.1-2.1
	c-1.6-0.2-3.3-0.4-4.9-0.5c-0.2,0-0.4,0-0.5,0c-0.1-1-0.7-1.9-1.6-2.5c-1.2-0.8-2.9-0.7-4.3-0.5c-4.1,0.5-7.9,2.7-11.1,5.1
	C6.4,7.6,4.8,9,3.3,10.6c-1.1,1.2-2.4,2.7-2.7,4.4c-0.5,3.3,3.8,4.6,6.4,5C11.3,20.7,15.8,20,20,18.9z M32.4,8.9c0,0.1,0,0.2,0,0.3
	C32.4,9.1,32.4,9,32.4,8.9C32.4,9,32.4,9,32.4,8.9C32.4,9,32.4,8.9,32.4,8.9z M4.4,15.5L4.4,15.5C4.4,15.5,4.4,15.4,4.4,15.5
	C4.4,15.4,4.4,15.5,4.4,15.5z M4.3,15.3c0,0,0,0.1,0,0.1C4.3,15.4,4.3,15.4,4.3,15.3C4.3,15.3,4.4,15.4,4.3,15.3z M4.4,15.6
	c0.2-0.3,0.7-0.7,0.8-0.9c0.4-0.4,0.9-0.8,1.3-1.2c0.9-0.8,1.9-1.5,2.9-2.1c2-1.2,4.1-2.3,6.3-2.9c1-0.3,1.9-0.5,2.9-0.5
	c0.9,0,1.7,0.2,2.6,0.3c0.5,0,1,0,1.5-0.2c0.2,0.6,0.7,1.2,1.4,1.5c1.1,0.6,2.4,0.2,3.5,0.1c0.8-0.1,1.7-0.2,2.5-0.2
	c0.4,0,0.9,0,1.3,0c0.2,0,0.6,0.1,0.8,0.1c-0.2,0.3-0.5,0.7-0.6,0.8c-0.4,0.4-0.8,0.8-1.2,1.2c-0.9,0.7-1.9,1.3-2.9,1.9
	c-3.4,1.7-7.4,2.6-11.1,3.3c-2.2,0.4-4.5,0.6-6.7,0.5c-1.1-0.1-2.2-0.2-3.2-0.5C6.1,16.4,4.9,16.1,4.4,15.6z"/>
<path d="M40.7,31.3c0-0.8-0.8-1.4-1.6-1.1c-0.7,0.2-0.8,0.8-0.9,1.4c-0.3,1.6-1,3.2-1.9,4.6c-2,3-5,5.2-8.4,6.4
	c-2.6,0.9-5.3,1.3-8,1.3c-3.2,0-6.7-0.5-9.3-2.6C10,40.8,9.4,40.2,9,39.6c-0.3-0.4-0.5-0.9-0.8-1.2c-0.3-0.4-1.1-0.5-1.3,0.1
	C6.8,38.8,7,39.6,7.1,40c0.6,3.1,2.8,5.4,5.6,6.8c3.1,1.5,6.7,1.7,10.1,1.4c2.6-0.3,5.2-0.9,7.6-1.9C36.2,43.6,40.9,37.9,40.7,31.3z
	"/>
<path d="M12.2,23.8c-1.4,1.3-0.4,2.9,0.3,4.3c0.4,0.9,0.8,1.8,1.1,2.7c0.3,0.7,0.4,1.7,0.8,2.4c0.4,0.7,1.4,0.9,2,0.3
	c0.6-0.6,0.2-1.5,0.1-2.2c-0.2-1.8-0.4-3.7-0.3-5.5C16.4,23.6,13.7,22.3,12.2,23.8z"/>
<path d="M26.4,21.1c-1.1,1.5,0.2,3.2,0.8,4.6c0.4,0.9,0.7,1.9,1,2.9c0.2,0.6,0.2,1.5,0.7,2c0.6,0.6,1.7,0.5,2.2-0.3
	c0.4-0.6,0-1.5-0.1-2.1c-0.3-1.8-0.5-3.6-0.4-5.4C30.8,20.4,27.7,19.3,26.4,21.1z"/>
<path d="M26.2,50.6C26.2,50.7,26.2,50.7,26.2,50.6C26.2,50.7,26.2,50.7,26.2,50.6z"/>
<path d="M30.4,52.2c-0.2-0.9-0.3-1.9-0.7-2.8c-0.2-0.5-0.7-0.4-0.6,0.1c0,0.4,0.2,0.9,0.3,1.4c0.3,1.5,0.6,3,0.9,4.5
	c-0.5,1.2-0.9,2.4-1.4,3.7c-0.4-0.5-0.7-1-1.1-1.5c-1-2.3-1.3-5-1.8-7.4c-0.2-0.9-1.5-1.1-1.9-0.2c-0.2,0.5,0,1,0.1,1.4
	c0.2,0.6,0.3,1.3,0.5,1.9c0.5,1.7,0.8,3.5,1.7,5c0.4,0.7,1.1,1.3,1.6,1.9c0.2,0.2,0.4,0.6,0.7,0.7c0.9,0.3,1.2-1.9,1.4-2.5
	c0.2-0.6,0.4-1.1,0.5-1.7c0.1-0.4,0.4-1,0.4-1.4c0-0.3-0.2-0.7-0.2-1C30.8,53.7,30.6,53,30.4,52.2z"/>
<path d="M26.1,50.6C26.1,50.6,26.2,50.6,26.1,50.6C26.2,50.6,26.1,50.6,26.1,50.6z"/>
<path d="M26.2,50.7C26.2,50.8,26.2,50.8,26.2,50.7L26.2,50.7z"/>
<path d="M26.1,50.2c0,0,0,0.1,0,0.2C26.1,50.3,26.1,50.3,26.1,50.2z"/>
<path d="M26.1,50.5C26.1,50.5,26.1,50.5,26.1,50.5C26.1,50.5,26.1,50.5,26.1,50.5z"/>
<path d="M26.1,50.4C26.1,50.4,26.1,50.4,26.1,50.4C26.1,50.4,26.1,50.4,26.1,50.4z"/>
<path d="M26.1,50.2C26.1,50.2,26.1,50.2,26.1,50.2C26.1,50.2,26.1,50.2,26.1,50.2z"/>
</svg>
