<svg width="300" height="300" viewBox="0 0 300 300" fill="none" xmlns="http://www.w3.org/2000/svg">
<path d="M19.778 19.048L29.326 50.42L39.804 17.002C40.3413 15.266 41.2713 14.398 42.594 14.398H42.904C43.3173 14.398 43.8547 14.46 44.516 14.584C45.3427 14.7907 45.88 14.894 46.128 14.894C46.7893 14.9767 47.6987 15.018 48.856 15.018C50.096 15.018 51.0673 14.956 51.77 14.832L53.94 14.46C54.064 14.4187 54.312 14.398 54.684 14.398C56.5853 14.398 57.536 15.1213 57.536 16.568C57.536 17.8907 56.8747 18.552 55.552 18.552C55.2213 18.552 54.7253 18.5107 54.064 18.428C53.444 18.304 52.9687 18.242 52.638 18.242C50.53 18.242 49.476 19.792 49.476 22.892V27.232L49.414 32.688V37.958L49.476 47.754C49.476 50.854 50.5093 52.404 52.576 52.404C52.9893 52.404 53.444 52.342 53.94 52.218C54.8493 52.1353 55.3867 52.094 55.552 52.094C56.8747 52.094 57.536 52.7553 57.536 54.078C57.536 55.566 56.6473 56.31 54.87 56.31C54.9527 56.31 54.6427 56.2687 53.94 56.186C51.088 55.8553 48.67 55.69 46.686 55.69C44.7433 55.69 42.8833 55.8347 41.106 56.124C40.362 56.248 39.7007 56.31 39.122 56.31C37.51 56.31 36.704 55.628 36.704 54.264C36.704 52.8587 37.5307 52.156 39.184 52.156C39.5973 52.156 39.9073 52.1767 40.114 52.218C41.0233 52.3007 41.5607 52.342 41.726 52.342C43.214 52.342 44.144 50.792 44.516 47.692C44.5987 47.0307 44.64 44.9227 44.64 41.368C44.64 40.004 44.6607 38.02 44.702 35.416L44.826 29.836V18.862C44.826 18.614 44.7227 18.49 44.516 18.49C44.392 18.49 44.268 18.614 44.144 18.862L32.736 54.264C32.24 55.8347 31.0827 56.62 29.264 56.62C28.1893 56.62 27.3833 56.4547 26.846 56.124C26.35 55.8347 25.9573 55.2147 25.668 54.264L14.446 18.862C14.322 18.614 14.1773 18.49 14.012 18.49C13.8467 18.49 13.764 18.614 13.764 18.862L14.136 47.692C14.1773 50.7093 15.004 52.218 16.616 52.218C17.0707 52.218 17.6907 52.1353 18.476 51.97H19.22C20.832 51.97 21.638 52.6933 21.638 54.14C21.638 55.5867 20.8113 56.31 19.158 56.31C18.8687 56.31 18.4347 56.2687 17.856 56.186C16.9467 56.062 15.9753 55.9173 14.942 55.752C14.1153 55.628 13.0613 55.566 11.78 55.566C9.50667 55.566 8.03933 55.628 7.378 55.752L4.774 56.248C4.69133 56.248 4.56733 56.2687 4.402 56.31C4.23667 56.31 4.11267 56.31 4.03 56.31C2.12867 56.31 1.178 55.5867 1.178 54.14C1.178 53.5613 1.364 53.086 1.736 52.714C2.108 52.3007 2.56267 52.094 3.1 52.094C3.55467 52.094 4.092 52.156 4.712 52.28C5.332 52.404 5.78667 52.466 6.076 52.466C8.184 52.466 9.238 50.916 9.238 47.816V22.892C9.238 19.792 8.184 18.242 6.076 18.242C5.74533 18.242 5.24933 18.304 4.588 18.428C3.92667 18.5107 3.43067 18.552 3.1 18.552C1.81867 18.552 1.178 17.8907 1.178 16.568C1.178 15.1213 2.108 14.398 3.968 14.398C4.13333 14.398 4.402 14.4187 4.774 14.46L6.944 14.708C8.01867 14.832 9.03133 14.894 9.982 14.894C10.7673 14.894 11.8213 14.8113 13.144 14.646C14.508 14.4807 15.5 14.398 16.12 14.398C17.732 14.398 18.8067 15.4107 19.344 17.436L19.778 19.048ZM87.8085 56.806C84.4191 56.806 82.3318 55.3387 81.5465 52.404C79.4385 55.504 76.1318 57.054 71.6265 57.054C68.2785 57.054 65.5918 56.2273 63.5665 54.574C61.5825 52.9207 60.5905 50.7093 60.5905 47.94C60.5905 44.5093 62.0578 41.988 64.9925 40.376C66.1085 39.756 67.0591 39.3633 67.8445 39.198C68.6711 38.9913 70.3038 38.7433 72.7425 38.454C76.2145 38.082 78.4671 37.5653 79.5005 36.904C80.5751 36.2427 81.1125 35.0233 81.1125 33.246C81.1125 31.5513 80.5131 30.2287 79.3145 29.278C78.1571 28.286 76.5245 27.79 74.4165 27.79C72.5565 27.79 70.8205 28.3067 69.2085 29.34C68.5885 29.7533 68.2785 30.1873 68.2785 30.642C68.2785 30.8073 68.4645 31.014 68.8365 31.262C69.4151 31.6753 69.7045 32.378 69.7045 33.37C69.7045 34.1967 69.3945 34.8787 68.7745 35.416C68.1958 35.9533 67.4518 36.222 66.5425 36.222C65.4678 36.222 64.5585 35.85 63.8145 35.106C63.1118 34.362 62.7605 33.4527 62.7605 32.378C62.7605 30.0633 63.8971 28.0793 66.1705 26.426C68.4851 24.7727 71.2751 23.946 74.5405 23.946C82.0631 23.946 85.8245 27.5627 85.8245 34.796V47.32C85.8245 49.304 85.8658 50.482 85.9485 50.854C86.1965 52.3007 86.8991 53.024 88.0565 53.024C89.5031 53.024 90.2265 51.7013 90.2265 49.056V46.018C90.2265 44.6953 90.8671 44.034 92.1485 44.034C93.5125 44.034 94.1945 45.026 94.1945 47.01V47.32L94.1325 50.854C94.0498 54.822 91.9418 56.806 87.8085 56.806ZM80.9265 44.468L80.9885 40.066C80.0791 40.8927 79.1078 41.4713 78.0745 41.802C77.0825 42.1327 75.2845 42.422 72.6805 42.67C67.9685 43.1247 65.6125 44.8607 65.6125 47.878C65.6125 49.4487 66.1705 50.6887 67.2865 51.598C68.4438 52.5073 69.9938 52.962 71.9365 52.962C74.7058 52.962 76.8758 52.218 78.4465 50.73C80.0585 49.2007 80.8851 47.1133 80.9265 44.468ZM101.725 49.8L110.343 39.942L101.725 29.774C101.146 29.1127 100.443 28.782 99.6166 28.782C99.2859 28.782 99.0379 28.8027 98.8726 28.844L97.8186 29.092C97.6532 29.1333 97.3639 29.154 96.9506 29.154C95.5866 29.154 94.9046 28.4927 94.9046 27.17C94.9046 25.7647 95.7519 25.062 97.4466 25.062H97.6326C97.6739 25.062 98.7072 25.1447 100.733 25.31C101.766 25.3927 102.634 25.434 103.337 25.434C104.039 25.434 105.052 25.372 106.375 25.248C107.697 25.124 108.689 25.062 109.351 25.062C111.045 25.062 111.893 25.7647 111.893 27.17C111.893 28.4927 111.107 29.154 109.537 29.154C109.206 29.154 108.896 29.1127 108.607 29.03L107.677 28.782H107.305C107.139 28.782 107.057 28.8233 107.057 28.906C107.139 29.154 107.325 29.4433 107.615 29.774L113.257 36.594L119.147 29.774C119.519 29.3607 119.705 29.0713 119.705 28.906C119.663 28.8233 119.56 28.782 119.395 28.782C119.188 28.782 118.837 28.844 118.341 28.968C117.886 29.092 117.535 29.154 117.287 29.154C115.799 29.154 115.055 28.4513 115.055 27.046C115.055 25.682 115.923 25 117.659 25C117.576 25 118.671 25.1033 120.945 25.31C121.854 25.3927 122.825 25.434 123.859 25.434C124.892 25.434 125.987 25.372 127.145 25.248C128.302 25.124 129.129 25.062 129.625 25.062C131.443 25.062 132.353 25.7647 132.353 27.17C132.353 28.534 131.65 29.216 130.245 29.216C129.914 29.216 129.439 29.1333 128.819 28.968C128.199 28.8027 127.723 28.72 127.393 28.72C126.401 28.72 125.037 29.712 123.301 31.696L116.109 39.88L125.781 51.288C126.359 51.9907 127.062 52.342 127.889 52.342C128.137 52.342 128.509 52.3007 129.005 52.218C129.542 52.1353 129.935 52.094 130.183 52.094C131.671 52.094 132.415 52.7553 132.415 54.078C132.415 55.5247 131.547 56.248 129.811 56.248H129.315L126.897 55.938C126.235 55.8553 125.243 55.814 123.921 55.814C122.805 55.814 121.689 55.876 120.573 56L118.341 56.248H117.659C115.716 56.248 114.745 55.5867 114.745 54.264C114.745 52.8173 115.509 52.094 117.039 52.094C117.576 52.094 118.341 52.1767 119.333 52.342C119.415 52.3833 119.56 52.404 119.767 52.404C120.18 52.404 120.387 52.2387 120.387 51.908C120.387 51.784 120.325 51.66 120.201 51.536L120.015 51.288L113.133 43.228L106.127 51.288C105.837 51.6187 105.693 51.8667 105.693 52.032C105.693 52.2387 105.899 52.342 106.313 52.342C106.602 52.342 107.036 52.3007 107.615 52.218C108.193 52.1353 108.627 52.094 108.917 52.094C110.694 52.094 111.583 52.8173 111.583 54.264C111.583 55.5867 110.694 56.248 108.917 56.248H108.049L105.569 56C104.329 55.876 103.233 55.814 102.283 55.814C101.539 55.814 100.65 55.876 99.6166 56C98.2112 56.1653 97.1779 56.248 96.5166 56.248C94.7806 56.248 93.9126 55.5453 93.9126 54.14C93.9126 52.776 94.6566 52.094 96.1446 52.094C96.3926 52.094 96.7646 52.1353 97.2606 52.218C97.7566 52.2593 98.1286 52.28 98.3766 52.28C99.1619 52.28 100.278 51.4533 101.725 49.8ZM141.883 21.404C141.883 20.7427 141.49 20.3913 140.705 20.35L139.465 20.288C138.638 20.2467 137.894 19.8747 137.233 19.172C136.613 18.428 136.303 17.56 136.303 16.568C136.303 15.4107 136.716 14.4393 137.543 13.654C138.37 12.8687 139.403 12.476 140.643 12.476C142.048 12.476 143.206 13.0547 144.115 14.212C145.066 15.328 145.541 16.7747 145.541 18.552C145.541 21.9827 144.26 25.372 141.697 28.72C140.705 30.0013 139.878 30.642 139.217 30.642C138.39 30.642 137.977 30.2287 137.977 29.402C137.977 29.1127 138.225 28.658 138.721 28.038C139.506 27.0047 140.23 25.806 140.891 24.442C141.552 23.078 141.883 22.0653 141.883 21.404ZM164.566 23.946C167.336 23.946 169.65 24.6693 171.51 26.116V25.868C171.51 24.3387 172.172 23.574 173.494 23.574C174.858 23.574 175.54 24.2353 175.54 25.558C175.54 25.806 175.499 26.426 175.416 27.418C175.251 28.2447 175.168 29.0713 175.168 29.898C175.168 30.394 175.23 31.1173 175.354 32.068C175.52 33.0187 175.602 33.742 175.602 34.238C175.602 35.8087 174.92 36.594 173.556 36.594C172.234 36.594 171.552 35.9327 171.51 34.61L171.448 32.564C171.407 31.324 170.684 30.27 169.278 29.402C167.914 28.4927 166.302 28.038 164.442 28.038C162.541 28.038 160.95 28.534 159.668 29.526C158.387 30.4767 157.746 31.6753 157.746 33.122C157.746 35.7673 159.565 37.338 163.202 37.834L166.798 38.33C173.825 39.2807 177.338 42.1947 177.338 47.072C177.338 50.048 176.202 52.466 173.928 54.326C171.655 56.1447 168.679 57.054 165 57.054C161.57 57.054 158.594 56.0827 156.072 54.14C156.114 54.5533 156.134 54.946 156.134 55.318C156.134 56.806 155.432 57.55 154.026 57.55C152.497 57.55 151.732 56.7027 151.732 55.008C151.732 55.2973 151.856 54.2227 152.104 51.784C152.187 51.2053 152.228 50.6267 152.228 50.048C152.228 49.056 152.146 48.126 151.98 47.258C151.815 46.39 151.732 45.708 151.732 45.212C151.732 43.7653 152.394 43.042 153.716 43.042C154.584 43.042 155.122 43.2487 155.328 43.662C155.576 44.0753 155.721 45.1707 155.762 46.948C155.804 48.7253 156.734 50.172 158.552 51.288C160.371 52.404 162.686 52.962 165.496 52.962C167.522 52.962 169.196 52.4453 170.518 51.412C171.841 50.3787 172.502 49.0767 172.502 47.506C172.502 44.6953 170.27 43.0627 165.806 42.608C161.549 42.1533 158.304 41.3267 156.072 40.128C153.84 38.888 152.724 36.7387 152.724 33.68C152.724 30.7867 153.82 28.4513 156.01 26.674C158.201 24.8553 161.053 23.946 164.566 23.946Z" transform="translate(59 98)" fill="white"/>
<path d="M14.568 9.76C14.568 11.392 13.64 12.544 11.784 13.216C12.456 13.424 13.008 13.656 13.44 13.912C14.736 14.664 15.384 15.792 15.384 17.296C15.384 18.768 14.816 19.944 13.68 20.824C12.544 21.688 11.024 22.12 9.12 22.12C8.432 22.12 7.56 22.08 6.504 22C5.448 21.92 4.672 21.88 4.176 21.88C3.744 21.88 3.336 21.904 2.952 21.952L1.824 22.096C1.792 22.096 1.736 22.104 1.656 22.12C1.576 22.12 1.52 22.12 1.488 22.12C0.8 22.104 0.456 21.816 0.456 21.256C0.456 20.744 0.704 20.488 1.2 20.488C1.328 20.488 1.544 20.512 1.848 20.56C2.056 20.592 2.224 20.608 2.352 20.608C3.168 20.608 3.576 20.016 3.576 18.832V9.184C3.576 7.984 3.168 7.384 2.352 7.384C2.208 7.384 2.04 7.4 1.848 7.432C1.56 7.48 1.344 7.504 1.2 7.504C0.704 7.504 0.456 7.248 0.456 6.736C0.456 6.176 0.824 5.896 1.56 5.896H1.872L3.048 6.064C3.384 6.112 3.84 6.136 4.416 6.136C5.024 6.136 5.888 6.088 7.008 5.992C7.76 5.928 8.568 5.896 9.432 5.896C11.048 5.896 12.304 6.24 13.2 6.928C14.112 7.6 14.568 8.544 14.568 9.76ZM5.376 10.792C5.376 11.64 5.448 12.168 5.592 12.376C5.752 12.568 6.176 12.664 6.864 12.664H8.208C11.04 12.664 12.456 11.744 12.456 9.904C12.456 8.224 11.288 7.384 8.952 7.384C7.32 7.384 6.312 7.488 5.928 7.696C5.56 7.904 5.376 8.44 5.376 9.304V10.792ZM5.376 15.664V18.328C5.376 19.368 5.552 20.008 5.904 20.248C6.256 20.488 7.216 20.608 8.784 20.608C11.776 20.608 13.272 19.488 13.272 17.248C13.272 15.184 11.832 14.152 8.952 14.152H6.96C6.096 14.152 5.6 14.344 5.472 14.728C5.408 14.92 5.376 15.232 5.376 15.664ZM27.8732 22.312C26.5612 22.312 25.7532 21.744 25.4492 20.608C24.6332 21.808 23.3532 22.408 21.6092 22.408C20.3132 22.408 19.2732 22.088 18.4892 21.448C17.7212 20.808 17.3372 19.952 17.3372 18.88C17.3372 17.552 17.9052 16.576 19.0412 15.952C19.4732 15.712 19.8412 15.56 20.1452 15.496C20.4652 15.416 21.0972 15.32 22.0412 15.208C23.3852 15.064 24.2572 14.864 24.6572 14.608C25.0732 14.352 25.2812 13.88 25.2812 13.192C25.2812 12.536 25.0492 12.024 24.5852 11.656C24.1372 11.272 23.5052 11.08 22.6892 11.08C21.9692 11.08 21.2972 11.28 20.6732 11.68C20.4332 11.84 20.3132 12.008 20.3132 12.184C20.3132 12.248 20.3852 12.328 20.5292 12.424C20.7532 12.584 20.8652 12.856 20.8652 13.24C20.8652 13.56 20.7452 13.824 20.5052 14.032C20.2812 14.24 19.9932 14.344 19.6412 14.344C19.2252 14.344 18.8732 14.2 18.5852 13.912C18.3132 13.624 18.1772 13.272 18.1772 12.856C18.1772 11.96 18.6172 11.192 19.4972 10.552C20.3932 9.912 21.4732 9.592 22.7372 9.592C25.6492 9.592 27.1052 10.992 27.1052 13.792V18.64C27.1052 19.408 27.1212 19.864 27.1532 20.008C27.2492 20.568 27.5212 20.848 27.9692 20.848C28.5292 20.848 28.8092 20.336 28.8092 19.312V18.136C28.8092 17.624 29.0572 17.368 29.5532 17.368C30.0812 17.368 30.3452 17.752 30.3452 18.52V18.64L30.3212 20.008C30.2892 21.544 29.4732 22.312 27.8732 22.312ZM25.2092 17.536L25.2332 15.832C24.8812 16.152 24.5052 16.376 24.1052 16.504C23.7212 16.632 23.0252 16.744 22.0172 16.84C20.1932 17.016 19.2812 17.688 19.2812 18.856C19.2812 19.464 19.4972 19.944 19.9292 20.296C20.3772 20.648 20.9772 20.824 21.7292 20.824C22.8012 20.824 23.6412 20.536 24.2492 19.96C24.8732 19.368 25.1932 18.56 25.2092 17.536ZM34.7241 10.696V11.344C35.5561 10.176 36.6681 9.592 38.0601 9.592C39.1801 9.592 40.0841 9.912 40.7721 10.552C41.4761 11.176 41.8281 11.984 41.8281 12.976C41.8281 13.68 41.6521 14.256 41.3001 14.704C40.9481 15.136 40.4841 15.352 39.9081 15.352C39.5401 15.352 39.2281 15.24 38.9721 15.016C38.7161 14.792 38.5881 14.52 38.5881 14.2C38.5881 13.944 38.6841 13.72 38.8761 13.528C39.0681 13.32 39.2921 13.216 39.5481 13.216C39.5961 13.216 39.7001 13.24 39.8601 13.288C39.9561 13.096 40.0041 12.92 40.0041 12.76C40.0041 12.296 39.7961 11.904 39.3801 11.584C38.9801 11.264 38.4761 11.104 37.8681 11.104C36.6201 11.104 35.7881 11.664 35.3721 12.784C35.1161 13.472 34.9881 14.512 34.9881 15.904V17.488C34.9881 18.56 34.9961 19.16 35.0121 19.288C35.0921 20.2 35.3401 20.656 35.7561 20.656C35.9641 20.656 36.1801 20.624 36.4041 20.56C36.5801 20.512 36.7321 20.488 36.8601 20.488C37.3721 20.488 37.6281 20.744 37.6281 21.256C37.6281 21.816 37.3001 22.096 36.6441 22.096H36.5481C36.3081 22.096 35.9401 22.064 35.4441 22C34.9641 21.952 34.6041 21.928 34.3641 21.928C33.7241 21.928 33.2201 21.944 32.8521 21.976L31.5081 22.096C30.8521 22.096 30.5241 21.816 30.5241 21.256C30.5241 20.76 30.8281 20.512 31.4361 20.512C31.5961 20.512 31.7161 20.52 31.7961 20.536L32.1561 20.608C32.3161 20.64 32.4281 20.656 32.4921 20.656C32.8921 20.656 33.1081 20.288 33.1401 19.552L33.1881 18.328L33.1161 12.88C33.0681 11.936 32.8281 11.464 32.3961 11.464C32.2681 11.464 32.0921 11.488 31.8681 11.536C31.6441 11.584 31.4681 11.608 31.3401 11.608C30.8121 11.608 30.5481 11.352 30.5481 10.84C30.5481 10.28 30.8921 10 31.5801 10C31.7401 10 31.9801 10.024 32.3001 10.072C32.6201 10.104 32.8601 10.12 33.0201 10.12C33.1481 10.12 33.3561 10.104 33.6441 10.072C33.7721 10.04 33.9241 10.024 34.1001 10.024C34.5161 10.024 34.7241 10.248 34.7241 10.696ZM58.9691 8.344C58.9691 10.12 57.8171 11.6 55.5131 12.784L55.7771 13.216C56.2091 13.936 56.9771 15.08 58.0811 16.648L58.3451 16.984L58.4891 16.576L59.4251 14.104C60.5451 11.16 62.1371 9.688 64.2011 9.688C65.1611 9.688 65.9371 9.968 66.5291 10.528C67.1211 11.072 67.4171 11.792 67.4171 12.688C67.4171 13.536 67.1371 14.256 66.5771 14.848C66.0171 15.424 65.3211 15.712 64.4891 15.712C63.8811 15.712 63.3851 15.56 63.0011 15.256C62.6171 14.952 62.4251 14.552 62.4251 14.056C62.4251 13.288 62.7611 12.904 63.4331 12.904C64.0091 12.904 64.2971 13.168 64.2971 13.696C64.2971 13.76 64.2571 13.888 64.1771 14.08C64.4011 14.112 64.5291 14.128 64.5611 14.128C64.8651 14.128 65.1291 14 65.3531 13.744C65.5771 13.488 65.6891 13.176 65.6891 12.808C65.6891 12.344 65.5371 11.976 65.2331 11.704C64.9451 11.416 64.5451 11.272 64.0331 11.272C63.2011 11.272 62.5211 11.728 61.9931 12.64C61.5611 13.376 61.0331 14.6 60.4091 16.312C60.0731 17.24 59.7611 17.96 59.4731 18.472C60.1611 19.24 60.7371 19.752 61.2011 20.008C61.6651 20.264 62.2491 20.392 62.9531 20.392C63.0971 20.392 63.3051 20.376 63.5771 20.344C63.8651 20.312 64.0811 20.296 64.2251 20.296C64.8811 20.296 65.2091 20.592 65.2091 21.184C65.2091 21.744 64.8731 22.024 64.2011 22.024C64.1851 22.024 64.0571 22.024 63.8171 22.024C63.5931 22.008 63.3691 22 63.1451 22H61.8731C60.7691 22 59.5931 21.352 58.3451 20.056C57.9131 20.552 57.5451 20.904 57.2411 21.112C56.2491 21.8 55.1051 22.144 53.8091 22.144C52.3531 22.144 51.1611 21.704 50.2331 20.824C49.3051 19.944 48.8411 18.808 48.8411 17.416C48.8411 15.544 49.6251 14.112 51.1931 13.12C51.7211 12.784 52.2091 12.504 52.6571 12.28L52.9451 12.136C52.0971 10.6 51.6731 9.368 51.6731 8.44C51.6731 7.48 52.0011 6.704 52.6571 6.112C53.3291 5.52 54.2091 5.224 55.2971 5.224C56.4331 5.224 57.3291 5.504 57.9851 6.064C58.6411 6.624 58.9691 7.384 58.9691 8.344ZM53.6411 8.344C53.6411 8.952 53.9931 9.952 54.6971 11.344C56.2491 10.608 57.0251 9.664 57.0251 8.512C57.0251 8 56.8651 7.592 56.5451 7.288C56.2411 6.968 55.8251 6.808 55.2971 6.808C54.8011 6.808 54.4011 6.952 54.0971 7.24C53.7931 7.512 53.6411 7.88 53.6411 8.344ZM54.7211 15.28C54.3371 14.688 53.9931 14.128 53.6891 13.6C53.0811 13.888 52.5851 14.2 52.2011 14.536C51.3211 15.288 50.8811 16.24 50.8811 17.392C50.8811 18.288 51.1611 19.016 51.7211 19.576C52.2971 20.12 53.0411 20.392 53.9531 20.392C55.3131 20.392 56.4091 19.84 57.2411 18.736C56.1691 17.36 55.3291 16.208 54.7211 15.28ZM81.6572 5.464C83.2572 5.464 84.7052 6.064 86.0012 7.264C85.9692 7.04 85.9532 6.912 85.9532 6.88C85.9212 6.56 85.9052 6.384 85.9052 6.352C85.9052 5.824 86.1692 5.56 86.6972 5.56C87.2732 5.56 87.5612 5.904 87.5612 6.592C87.5612 6.816 87.5532 6.984 87.5372 7.096L87.3692 8.248C87.3212 8.584 87.2972 8.944 87.2972 9.328C87.2972 9.632 87.3292 10.28 87.3932 11.272C87.3932 11.272 87.3932 11.344 87.3932 11.488C87.3932 12.208 87.0972 12.568 86.5052 12.568C85.9452 12.568 85.6652 12.176 85.6652 11.392V10.672C85.6652 9.568 85.2972 8.696 84.5612 8.056C83.8412 7.416 82.8652 7.096 81.6332 7.096C80.0812 7.096 78.8652 7.696 77.9852 8.896C77.1052 10.096 76.6652 11.744 76.6652 13.84C76.6652 16.064 77.1132 17.8 78.0092 19.048C78.9212 20.296 80.1772 20.92 81.7772 20.92C83.0092 20.92 83.9612 20.56 84.6332 19.84C85.3052 19.12 85.6412 18.096 85.6412 16.768C85.6412 16.224 85.5452 15.848 85.3532 15.64C85.1772 15.416 84.8572 15.304 84.3932 15.304C84.2652 15.304 84.0812 15.312 83.8412 15.328C83.6012 15.344 83.4172 15.352 83.2892 15.352C82.5212 15.352 82.1372 15.08 82.1372 14.536C82.1372 13.976 82.4652 13.696 83.1212 13.696C83.3292 13.696 83.5612 13.712 83.8172 13.744C84.8252 13.872 85.6332 13.936 86.2412 13.936C87.0252 13.936 87.8572 13.864 88.7372 13.72C88.9292 13.688 89.1452 13.672 89.3852 13.672C90.0252 13.672 90.3452 13.936 90.3452 14.464C90.3452 14.688 90.2572 14.88 90.0812 15.04C89.9212 15.2 89.7292 15.28 89.5052 15.28C89.3132 15.28 89.1692 15.272 89.0732 15.256C89.0412 15.256 88.9852 15.248 88.9052 15.232C88.8252 15.232 88.7612 15.232 88.7132 15.232C88.0092 15.232 87.6572 16.016 87.6572 17.584V19.504C87.6572 19.92 87.6732 20.296 87.7052 20.632C87.7372 20.968 87.7532 21.232 87.7532 21.424C87.7532 22.08 87.4652 22.408 86.8892 22.408C86.3292 22.408 86.0492 22.128 86.0492 21.568C86.0492 21.568 86.0652 21.376 86.0972 20.992C86.1132 20.848 86.1292 20.6 86.1452 20.248C85.7772 20.744 85.4892 21.088 85.2812 21.28C84.3532 22.112 83.0652 22.528 81.4172 22.528C79.3532 22.528 77.6892 21.76 76.4252 20.224C75.1612 18.688 74.5292 16.68 74.5292 14.2C74.5292 11.544 75.1692 9.424 76.4492 7.84C77.7452 6.256 79.4812 5.464 81.6572 5.464ZM95.2163 10.696V11.344C96.0483 10.176 97.1603 9.592 98.5523 9.592C99.6723 9.592 100.576 9.912 101.264 10.552C101.968 11.176 102.32 11.984 102.32 12.976C102.32 13.68 102.144 14.256 101.792 14.704C101.44 15.136 100.976 15.352 100.4 15.352C100.032 15.352 99.7203 15.24 99.4643 15.016C99.2083 14.792 99.0803 14.52 99.0803 14.2C99.0803 13.944 99.1763 13.72 99.3683 13.528C99.5603 13.32 99.7843 13.216 100.04 13.216C100.088 13.216 100.192 13.24 100.352 13.288C100.448 13.096 100.496 12.92 100.496 12.76C100.496 12.296 100.288 11.904 99.8723 11.584C99.4723 11.264 98.9683 11.104 98.3603 11.104C97.1123 11.104 96.2803 11.664 95.8643 12.784C95.6083 13.472 95.4803 14.512 95.4803 15.904V17.488C95.4803 18.56 95.4883 19.16 95.5043 19.288C95.5843 20.2 95.8323 20.656 96.2483 20.656C96.4563 20.656 96.6723 20.624 96.8963 20.56C97.0723 20.512 97.2243 20.488 97.3523 20.488C97.8643 20.488 98.1203 20.744 98.1203 21.256C98.1203 21.816 97.7923 22.096 97.1363 22.096H97.0403C96.8003 22.096 96.4323 22.064 95.9363 22C95.4563 21.952 95.0963 21.928 94.8563 21.928C94.2163 21.928 93.7123 21.944 93.3443 21.976L92.0003 22.096C91.3443 22.096 91.0163 21.816 91.0163 21.256C91.0163 20.76 91.3203 20.512 91.9283 20.512C92.0883 20.512 92.2083 20.52 92.2883 20.536L92.6483 20.608C92.8083 20.64 92.9203 20.656 92.9843 20.656C93.3843 20.656 93.6003 20.288 93.6323 19.552L93.6803 18.328L93.6083 12.88C93.5603 11.936 93.3203 11.464 92.8883 11.464C92.7603 11.464 92.5843 11.488 92.3603 11.536C92.1363 11.584 91.9603 11.608 91.8323 11.608C91.3043 11.608 91.0403 11.352 91.0403 10.84C91.0403 10.28 91.3843 10 92.0723 10C92.2323 10 92.4723 10.024 92.7923 10.072C93.1123 10.104 93.3523 10.12 93.5123 10.12C93.6403 10.12 93.8483 10.104 94.1363 10.072C94.2643 10.04 94.4163 10.024 94.5923 10.024C95.0083 10.024 95.2163 10.248 95.2163 10.696ZM107.269 15.04V18.16C107.269 18.96 107.277 19.432 107.293 19.576C107.373 20.296 107.589 20.656 107.941 20.656C108.021 20.656 108.221 20.616 108.541 20.536C108.621 20.504 108.741 20.488 108.901 20.488C109.509 20.488 109.813 20.752 109.813 21.28C109.813 21.504 109.709 21.696 109.501 21.856C109.309 22.016 109.061 22.096 108.757 22.096C108.501 22.096 108.109 22.064 107.581 22C107.069 21.92 106.685 21.88 106.429 21.88C106.013 21.88 105.549 21.912 105.037 21.976C104.413 22.056 103.997 22.096 103.789 22.096C103.149 22.096 102.829 21.824 102.829 21.28C102.829 20.752 103.101 20.488 103.645 20.488C103.773 20.488 103.957 20.512 104.197 20.56C104.453 20.608 104.645 20.632 104.773 20.632C105.157 20.632 105.389 20.12 105.469 19.096C105.469 19.032 105.469 18.336 105.469 17.008V15.04C105.469 13.712 105.469 13.016 105.469 12.952C105.389 11.944 105.149 11.44 104.749 11.44C104.621 11.44 104.437 11.472 104.197 11.536C103.973 11.584 103.805 11.608 103.693 11.608C103.117 11.608 102.829 11.352 102.829 10.84C102.829 10.296 103.181 10.024 103.885 10.024C104.189 10.024 104.405 10.032 104.533 10.048C105.045 10.112 105.373 10.144 105.517 10.144C105.645 10.144 105.837 10.128 106.093 10.096C106.365 10.048 106.565 10.024 106.693 10.024C107.157 10.024 107.389 10.336 107.389 10.96C107.389 11.024 107.381 11.12 107.365 11.248C107.349 11.376 107.341 11.472 107.341 11.536C107.325 11.664 107.309 12.16 107.293 13.024C107.277 13.68 107.269 14.352 107.269 15.04ZM106.021 8.752C105.653 8.752 105.333 8.624 105.061 8.368C104.805 8.096 104.677 7.776 104.677 7.408C104.677 7.04 104.805 6.728 105.061 6.472C105.333 6.216 105.653 6.088 106.021 6.088C106.389 6.088 106.701 6.216 106.957 6.472C107.229 6.728 107.365 7.04 107.365 7.408C107.365 7.776 107.229 8.096 106.957 8.368C106.701 8.624 106.389 8.752 106.021 8.752ZM114.555 11.968L114.579 19.432C114.595 20.248 114.811 20.656 115.227 20.656C115.323 20.656 115.523 20.616 115.827 20.536C116.019 20.504 116.147 20.488 116.211 20.488C116.739 20.488 117.003 20.76 117.003 21.304C117.003 21.832 116.675 22.096 116.019 22.096C115.763 22.096 115.355 22.064 114.795 22C114.235 21.936 113.803 21.904 113.499 21.904C113.243 21.904 112.859 21.936 112.347 22C111.835 22.064 111.459 22.096 111.219 22.096H111.099C110.427 22.096 110.091 21.808 110.091 21.232C110.091 20.736 110.363 20.488 110.907 20.488C110.939 20.488 110.995 20.488 111.075 20.488C111.171 20.504 111.243 20.512 111.291 20.512C111.691 20.576 111.923 20.608 111.987 20.608C112.275 20.608 112.451 20.488 112.515 20.248C112.595 19.992 112.643 19.344 112.659 18.304L112.683 16.624L112.755 12.904L112.731 8.632C112.715 8.152 112.691 7.832 112.659 7.672C112.547 7.304 112.323 7.12 111.987 7.12C111.939 7.12 111.731 7.152 111.363 7.216C111.187 7.248 111.043 7.264 110.931 7.264C110.387 7.264 110.115 7.008 110.115 6.496C110.115 5.968 110.435 5.704 111.075 5.704C111.251 5.704 111.403 5.712 111.531 5.728L112.107 5.8C112.363 5.832 112.579 5.848 112.755 5.848C112.915 5.848 113.155 5.824 113.475 5.776C113.795 5.712 114.035 5.68 114.195 5.68C114.563 5.68 114.747 5.912 114.747 6.376C114.747 6.536 114.739 6.656 114.723 6.736C114.611 7.968 114.555 9.712 114.555 11.968ZM121.961 11.968L121.985 19.432C122.001 20.248 122.217 20.656 122.633 20.656C122.729 20.656 122.929 20.616 123.233 20.536C123.425 20.504 123.553 20.488 123.617 20.488C124.145 20.488 124.409 20.76 124.409 21.304C124.409 21.832 124.081 22.096 123.425 22.096C123.169 22.096 122.761 22.064 122.201 22C121.641 21.936 121.209 21.904 120.905 21.904C120.649 21.904 120.265 21.936 119.753 22C119.241 22.064 118.865 22.096 118.625 22.096H118.505C117.833 22.096 117.497 21.808 117.497 21.232C117.497 20.736 117.769 20.488 118.313 20.488C118.345 20.488 118.401 20.488 118.481 20.488C118.577 20.504 118.649 20.512 118.697 20.512C119.097 20.576 119.329 20.608 119.393 20.608C119.681 20.608 119.857 20.488 119.921 20.248C120.001 19.992 120.049 19.344 120.065 18.304L120.089 16.624L120.161 12.904L120.137 8.632C120.121 8.152 120.097 7.832 120.065 7.672C119.953 7.304 119.729 7.12 119.393 7.12C119.345 7.12 119.137 7.152 118.769 7.216C118.593 7.248 118.449 7.264 118.337 7.264C117.793 7.264 117.521 7.008 117.521 6.496C117.521 5.968 117.841 5.704 118.481 5.704C118.657 5.704 118.809 5.712 118.937 5.728L119.513 5.8C119.769 5.832 119.985 5.848 120.161 5.848C120.321 5.848 120.561 5.824 120.881 5.776C121.201 5.712 121.441 5.68 121.601 5.68C121.969 5.68 122.153 5.912 122.153 6.376C122.153 6.536 122.145 6.656 122.129 6.736C122.017 7.968 121.961 9.712 121.961 11.968Z" transform="translate(59 174)" fill="white"/>
<rect width="178" height="4" transform="translate(59 166)" fill="white"/>
</svg>
