<svg width="300" height="300" viewBox="0 0 300 300" fill="none" xmlns="http://www.w3.org/2000/svg">
<path d="M2.13685 26.9565H3.84634V3.04347H2.13685L0 0.652161H10.6843C18.1633 0.652161 20.5138 4.7826 20.5138 7.60868C20.5138 10.8696 18.5906 13.2609 15.1717 14.1304C20.3001 14.7826 23.078 17.8261 23.078 21.5217C23.078 26.3043 19.4454 29.3478 13.4622 29.3478H0L2.13685 26.9565ZM10.0432 13.4782C13.6759 13.4782 15.3854 11.7391 15.3854 8.04347C15.3854 4.5652 13.4622 2.82607 9.82953 2.82607H8.33373V13.4782H10.0432ZM11.9664 26.9565C16.4538 26.9565 17.9496 24.1304 17.9496 21.5217C17.9496 18.6956 16.4538 15.8696 11.1116 15.8696H8.33373V26.9565H11.9664Z" transform="translate(61 135)" fill="white"/>
<path d="M34.1897 26.9565H35.8991V3.04347H34.1897L32.0528 0.652161H44.4465L42.3097 3.04347H40.6002V26.9565H42.3097L44.4465 29.3478H32.0528L34.1897 26.9565Z" transform="translate(61 135)" fill="white"/>
<path d="M67.7383 0C77.9952 0 83.1236 8.26087 83.1236 15C83.1236 22.8261 77.3541 30 67.952 30C57.6951 30 52.7803 21.7391 52.7803 15C52.5666 8.26087 57.4814 0 67.7383 0ZM67.7383 27.6087C74.1488 27.6087 77.5678 22.8261 77.5678 15C77.5678 6.95652 73.9352 2.3913 67.7383 2.3913C61.5414 2.3913 57.9088 7.17391 57.9088 15C58.1224 23.4783 62.1825 27.6087 67.7383 27.6087Z" transform="translate(61 135)" fill="white"/>
<path d="M92.7395 26.9565H94.4489V3.04347H92.7395L90.6026 0.652161H98.7226V3.04347L115.604 22.6087V3.04347H113.681L111.544 0.652161H122.014L119.878 3.04347H118.168V29.3478H115.604L97.0132 7.82607V26.9565H98.7226L100.86 29.3478H90.6026L92.7395 26.9565Z" transform="translate(61 135)" fill="white"/>
<path d="M131.203 26.9565H132.912V3.04347H131.203L129.066 0.652161H141.673C151.076 0.652161 157.273 6.52173 157.273 15.4348C157.273 23.2609 152.144 29.3478 143.169 29.3478H129.066L131.203 26.9565ZM141.673 26.9565C145.734 26.9565 151.717 25 151.717 15.8696C151.717 12.6087 150.862 8.47825 148.298 5.86955C146.588 4.13042 143.597 3.04347 139.537 3.04347H137.613V26.9565H141.673Z" transform="translate(61 135)" fill="white"/>
<path d="M167.743 26.9565H169.453V3.04347H167.743L165.606 0.652161H178L175.863 3.04347H173.94V26.9565H175.863L178 29.3478H165.606L167.743 26.9565Z" transform="translate(61 135)" fill="white"/>
</svg>
