<svg width="300" height="300" viewBox="0 0 300 300" fill="none" xmlns="http://www.w3.org/2000/svg">
<path d="M222.639 19L223.406 19.6419L223.406 19.6419L222.639 19ZM141.21 19L141.977 18.3581L141.977 18.3581L141.21 19ZM59.7814 19L59.0146 18.3581L59.0146 18.3581L59.7814 19ZM0 34.4872H-1C-1 34.9016 -0.744421 35.273 -0.357402 35.4211L0 34.4872ZM183.932 19L184.699 19.6419L184.699 19.6419L183.932 19ZM102.503 19L103.27 18.3581L103.27 18.3581L102.503 19ZM21.074 19L20.3072 18.3581L20.3072 18.3581L21.074 19ZM0 34.2639L-0.36827 33.3342C-0.749575 33.4852 -1 33.8538 -1 34.2639H0ZM244 3.62348L244.363 4.55533C244.747 4.40575 245 4.03574 245 3.62348C245 3.21122 244.747 2.84121 244.363 2.69163L244 3.62348ZM140.444 19.6419C162.05 45.4527 201.8 45.4527 223.406 19.6419L221.872 18.3581C201.066 43.214 162.784 43.214 141.977 18.3581L140.444 19.6419ZM60.5482 19.6419C81.3549 -5.21396 119.637 -5.21396 140.444 19.6419L141.977 18.3581C120.371 -7.45271 80.6207 -7.45271 59.0146 18.3581L60.5482 19.6419ZM-0.357402 35.4211C20.3729 43.3542 45.0981 38.0988 60.5482 19.6419L59.0146 18.3581C44.1401 36.1274 20.3314 41.1968 0.357402 33.5532L-0.357402 35.4211ZM101.736 19.6419C123.342 45.4527 163.093 45.4527 184.699 19.6419L183.165 18.3581C162.358 43.214 124.076 43.214 103.27 18.3581L101.736 19.6419ZM21.8408 19.6419C42.6475 -5.21396 80.9295 -5.21396 101.736 19.6419L103.27 18.3581C81.6637 -7.45271 41.9133 -7.45271 20.3072 18.3581L21.8408 19.6419ZM0.36827 35.1936C8.41134 32.0077 15.8301 26.8224 21.8408 19.6419L20.3072 18.3581C14.5153 25.2772 7.37293 30.2678 -0.36827 33.3342L0.36827 35.1936ZM1 34.4872V34.2639H-1V34.4872H1ZM184.699 19.6419C199.643 1.78909 223.606 -3.24418 243.637 4.55533L244.363 2.69163C223.573 -5.40331 198.688 -0.185559 183.165 18.3581L184.699 19.6419ZM223.406 19.6419C229.268 12.6391 236.513 7.61168 244.363 4.55533L243.637 2.69163C235.482 5.86712 227.956 11.0907 221.872 18.3581L223.406 19.6419ZM59.7814 20H183.932V18H59.7814V20Z" transform="translate(28 131)" fill="white"/>
</svg>
